<svg xmlns="http://www.w3.org/2000/svg" width="1400" height="900" viewBox="0 0 1400 900">
<style>
    .title { font: bold 30px Arial; fill:#123; }
    .sub { font: 18px Arial; fill:#333; }
    .box { fill:#ffffff; stroke:#1f6f43; stroke-width:2; rx:14; }
    .actor { fill:#f8fff9; stroke:#1f6f43; stroke-width:2; rx:12; }
    .usecase { fill:#eef8f0; stroke:#1f6f43; stroke-width:2; }
    .arrow { stroke:#333; stroke-width:2; fill:none; marker-end:url(#arrow); }
    .line { stroke:#555; stroke-width:2; fill:none; }
    .dash { stroke:#444; stroke-width:2; fill:none; stroke-dasharray:7 6; marker-end:url(#arrow); }
    .txt { font: 15px Arial; fill:#111; }
    .small { font: 13px Arial; fill:#333; }
    .head { fill:#1f6f43; }
    .headtxt { font: bold 16px Arial; fill:white; }
</style>
<defs>
<marker id="arrow" markerWidth="10" markerHeight="10" refX="9" refY="3" orient="auto" markerUnits="strokeWidth">
<path d="M0,0 L0,6 L9,3 z" fill="#333"/>
</marker>
</defs>
<text x="700" y="45" text-anchor="middle" class="title">Diagramme de cas d’utilisation — CocoaSecure-IoT</text>
<rect x="280" y="90" width="850" height="730" fill="none" stroke="#1f6f43" stroke-width="3"/>
<text x="705" y="120" text-anchor="middle" class="sub">Système CocoaSecure-IoT</text>
<rect x="80" y="130" width="150" height="70" class="actor"/>
<text x="155.0" y="165.0" text-anchor="middle" class="txt" font-size="15">Administrateur</text>
<rect x="60" y="470" width="150" height="70" class="actor"/>
<text x="135.0" y="496.75" text-anchor="middle" class="txt" font-size="15">Opérateur</text>
<text x="135.0" y="514.75" text-anchor="middle" class="txt" font-size="15">coopérative</text>
<rect x="1180" y="150" width="150" height="70" class="actor"/>
<text x="1255.0" y="185.0" text-anchor="middle" class="txt" font-size="15">ESP32 / Capteur</text>
<rect x="1200" y="470" width="150" height="70" class="actor"/>
<text x="1275.0" y="505.0" text-anchor="middle" class="txt" font-size="15">Attaquant</text>
<rect x="1160" y="720" width="150" height="70" class="actor"/>
<text x="1235.0" y="746.75" text-anchor="middle" class="txt" font-size="15">Service</text>
<text x="1235.0" y="764.75" text-anchor="middle" class="txt" font-size="15">détection fraude</text>
<ellipse cx="700.0" cy="177.5" rx="90.0" ry="27.5" class="usecase"/>
<text x="700.0" y="177.5" text-anchor="middle" class="txt">S’authentifier</text>
<ellipse cx="470.0" cy="257.5" rx="90.0" ry="27.5" class="usecase"/>
<text x="470.0" y="257.5" text-anchor="middle" class="txt">Gérer utilisateurs</text>
<ellipse cx="470.0" cy="337.5" rx="90.0" ry="27.5" class="usecase"/>
<text x="470.0" y="337.5" text-anchor="middle" class="txt">Gérer capteurs</text>
<ellipse cx="470.0" cy="417.5" rx="90.0" ry="27.5" class="usecase"/>
<text x="470.0" y="417.5" text-anchor="middle" class="txt">Gérer sites</text>
<ellipse cx="470.0" cy="497.5" rx="90.0" ry="27.5" class="usecase"/>
<text x="470.0" y="497.5" text-anchor="middle" class="txt">Configurer seuils</text>
<ellipse cx="470.0" cy="577.5" rx="90.0" ry="27.5" class="usecase"/>
<text x="470.0" y="577.5" text-anchor="middle" class="txt">Consulter métriques</text>
<ellipse cx="780.0" cy="277.5" rx="90.0" ry="27.5" class="usecase"/>
<text x="780.0" y="269.5" text-anchor="middle" class="txt">Consulter mesures</text>
<text x="780.0" y="287.5" text-anchor="middle" class="txt">temps réel</text>
<ellipse cx="780.0" cy="357.5" rx="90.0" ry="27.5" class="usecase"/>
<text x="780.0" y="357.5" text-anchor="middle" class="txt">Consulter historique</text>
<ellipse cx="780.0" cy="437.5" rx="90.0" ry="27.5" class="usecase"/>
<text x="780.0" y="437.5" text-anchor="middle" class="txt">Consulter carte</text>
<ellipse cx="780.0" cy="517.5" rx="90.0" ry="27.5" class="usecase"/>
<text x="780.0" y="517.5" text-anchor="middle" class="txt">Consulter alertes</text>
<ellipse cx="1000.0" cy="217.5" rx="90.0" ry="27.5" class="usecase"/>
<text x="1000.0" y="217.5" text-anchor="middle" class="txt">Publier mesures MQTT</text>
<ellipse cx="1000.0" cy="307.5" rx="90.0" ry="27.5" class="usecase"/>
<text x="1000.0" y="307.5" text-anchor="middle" class="txt">Authentifier capteur</text>
<ellipse cx="1000.0" cy="467.5" rx="90.0" ry="27.5" class="usecase"/>
<text x="1000.0" y="467.5" text-anchor="middle" class="txt">Injecter faux messages</text>
<ellipse cx="1000.0" cy="547.5" rx="90.0" ry="27.5" class="usecase"/>
<text x="1000.0" y="547.5" text-anchor="middle" class="txt">Replay MQTT</text>
<ellipse cx="1000.0" cy="647.5" rx="90.0" ry="27.5" class="usecase"/>
<text x="1000.0" y="647.5" text-anchor="middle" class="txt">Détecter anomalies</text>
<ellipse cx="1000.0" cy="727.5" rx="90.0" ry="27.5" class="usecase"/>
<text x="1000.0" y="727.5" text-anchor="middle" class="txt">Détecter fraude</text>
<ellipse cx="780.0" cy="677.5" rx="90.0" ry="27.5" class="usecase"/>
<text x="780.0" y="677.5" text-anchor="middle" class="txt">Générer alerte</text>
<line x1="230" y1="165" x2="610" y2="177" class="line"/>
<line x1="230" y1="500" x2="690" y2="277" class="line"/>
<line x1="230" y1="500" x2="690" y2="357" class="line"/>
<line x1="230" y1="500" x2="690" y2="437" class="line"/>
<line x1="230" y1="500" x2="690" y2="517" class="line"/>
<line x1="1180" y1="185" x2="1090" y2="217" class="line"/>
<line x1="1180" y1="185" x2="1090" y2="307" class="line"/>
<line x1="1200" y1="505" x2="1090" y2="467" class="line"/>
<line x1="1200" y1="505" x2="1090" y2="547" class="line"/>
<line x1="1160" y1="755" x2="1090" y2="647" class="line"/>
<line x1="1160" y1="755" x2="1090" y2="727" class="line"/>
<line x1="990" y1="280" x2="990" y2="245" class="dash"/>
<text x="990.0" y="256.5" text-anchor="middle" class="small">include</text>
<line x1="1000" y1="700" x2="1000" y2="675" class="dash"/>
<text x="1000.0" y="681.5" text-anchor="middle" class="small">include</text>
<line x1="870" y1="650" x2="910" y2="720" class="dash"/>
<text x="890.0" y="679.0" text-anchor="middle" class="small">include</text>
</svg>