<?xml version="1.0" encoding="utf-8" standalone="no"?>
<!DOCTYPE svg PUBLIC "-//W3C//DTD SVG 1.1//EN"
  "http://www.w3.org/Graphics/SVG/1.1/DTD/svg11.dtd">
<svg xmlns:xlink="http://www.w3.org/1999/xlink" width="907.2pt" height="568.8pt" viewBox="0 0 907.2 568.8" xmlns="http://www.w3.org/2000/svg" version="1.1">
 <metadata>
  <rdf:RDF xmlns:dc="http://purl.org/dc/elements/1.1/" xmlns:cc="http://creativecommons.org/ns#" xmlns:rdf="http://www.w3.org/1999/02/22-rdf-syntax-ns#">
   <cc:Work>
    <dc:type rdf:resource="http://purl.org/dc/dcmitype/StillImage"/>
    <dc:date>2026-06-29T15:30:49.045628</dc:date>
    <dc:format>image/svg+xml</dc:format>
    <dc:creator>
     <cc:Agent>
      <dc:title>Matplotlib v3.10.8, https://matplotlib.org/</dc:title>
     </cc:Agent>
    </dc:creator>
   </cc:Work>
  </rdf:RDF>
 </metadata>
 <defs>
  <style type="text/css">*{stroke-linejoin: round; stroke-linecap: butt}</style>
 </defs>
 <g id="figure_1">
  <g id="patch_1">
   <path d="M 0 568.8 
L 907.2 568.8 
L 907.2 0 
L 0 0 
z
" style="fill: #ffffff"/>
  </g>
  <g id="axes_1">
   <g id="patch_2">
    <path d="M 67.9104 169.0848 
L 151.8336 169.0848 
Q 187.5456 169.0848 187.5456 146.9088 
L 187.5456 122.5152 
Q 187.5456 100.3392 151.8336 100.3392 
L 67.9104 100.3392 
Q 32.1984 100.3392 32.1984 122.5152 
L 32.1984 146.9088 
Q 32.1984 169.0848 67.9104 169.0848 
z
" clip-path="url(#p95fc202eba)" style="fill: #ffffff; stroke: #1f6f43; stroke-width: 1.8; stroke-linejoin: miter"/>
   </g>
   <g id="patch_3">
    <path d="M 255.3984 169.0848 
L 348.2496 169.0848 
Q 383.9616 169.0848 383.9616 146.9088 
L 383.9616 122.5152 
Q 383.9616 100.3392 348.2496 100.3392 
L 255.3984 100.3392 
Q 219.6864 100.3392 219.6864 122.5152 
L 219.6864 146.9088 
Q 219.6864 169.0848 255.3984 169.0848 
z
" clip-path="url(#p95fc202eba)" style="fill: #ffffff; stroke: #1f6f43; stroke-width: 1.8; stroke-linejoin: miter"/>
   </g>
   <g id="patch_4">
    <path d="M 460.7424 169.0848 
L 571.4496 169.0848 
Q 607.1616 169.0848 607.1616 146.9088 
L 607.1616 116.9712 
Q 607.1616 94.7952 571.4496 94.7952 
L 460.7424 94.7952 
Q 425.0304 94.7952 425.0304 116.9712 
L 425.0304 146.9088 
Q 425.0304 169.0848 460.7424 169.0848 
z
" clip-path="url(#p95fc202eba)" style="fill: #ffffff; stroke: #1f6f43; stroke-width: 1.8; stroke-linejoin: miter"/>
   </g>
   <g id="patch_5">
    <path d="M 237.5424 302.1408 
L 330.3936 302.1408 
Q 366.1056 302.1408 366.1056 279.9648 
L 366.1056 255.5712 
Q 366.1056 233.3952 330.3936 233.3952 
L 237.5424 233.3952 
Q 201.8304 233.3952 201.8304 255.5712 
L 201.8304 279.9648 
Q 201.8304 302.1408 237.5424 302.1408 
z
" clip-path="url(#p95fc202eba)" style="fill: #ffffff; stroke: #1f6f43; stroke-width: 1.8; stroke-linejoin: miter"/>
   </g>
   <g id="patch_6">
    <path d="M 425.0304 302.1408 
L 517.8816 302.1408 
Q 553.5936 302.1408 553.5936 279.9648 
L 553.5936 255.5712 
Q 553.5936 233.3952 517.8816 233.3952 
L 425.0304 233.3952 
Q 389.3184 233.3952 389.3184 255.5712 
L 389.3184 279.9648 
Q 389.3184 302.1408 425.0304 302.1408 
z
" clip-path="url(#p95fc202eba)" style="fill: #ffffff; stroke: #1f6f43; stroke-width: 1.8; stroke-linejoin: miter"/>
   </g>
   <g id="patch_7">
    <path d="M 621.4464 307.6848 
L 732.1536 307.6848 
Q 767.8656 307.6848 767.8656 285.5088 
L 767.8656 250.0272 
Q 767.8656 227.8512 732.1536 227.8512 
L 621.4464 227.8512 
Q 585.7344 227.8512 585.7344 250.0272 
L 585.7344 285.5088 
Q 585.7344 307.6848 621.4464 307.6848 
z
" clip-path="url(#p95fc202eba)" style="fill: #ffffff; stroke: #1f6f43; stroke-width: 1.8; stroke-linejoin: miter"/>
   </g>
   <g id="patch_8">
    <path d="M 344.6784 435.1968 
L 455.3856 435.1968 
Q 491.0976 435.1968 491.0976 413.0208 
L 491.0976 399.7152 
Q 491.0976 377.5392 455.3856 377.5392 
L 344.6784 377.5392 
Q 308.9664 377.5392 308.9664 399.7152 
L 308.9664 413.0208 
Q 308.9664 435.1968 344.6784 435.1968 
z
" clip-path="url(#p95fc202eba)" style="fill: #ffffff; stroke: #1f6f43; stroke-width: 1.8; stroke-linejoin: miter"/>
   </g>
   <g id="patch_9">
    <path d="M 175.0464 512.8128 
L 241.1136 512.8128 
Q 276.8256 512.8128 276.8256 490.6368 
L 276.8256 482.8752 
Q 276.8256 460.6992 241.1136 460.6992 
L 175.0464 460.6992 
Q 139.3344 460.6992 139.3344 482.8752 
L 139.3344 490.6368 
Q 139.3344 512.8128 175.0464 512.8128 
z
" clip-path="url(#p95fc202eba)" style="fill: #ffffff; stroke: #1f6f43; stroke-width: 1.8; stroke-linejoin: miter"/>
   </g>
   <g id="patch_10">
    <path d="M 353.6064 512.8128 
L 419.6736 512.8128 
Q 455.3856 512.8128 455.3856 490.6368 
L 455.3856 482.8752 
Q 455.3856 460.6992 419.6736 460.6992 
L 353.6064 460.6992 
Q 317.8944 460.6992 317.8944 482.8752 
L 317.8944 490.6368 
Q 317.8944 512.8128 353.6064 512.8128 
z
" clip-path="url(#p95fc202eba)" style="fill: #ffffff; stroke: #1f6f43; stroke-width: 1.8; stroke-linejoin: miter"/>
   </g>
   <g id="patch_11">
    <path d="M 532.1664 512.8128 
L 598.2336 512.8128 
Q 633.9456 512.8128 633.9456 490.6368 
L 633.9456 482.8752 
Q 633.9456 460.6992 598.2336 460.6992 
L 532.1664 460.6992 
Q 496.4544 460.6992 496.4544 482.8752 
L 496.4544 490.6368 
Q 496.4544 512.8128 532.1664 512.8128 
z
" clip-path="url(#p95fc202eba)" style="fill: #ffffff; stroke: #1f6f43; stroke-width: 1.8; stroke-linejoin: miter"/>
   </g>
   <g id="patch_12">
    <path d="M 692.8704 435.1968 
L 803.5776 435.1968 
Q 839.2896 435.1968 839.2896 413.0208 
L 839.2896 388.6272 
Q 839.2896 366.4512 803.5776 366.4512 
L 692.8704 366.4512 
Q 657.1584 366.4512 657.1584 388.6272 
L 657.1584 413.0208 
Q 657.1584 435.1968 692.8704 435.1968 
z
" clip-path="url(#p95fc202eba)" style="fill: #ffffff; stroke: #1f6f43; stroke-width: 1.8; stroke-linejoin: miter"/>
   </g>
   <g id="patch_13">
    <path d="M 701.7984 163.5408 
L 767.8656 163.5408 
Q 803.5776 163.5408 803.5776 141.3648 
L 803.5776 128.0592 
Q 803.5776 105.8832 767.8656 105.8832 
L 701.7984 105.8832 
Q 666.0864 105.8832 666.0864 128.0592 
L 666.0864 141.3648 
Q 666.0864 163.5408 701.7984 163.5408 
z
" clip-path="url(#p95fc202eba)" style="fill: #ffffff; stroke: #1f6f43; stroke-width: 1.8; stroke-linejoin: miter"/>
   </g>
   <g id="patch_14">
    <path d="M 817.8624 163.5408 
L 857.1456 163.5408 
Q 892.8576 163.5408 892.8576 141.3648 
L 892.8576 128.0592 
Q 892.8576 105.8832 857.1456 105.8832 
L 817.8624 105.8832 
Q 782.1504 105.8832 782.1504 128.0592 
L 782.1504 141.3648 
Q 782.1504 163.5408 817.8624 163.5408 
z
" clip-path="url(#p95fc202eba)" style="fill: #ffffff; stroke: #1f6f43; stroke-width: 1.8; stroke-linejoin: miter"/>
   </g>
   <g id="patch_15">
    <path d="M 764.2944 224.5248 
L 830.3616 224.5248 
Q 866.0736 224.5248 866.0736 202.3488 
L 866.0736 189.0432 
Q 866.0736 166.8672 830.3616 166.8672 
L 764.2944 166.8672 
Q 728.5824 166.8672 728.5824 189.0432 
L 728.5824 202.3488 
Q 728.5824 224.5248 764.2944 224.5248 
z
" clip-path="url(#p95fc202eba)" style="fill: #ffffff; stroke: #1f6f43; stroke-width: 1.8; stroke-linejoin: miter"/>
   </g>
   <g id="text_1">
    <!-- Diagramme de déploiement — Architecture distribuée Docker -->
    <g style="fill: #112233" transform="translate(158.271484 40.201344) scale(0.17 -0.17)">
     <defs>
      <path id="DejaVuSans-Bold-44" d="M 1791 3756 
L 1791 909 
L 2222 909 
Q 2959 909 3348 1275 
Q 3738 1641 3738 2338 
Q 3738 3031 3350 3393 
Q 2963 3756 2222 3756 
L 1791 3756 
z
M 588 4666 
L 1856 4666 
Q 2919 4666 3439 4514 
Q 3959 4363 4331 4000 
Q 4659 3684 4818 3271 
Q 4978 2859 4978 2338 
Q 4978 1809 4818 1395 
Q 4659 981 4331 666 
Q 3956 303 3431 151 
Q 2906 0 1856 0 
L 588 0 
L 588 4666 
z
" transform="scale(0.015625)"/>
      <path id="DejaVuSans-Bold-69" d="M 538 3500 
L 1656 3500 
L 1656 0 
L 538 0 
L 538 3500 
z
M 538 4863 
L 1656 4863 
L 1656 3950 
L 538 3950 
L 538 4863 
z
" transform="scale(0.015625)"/>
      <path id="DejaVuSans-Bold-61" d="M 2106 1575 
Q 1756 1575 1579 1456 
Q 1403 1338 1403 1106 
Q 1403 894 1545 773 
Q 1688 653 1941 653 
Q 2256 653 2472 879 
Q 2688 1106 2688 1447 
L 2688 1575 
L 2106 1575 
z
M 3816 1997 
L 3816 0 
L 2688 0 
L 2688 519 
Q 2463 200 2181 54 
Q 1900 -91 1497 -91 
Q 953 -91 614 226 
Q 275 544 275 1050 
Q 275 1666 698 1953 
Q 1122 2241 2028 2241 
L 2688 2241 
L 2688 2328 
Q 2688 2594 2478 2717 
Q 2269 2841 1825 2841 
Q 1466 2841 1156 2769 
Q 847 2697 581 2553 
L 581 3406 
Q 941 3494 1303 3539 
Q 1666 3584 2028 3584 
Q 2975 3584 3395 3211 
Q 3816 2838 3816 1997 
z
" transform="scale(0.015625)"/>
      <path id="DejaVuSans-Bold-67" d="M 2919 594 
Q 2688 288 2409 144 
Q 2131 0 1766 0 
Q 1125 0 706 504 
Q 288 1009 288 1791 
Q 288 2575 706 3076 
Q 1125 3578 1766 3578 
Q 2131 3578 2409 3434 
Q 2688 3291 2919 2981 
L 2919 3500 
L 4044 3500 
L 4044 353 
Q 4044 -491 3511 -936 
Q 2978 -1381 1966 -1381 
Q 1638 -1381 1331 -1331 
Q 1025 -1281 716 -1178 
L 716 -306 
Q 1009 -475 1290 -558 
Q 1572 -641 1856 -641 
Q 2406 -641 2662 -400 
Q 2919 -159 2919 353 
L 2919 594 
z
M 2181 2772 
Q 1834 2772 1640 2515 
Q 1447 2259 1447 1791 
Q 1447 1309 1634 1061 
Q 1822 813 2181 813 
Q 2531 813 2725 1069 
Q 2919 1325 2919 1791 
Q 2919 2259 2725 2515 
Q 2531 2772 2181 2772 
z
" transform="scale(0.015625)"/>
      <path id="DejaVuSans-Bold-72" d="M 3138 2547 
Q 2991 2616 2845 2648 
Q 2700 2681 2553 2681 
Q 2122 2681 1889 2404 
Q 1656 2128 1656 1613 
L 1656 0 
L 538 0 
L 538 3500 
L 1656 3500 
L 1656 2925 
Q 1872 3269 2151 3426 
Q 2431 3584 2822 3584 
Q 2878 3584 2943 3579 
Q 3009 3575 3134 3559 
L 3138 2547 
z
" transform="scale(0.015625)"/>
      <path id="DejaVuSans-Bold-6d" d="M 3781 2919 
Q 3994 3244 4286 3414 
Q 4578 3584 4928 3584 
Q 5531 3584 5847 3212 
Q 6163 2841 6163 2131 
L 6163 0 
L 5038 0 
L 5038 1825 
Q 5041 1866 5042 1909 
Q 5044 1953 5044 2034 
Q 5044 2406 4934 2573 
Q 4825 2741 4581 2741 
Q 4263 2741 4089 2478 
Q 3916 2216 3909 1719 
L 3909 0 
L 2784 0 
L 2784 1825 
Q 2784 2406 2684 2573 
Q 2584 2741 2328 2741 
Q 2006 2741 1831 2477 
Q 1656 2213 1656 1722 
L 1656 0 
L 531 0 
L 531 3500 
L 1656 3500 
L 1656 2988 
Q 1863 3284 2130 3434 
Q 2397 3584 2719 3584 
Q 3081 3584 3359 3409 
Q 3638 3234 3781 2919 
z
" transform="scale(0.015625)"/>
      <path id="DejaVuSans-Bold-65" d="M 4031 1759 
L 4031 1441 
L 1416 1441 
Q 1456 1047 1700 850 
Q 1944 653 2381 653 
Q 2734 653 3104 758 
Q 3475 863 3866 1075 
L 3866 213 
Q 3469 63 3072 -14 
Q 2675 -91 2278 -91 
Q 1328 -91 801 392 
Q 275 875 275 1747 
Q 275 2603 792 3093 
Q 1309 3584 2216 3584 
Q 3041 3584 3536 3087 
Q 4031 2591 4031 1759 
z
M 2881 2131 
Q 2881 2450 2695 2645 
Q 2509 2841 2209 2841 
Q 1884 2841 1681 2658 
Q 1478 2475 1428 2131 
L 2881 2131 
z
" transform="scale(0.015625)"/>
      <path id="DejaVuSans-Bold-20" transform="scale(0.015625)"/>
      <path id="DejaVuSans-Bold-64" d="M 2919 2988 
L 2919 4863 
L 4044 4863 
L 4044 0 
L 2919 0 
L 2919 506 
Q 2688 197 2409 53 
Q 2131 -91 1766 -91 
Q 1119 -91 703 423 
Q 288 938 288 1747 
Q 288 2556 703 3070 
Q 1119 3584 1766 3584 
Q 2128 3584 2408 3439 
Q 2688 3294 2919 2988 
z
M 2181 722 
Q 2541 722 2730 984 
Q 2919 1247 2919 1747 
Q 2919 2247 2730 2509 
Q 2541 2772 2181 2772 
Q 1825 2772 1636 2509 
Q 1447 2247 1447 1747 
Q 1447 1247 1636 984 
Q 1825 722 2181 722 
z
" transform="scale(0.015625)"/>
      <path id="DejaVuSans-Bold-e9" d="M 4031 1759 
L 4031 1441 
L 1416 1441 
Q 1456 1047 1700 850 
Q 1944 653 2381 653 
Q 2734 653 3104 758 
Q 3475 863 3866 1075 
L 3866 213 
Q 3469 63 3072 -14 
Q 2675 -91 2278 -91 
Q 1328 -91 801 392 
Q 275 875 275 1747 
Q 275 2603 792 3093 
Q 1309 3584 2216 3584 
Q 3041 3584 3536 3087 
Q 4031 2591 4031 1759 
z
M 2881 2131 
Q 2881 2450 2695 2645 
Q 2509 2841 2209 2841 
Q 1884 2841 1681 2658 
Q 1478 2475 1428 2131 
L 2881 2131 
z
M 2702 5119 
L 3586 5119 
L 2433 3944 
L 1821 3944 
L 2702 5119 
z
" transform="scale(0.015625)"/>
      <path id="DejaVuSans-Bold-70" d="M 1656 506 
L 1656 -1331 
L 538 -1331 
L 538 3500 
L 1656 3500 
L 1656 2988 
Q 1888 3294 2169 3439 
Q 2450 3584 2816 3584 
Q 3463 3584 3878 3070 
Q 4294 2556 4294 1747 
Q 4294 938 3878 423 
Q 3463 -91 2816 -91 
Q 2450 -91 2169 54 
Q 1888 200 1656 506 
z
M 2400 2772 
Q 2041 2772 1848 2508 
Q 1656 2244 1656 1747 
Q 1656 1250 1848 986 
Q 2041 722 2400 722 
Q 2759 722 2948 984 
Q 3138 1247 3138 1747 
Q 3138 2247 2948 2509 
Q 2759 2772 2400 2772 
z
" transform="scale(0.015625)"/>
      <path id="DejaVuSans-Bold-6c" d="M 538 4863 
L 1656 4863 
L 1656 0 
L 538 0 
L 538 4863 
z
" transform="scale(0.015625)"/>
      <path id="DejaVuSans-Bold-6f" d="M 2203 2784 
Q 1831 2784 1636 2517 
Q 1441 2250 1441 1747 
Q 1441 1244 1636 976 
Q 1831 709 2203 709 
Q 2569 709 2762 976 
Q 2956 1244 2956 1747 
Q 2956 2250 2762 2517 
Q 2569 2784 2203 2784 
z
M 2203 3584 
Q 3106 3584 3614 3096 
Q 4122 2609 4122 1747 
Q 4122 884 3614 396 
Q 3106 -91 2203 -91 
Q 1297 -91 786 396 
Q 275 884 275 1747 
Q 275 2609 786 3096 
Q 1297 3584 2203 3584 
z
" transform="scale(0.015625)"/>
      <path id="DejaVuSans-Bold-6e" d="M 4056 2131 
L 4056 0 
L 2931 0 
L 2931 347 
L 2931 1631 
Q 2931 2084 2911 2256 
Q 2891 2428 2841 2509 
Q 2775 2619 2662 2680 
Q 2550 2741 2406 2741 
Q 2056 2741 1856 2470 
Q 1656 2200 1656 1722 
L 1656 0 
L 538 0 
L 538 3500 
L 1656 3500 
L 1656 2988 
Q 1909 3294 2193 3439 
Q 2478 3584 2822 3584 
Q 3428 3584 3742 3212 
Q 4056 2841 4056 2131 
z
" transform="scale(0.015625)"/>
      <path id="DejaVuSans-Bold-74" d="M 1759 4494 
L 1759 3500 
L 2913 3500 
L 2913 2700 
L 1759 2700 
L 1759 1216 
Q 1759 972 1856 886 
Q 1953 800 2241 800 
L 2816 800 
L 2816 0 
L 1856 0 
Q 1194 0 917 276 
Q 641 553 641 1216 
L 641 2700 
L 84 2700 
L 84 3500 
L 641 3500 
L 641 4494 
L 1759 4494 
z
" transform="scale(0.015625)"/>
      <path id="DejaVuSans-Bold-2014" d="M 344 2156 
L 6056 2156 
L 6056 1350 
L 344 1350 
L 344 2156 
z
" transform="scale(0.015625)"/>
      <path id="DejaVuSans-Bold-41" d="M 3419 850 
L 1538 850 
L 1241 0 
L 31 0 
L 1759 4666 
L 3194 4666 
L 4922 0 
L 3713 0 
L 3419 850 
z
M 1838 1716 
L 3116 1716 
L 2478 3572 
L 1838 1716 
z
" transform="scale(0.015625)"/>
      <path id="DejaVuSans-Bold-63" d="M 3366 3391 
L 3366 2478 
Q 3138 2634 2908 2709 
Q 2678 2784 2431 2784 
Q 1963 2784 1702 2511 
Q 1441 2238 1441 1747 
Q 1441 1256 1702 982 
Q 1963 709 2431 709 
Q 2694 709 2930 787 
Q 3166 866 3366 1019 
L 3366 103 
Q 3103 6 2833 -42 
Q 2563 -91 2291 -91 
Q 1344 -91 809 395 
Q 275 881 275 1747 
Q 275 2613 809 3098 
Q 1344 3584 2291 3584 
Q 2566 3584 2833 3536 
Q 3100 3488 3366 3391 
z
" transform="scale(0.015625)"/>
      <path id="DejaVuSans-Bold-68" d="M 4056 2131 
L 4056 0 
L 2931 0 
L 2931 347 
L 2931 1625 
Q 2931 2084 2911 2256 
Q 2891 2428 2841 2509 
Q 2775 2619 2662 2680 
Q 2550 2741 2406 2741 
Q 2056 2741 1856 2470 
Q 1656 2200 1656 1722 
L 1656 0 
L 538 0 
L 538 4863 
L 1656 4863 
L 1656 2988 
Q 1909 3294 2193 3439 
Q 2478 3584 2822 3584 
Q 3428 3584 3742 3212 
Q 4056 2841 4056 2131 
z
" transform="scale(0.015625)"/>
      <path id="DejaVuSans-Bold-75" d="M 500 1363 
L 500 3500 
L 1625 3500 
L 1625 3150 
Q 1625 2866 1622 2436 
Q 1619 2006 1619 1863 
Q 1619 1441 1641 1255 
Q 1663 1069 1716 984 
Q 1784 875 1895 815 
Q 2006 756 2150 756 
Q 2500 756 2700 1025 
Q 2900 1294 2900 1772 
L 2900 3500 
L 4019 3500 
L 4019 0 
L 2900 0 
L 2900 506 
Q 2647 200 2364 54 
Q 2081 -91 1741 -91 
Q 1134 -91 817 281 
Q 500 653 500 1363 
z
" transform="scale(0.015625)"/>
      <path id="DejaVuSans-Bold-73" d="M 3272 3391 
L 3272 2541 
Q 2913 2691 2578 2766 
Q 2244 2841 1947 2841 
Q 1628 2841 1473 2761 
Q 1319 2681 1319 2516 
Q 1319 2381 1436 2309 
Q 1553 2238 1856 2203 
L 2053 2175 
Q 2913 2066 3209 1816 
Q 3506 1566 3506 1031 
Q 3506 472 3093 190 
Q 2681 -91 1863 -91 
Q 1516 -91 1145 -36 
Q 775 19 384 128 
L 384 978 
Q 719 816 1070 734 
Q 1422 653 1784 653 
Q 2113 653 2278 743 
Q 2444 834 2444 1013 
Q 2444 1163 2330 1236 
Q 2216 1309 1875 1350 
L 1678 1375 
Q 931 1469 631 1722 
Q 331 1975 331 2491 
Q 331 3047 712 3315 
Q 1094 3584 1881 3584 
Q 2191 3584 2531 3537 
Q 2872 3491 3272 3391 
z
" transform="scale(0.015625)"/>
      <path id="DejaVuSans-Bold-62" d="M 2400 722 
Q 2759 722 2948 984 
Q 3138 1247 3138 1747 
Q 3138 2247 2948 2509 
Q 2759 2772 2400 2772 
Q 2041 2772 1848 2508 
Q 1656 2244 1656 1747 
Q 1656 1250 1848 986 
Q 2041 722 2400 722 
z
M 1656 2988 
Q 1888 3294 2169 3439 
Q 2450 3584 2816 3584 
Q 3463 3584 3878 3070 
Q 4294 2556 4294 1747 
Q 4294 938 3878 423 
Q 3463 -91 2816 -91 
Q 2450 -91 2169 54 
Q 1888 200 1656 506 
L 1656 0 
L 538 0 
L 538 4863 
L 1656 4863 
L 1656 2988 
z
" transform="scale(0.015625)"/>
      <path id="DejaVuSans-Bold-6b" d="M 538 4863 
L 1656 4863 
L 1656 2216 
L 2944 3500 
L 4244 3500 
L 2534 1894 
L 4378 0 
L 3022 0 
L 1656 1459 
L 1656 0 
L 538 0 
L 538 4863 
z
" transform="scale(0.015625)"/>
     </defs>
     <use xlink:href="#DejaVuSans-Bold-44"/>
     <use xlink:href="#DejaVuSans-Bold-69" transform="translate(83.007812 0)"/>
     <use xlink:href="#DejaVuSans-Bold-61" transform="translate(117.285156 0)"/>
     <use xlink:href="#DejaVuSans-Bold-67" transform="translate(184.765625 0)"/>
     <use xlink:href="#DejaVuSans-Bold-72" transform="translate(256.347656 0)"/>
     <use xlink:href="#DejaVuSans-Bold-61" transform="translate(305.664062 0)"/>
     <use xlink:href="#DejaVuSans-Bold-6d" transform="translate(373.144531 0)"/>
     <use xlink:href="#DejaVuSans-Bold-6d" transform="translate(477.34375 0)"/>
     <use xlink:href="#DejaVuSans-Bold-65" transform="translate(581.542969 0)"/>
     <use xlink:href="#DejaVuSans-Bold-20" transform="translate(649.365234 0)"/>
     <use xlink:href="#DejaVuSans-Bold-64" transform="translate(684.179688 0)"/>
     <use xlink:href="#DejaVuSans-Bold-65" transform="translate(755.761719 0)"/>
     <use xlink:href="#DejaVuSans-Bold-20" transform="translate(823.583984 0)"/>
     <use xlink:href="#DejaVuSans-Bold-64" transform="translate(858.398438 0)"/>
     <use xlink:href="#DejaVuSans-Bold-e9" transform="translate(929.980469 0)"/>
     <use xlink:href="#DejaVuSans-Bold-70" transform="translate(997.802734 0)"/>
     <use xlink:href="#DejaVuSans-Bold-6c" transform="translate(1069.384766 0)"/>
     <use xlink:href="#DejaVuSans-Bold-6f" transform="translate(1103.662109 0)"/>
     <use xlink:href="#DejaVuSans-Bold-69" transform="translate(1172.363281 0)"/>
     <use xlink:href="#DejaVuSans-Bold-65" transform="translate(1206.640625 0)"/>
     <use xlink:href="#DejaVuSans-Bold-6d" transform="translate(1274.462891 0)"/>
     <use xlink:href="#DejaVuSans-Bold-65" transform="translate(1378.662109 0)"/>
     <use xlink:href="#DejaVuSans-Bold-6e" transform="translate(1446.484375 0)"/>
     <use xlink:href="#DejaVuSans-Bold-74" transform="translate(1517.675781 0)"/>
     <use xlink:href="#DejaVuSans-Bold-20" transform="translate(1565.478516 0)"/>
     <use xlink:href="#DejaVuSans-Bold-2014" transform="translate(1600.292969 0)"/>
     <use xlink:href="#DejaVuSans-Bold-20" transform="translate(1700.292969 0)"/>
     <use xlink:href="#DejaVuSans-Bold-41" transform="translate(1735.107422 0)"/>
     <use xlink:href="#DejaVuSans-Bold-72" transform="translate(1812.5 0)"/>
     <use xlink:href="#DejaVuSans-Bold-63" transform="translate(1861.816406 0)"/>
     <use xlink:href="#DejaVuSans-Bold-68" transform="translate(1921.09375 0)"/>
     <use xlink:href="#DejaVuSans-Bold-69" transform="translate(1992.285156 0)"/>
     <use xlink:href="#DejaVuSans-Bold-74" transform="translate(2026.5625 0)"/>
     <use xlink:href="#DejaVuSans-Bold-65" transform="translate(2074.365234 0)"/>
     <use xlink:href="#DejaVuSans-Bold-63" transform="translate(2142.1875 0)"/>
     <use xlink:href="#DejaVuSans-Bold-74" transform="translate(2201.464844 0)"/>
     <use xlink:href="#DejaVuSans-Bold-75" transform="translate(2249.267578 0)"/>
     <use xlink:href="#DejaVuSans-Bold-72" transform="translate(2320.458984 0)"/>
     <use xlink:href="#DejaVuSans-Bold-65" transform="translate(2369.775391 0)"/>
     <use xlink:href="#DejaVuSans-Bold-20" transform="translate(2437.597656 0)"/>
     <use xlink:href="#DejaVuSans-Bold-64" transform="translate(2472.412109 0)"/>
     <use xlink:href="#DejaVuSans-Bold-69" transform="translate(2543.994141 0)"/>
     <use xlink:href="#DejaVuSans-Bold-73" transform="translate(2578.271484 0)"/>
     <use xlink:href="#DejaVuSans-Bold-74" transform="translate(2637.792969 0)"/>
     <use xlink:href="#DejaVuSans-Bold-72" transform="translate(2685.595703 0)"/>
     <use xlink:href="#DejaVuSans-Bold-69" transform="translate(2734.912109 0)"/>
     <use xlink:href="#DejaVuSans-Bold-62" transform="translate(2769.189453 0)"/>
     <use xlink:href="#DejaVuSans-Bold-75" transform="translate(2840.771484 0)"/>
     <use xlink:href="#DejaVuSans-Bold-e9" transform="translate(2911.962891 0)"/>
     <use xlink:href="#DejaVuSans-Bold-65" transform="translate(2979.785156 0)"/>
     <use xlink:href="#DejaVuSans-Bold-20" transform="translate(3047.607422 0)"/>
     <use xlink:href="#DejaVuSans-Bold-44" transform="translate(3082.421875 0)"/>
     <use xlink:href="#DejaVuSans-Bold-6f" transform="translate(3165.429688 0)"/>
     <use xlink:href="#DejaVuSans-Bold-63" transform="translate(3234.130859 0)"/>
     <use xlink:href="#DejaVuSans-Bold-6b" transform="translate(3293.408203 0)"/>
     <use xlink:href="#DejaVuSans-Bold-65" transform="translate(3357.287109 0)"/>
     <use xlink:href="#DejaVuSans-Bold-72" transform="translate(3425.109375 0)"/>
    </g>
   </g>
   <g id="text_2">
    <!-- ESP32 / Wokwi -->
    <g style="fill: #111111" transform="translate(75.048563 132.014445) scale(0.095 -0.095)">
     <defs>
      <path id="DejaVuSans-45" d="M 628 4666 
L 3578 4666 
L 3578 4134 
L 1259 4134 
L 1259 2753 
L 3481 2753 
L 3481 2222 
L 1259 2222 
L 1259 531 
L 3634 531 
L 3634 0 
L 628 0 
L 628 4666 
z
" transform="scale(0.015625)"/>
      <path id="DejaVuSans-53" d="M 3425 4513 
L 3425 3897 
Q 3066 4069 2747 4153 
Q 2428 4238 2131 4238 
Q 1616 4238 1336 4038 
Q 1056 3838 1056 3469 
Q 1056 3159 1242 3001 
Q 1428 2844 1947 2747 
L 2328 2669 
Q 3034 2534 3370 2195 
Q 3706 1856 3706 1288 
Q 3706 609 3251 259 
Q 2797 -91 1919 -91 
Q 1588 -91 1214 -16 
Q 841 59 441 206 
L 441 856 
Q 825 641 1194 531 
Q 1563 422 1919 422 
Q 2459 422 2753 634 
Q 3047 847 3047 1241 
Q 3047 1584 2836 1778 
Q 2625 1972 2144 2069 
L 1759 2144 
Q 1053 2284 737 2584 
Q 422 2884 422 3419 
Q 422 4038 858 4394 
Q 1294 4750 2059 4750 
Q 2388 4750 2728 4690 
Q 3069 4631 3425 4513 
z
" transform="scale(0.015625)"/>
      <path id="DejaVuSans-50" d="M 1259 4147 
L 1259 2394 
L 2053 2394 
Q 2494 2394 2734 2622 
Q 2975 2850 2975 3272 
Q 2975 3691 2734 3919 
Q 2494 4147 2053 4147 
L 1259 4147 
z
M 628 4666 
L 2053 4666 
Q 2838 4666 3239 4311 
Q 3641 3956 3641 3272 
Q 3641 2581 3239 2228 
Q 2838 1875 2053 1875 
L 1259 1875 
L 1259 0 
L 628 0 
L 628 4666 
z
" transform="scale(0.015625)"/>
      <path id="DejaVuSans-33" d="M 2597 2516 
Q 3050 2419 3304 2112 
Q 3559 1806 3559 1356 
Q 3559 666 3084 287 
Q 2609 -91 1734 -91 
Q 1441 -91 1130 -33 
Q 819 25 488 141 
L 488 750 
Q 750 597 1062 519 
Q 1375 441 1716 441 
Q 2309 441 2620 675 
Q 2931 909 2931 1356 
Q 2931 1769 2642 2001 
Q 2353 2234 1838 2234 
L 1294 2234 
L 1294 2753 
L 1863 2753 
Q 2328 2753 2575 2939 
Q 2822 3125 2822 3475 
Q 2822 3834 2567 4026 
Q 2313 4219 1838 4219 
Q 1578 4219 1281 4162 
Q 984 4106 628 3988 
L 628 4550 
Q 988 4650 1302 4700 
Q 1616 4750 1894 4750 
Q 2613 4750 3031 4423 
Q 3450 4097 3450 3541 
Q 3450 3153 3228 2886 
Q 3006 2619 2597 2516 
z
" transform="scale(0.015625)"/>
      <path id="DejaVuSans-32" d="M 1228 531 
L 3431 531 
L 3431 0 
L 469 0 
L 469 531 
Q 828 903 1448 1529 
Q 2069 2156 2228 2338 
Q 2531 2678 2651 2914 
Q 2772 3150 2772 3378 
Q 2772 3750 2511 3984 
Q 2250 4219 1831 4219 
Q 1534 4219 1204 4116 
Q 875 4013 500 3803 
L 500 4441 
Q 881 4594 1212 4672 
Q 1544 4750 1819 4750 
Q 2544 4750 2975 4387 
Q 3406 4025 3406 3419 
Q 3406 3131 3298 2873 
Q 3191 2616 2906 2266 
Q 2828 2175 2409 1742 
Q 1991 1309 1228 531 
z
" transform="scale(0.015625)"/>
      <path id="DejaVuSans-20" transform="scale(0.015625)"/>
      <path id="DejaVuSans-2f" d="M 1625 4666 
L 2156 4666 
L 531 -594 
L 0 -594 
L 1625 4666 
z
" transform="scale(0.015625)"/>
      <path id="DejaVuSans-57" d="M 213 4666 
L 850 4666 
L 1831 722 
L 2809 4666 
L 3519 4666 
L 4500 722 
L 5478 4666 
L 6119 4666 
L 4947 0 
L 4153 0 
L 3169 4050 
L 2175 0 
L 1381 0 
L 213 4666 
z
" transform="scale(0.015625)"/>
      <path id="DejaVuSans-6f" d="M 1959 3097 
Q 1497 3097 1228 2736 
Q 959 2375 959 1747 
Q 959 1119 1226 758 
Q 1494 397 1959 397 
Q 2419 397 2687 759 
Q 2956 1122 2956 1747 
Q 2956 2369 2687 2733 
Q 2419 3097 1959 3097 
z
M 1959 3584 
Q 2709 3584 3137 3096 
Q 3566 2609 3566 1747 
Q 3566 888 3137 398 
Q 2709 -91 1959 -91 
Q 1206 -91 779 398 
Q 353 888 353 1747 
Q 353 2609 779 3096 
Q 1206 3584 1959 3584 
z
" transform="scale(0.015625)"/>
      <path id="DejaVuSans-6b" d="M 581 4863 
L 1159 4863 
L 1159 1991 
L 2875 3500 
L 3609 3500 
L 1753 1863 
L 3688 0 
L 2938 0 
L 1159 1709 
L 1159 0 
L 581 0 
L 581 4863 
z
" transform="scale(0.015625)"/>
      <path id="DejaVuSans-77" d="M 269 3500 
L 844 3500 
L 1563 769 
L 2278 3500 
L 2956 3500 
L 3675 769 
L 4391 3500 
L 4966 3500 
L 4050 0 
L 3372 0 
L 2619 2869 
L 1863 0 
L 1184 0 
L 269 3500 
z
" transform="scale(0.015625)"/>
      <path id="DejaVuSans-69" d="M 603 3500 
L 1178 3500 
L 1178 0 
L 603 0 
L 603 3500 
z
M 603 4863 
L 1178 4863 
L 1178 4134 
L 603 4134 
L 603 4863 
z
" transform="scale(0.015625)"/>
     </defs>
     <use xlink:href="#DejaVuSans-45"/>
     <use xlink:href="#DejaVuSans-53" transform="translate(63.183594 0)"/>
     <use xlink:href="#DejaVuSans-50" transform="translate(126.660156 0)"/>
     <use xlink:href="#DejaVuSans-33" transform="translate(186.962891 0)"/>
     <use xlink:href="#DejaVuSans-32" transform="translate(250.585938 0)"/>
     <use xlink:href="#DejaVuSans-20" transform="translate(314.208984 0)"/>
     <use xlink:href="#DejaVuSans-2f" transform="translate(345.996094 0)"/>
     <use xlink:href="#DejaVuSans-20" transform="translate(379.6875 0)"/>
     <use xlink:href="#DejaVuSans-57" transform="translate(411.474609 0)"/>
     <use xlink:href="#DejaVuSans-6f" transform="translate(504.476562 0)"/>
     <use xlink:href="#DejaVuSans-6b" transform="translate(565.658203 0)"/>
     <use xlink:href="#DejaVuSans-77" transform="translate(623.568359 0)"/>
     <use xlink:href="#DejaVuSans-69" transform="translate(705.355469 0)"/>
    </g>
    <!-- ESP01 à ESP05 -->
    <g style="fill: #111111" transform="translate(74.091141 142.652367) scale(0.095 -0.095)">
     <defs>
      <path id="DejaVuSans-30" d="M 2034 4250 
Q 1547 4250 1301 3770 
Q 1056 3291 1056 2328 
Q 1056 1369 1301 889 
Q 1547 409 2034 409 
Q 2525 409 2770 889 
Q 3016 1369 3016 2328 
Q 3016 3291 2770 3770 
Q 2525 4250 2034 4250 
z
M 2034 4750 
Q 2819 4750 3233 4129 
Q 3647 3509 3647 2328 
Q 3647 1150 3233 529 
Q 2819 -91 2034 -91 
Q 1250 -91 836 529 
Q 422 1150 422 2328 
Q 422 3509 836 4129 
Q 1250 4750 2034 4750 
z
" transform="scale(0.015625)"/>
      <path id="DejaVuSans-31" d="M 794 531 
L 1825 531 
L 1825 4091 
L 703 3866 
L 703 4441 
L 1819 4666 
L 2450 4666 
L 2450 531 
L 3481 531 
L 3481 0 
L 794 0 
L 794 531 
z
" transform="scale(0.015625)"/>
      <path id="DejaVuSans-e0" d="M 2194 1759 
Q 1497 1759 1228 1600 
Q 959 1441 959 1056 
Q 959 750 1161 570 
Q 1363 391 1709 391 
Q 2188 391 2477 730 
Q 2766 1069 2766 1631 
L 2766 1759 
L 2194 1759 
z
M 3341 1997 
L 3341 0 
L 2766 0 
L 2766 531 
Q 2569 213 2275 61 
Q 1981 -91 1556 -91 
Q 1019 -91 701 211 
Q 384 513 384 1019 
Q 384 1609 779 1909 
Q 1175 2209 1959 2209 
L 2766 2209 
L 2766 2266 
Q 2766 2663 2505 2880 
Q 2244 3097 1772 3097 
Q 1472 3097 1187 3025 
Q 903 2953 641 2809 
L 641 3341 
Q 956 3463 1253 3523 
Q 1550 3584 1831 3584 
Q 2591 3584 2966 3190 
Q 3341 2797 3341 1997 
z
M 1403 5119 
L 2284 3950 
L 1806 3950 
L 787 5119 
L 1403 5119 
z
" transform="scale(0.015625)"/>
      <path id="DejaVuSans-35" d="M 691 4666 
L 3169 4666 
L 3169 4134 
L 1269 4134 
L 1269 2991 
Q 1406 3038 1543 3061 
Q 1681 3084 1819 3084 
Q 2600 3084 3056 2656 
Q 3513 2228 3513 1497 
Q 3513 744 3044 326 
Q 2575 -91 1722 -91 
Q 1428 -91 1123 -41 
Q 819 9 494 109 
L 494 744 
Q 775 591 1075 516 
Q 1375 441 1709 441 
Q 2250 441 2565 725 
Q 2881 1009 2881 1497 
Q 2881 1984 2565 2268 
Q 2250 2553 1709 2553 
Q 1456 2553 1204 2497 
Q 953 2441 691 2322 
L 691 4666 
z
" transform="scale(0.015625)"/>
     </defs>
     <use xlink:href="#DejaVuSans-45"/>
     <use xlink:href="#DejaVuSans-53" transform="translate(63.183594 0)"/>
     <use xlink:href="#DejaVuSans-50" transform="translate(126.660156 0)"/>
     <use xlink:href="#DejaVuSans-30" transform="translate(186.962891 0)"/>
     <use xlink:href="#DejaVuSans-31" transform="translate(250.585938 0)"/>
     <use xlink:href="#DejaVuSans-20" transform="translate(314.208984 0)"/>
     <use xlink:href="#DejaVuSans-e0" transform="translate(345.996094 0)"/>
     <use xlink:href="#DejaVuSans-20" transform="translate(407.275391 0)"/>
     <use xlink:href="#DejaVuSans-45" transform="translate(439.0625 0)"/>
     <use xlink:href="#DejaVuSans-53" transform="translate(502.246094 0)"/>
     <use xlink:href="#DejaVuSans-50" transform="translate(565.722656 0)"/>
     <use xlink:href="#DejaVuSans-30" transform="translate(626.025391 0)"/>
     <use xlink:href="#DejaVuSans-35" transform="translate(689.648438 0)"/>
    </g>
   </g>
   <g id="text_3">
    <!-- Broker MQTT -->
    <g style="fill: #111111" transform="translate(271.292633 126.695484) scale(0.095 -0.095)">
     <defs>
      <path id="DejaVuSans-42" d="M 1259 2228 
L 1259 519 
L 2272 519 
Q 2781 519 3026 730 
Q 3272 941 3272 1375 
Q 3272 1813 3026 2020 
Q 2781 2228 2272 2228 
L 1259 2228 
z
M 1259 4147 
L 1259 2741 
L 2194 2741 
Q 2656 2741 2882 2914 
Q 3109 3088 3109 3444 
Q 3109 3797 2882 3972 
Q 2656 4147 2194 4147 
L 1259 4147 
z
M 628 4666 
L 2241 4666 
Q 2963 4666 3353 4366 
Q 3744 4066 3744 3513 
Q 3744 3084 3544 2831 
Q 3344 2578 2956 2516 
Q 3422 2416 3680 2098 
Q 3938 1781 3938 1306 
Q 3938 681 3513 340 
Q 3088 0 2303 0 
L 628 0 
L 628 4666 
z
" transform="scale(0.015625)"/>
      <path id="DejaVuSans-72" d="M 2631 2963 
Q 2534 3019 2420 3045 
Q 2306 3072 2169 3072 
Q 1681 3072 1420 2755 
Q 1159 2438 1159 1844 
L 1159 0 
L 581 0 
L 581 3500 
L 1159 3500 
L 1159 2956 
Q 1341 3275 1631 3429 
Q 1922 3584 2338 3584 
Q 2397 3584 2469 3576 
Q 2541 3569 2628 3553 
L 2631 2963 
z
" transform="scale(0.015625)"/>
      <path id="DejaVuSans-65" d="M 3597 1894 
L 3597 1613 
L 953 1613 
Q 991 1019 1311 708 
Q 1631 397 2203 397 
Q 2534 397 2845 478 
Q 3156 559 3463 722 
L 3463 178 
Q 3153 47 2828 -22 
Q 2503 -91 2169 -91 
Q 1331 -91 842 396 
Q 353 884 353 1716 
Q 353 2575 817 3079 
Q 1281 3584 2069 3584 
Q 2775 3584 3186 3129 
Q 3597 2675 3597 1894 
z
M 3022 2063 
Q 3016 2534 2758 2815 
Q 2500 3097 2075 3097 
Q 1594 3097 1305 2825 
Q 1016 2553 972 2059 
L 3022 2063 
z
" transform="scale(0.015625)"/>
      <path id="DejaVuSans-4d" d="M 628 4666 
L 1569 4666 
L 2759 1491 
L 3956 4666 
L 4897 4666 
L 4897 0 
L 4281 0 
L 4281 4097 
L 3078 897 
L 2444 897 
L 1241 4097 
L 1241 0 
L 628 0 
L 628 4666 
z
" transform="scale(0.015625)"/>
      <path id="DejaVuSans-51" d="M 2522 4238 
Q 1834 4238 1429 3725 
Q 1025 3213 1025 2328 
Q 1025 1447 1429 934 
Q 1834 422 2522 422 
Q 3209 422 3611 934 
Q 4013 1447 4013 2328 
Q 4013 3213 3611 3725 
Q 3209 4238 2522 4238 
z
M 3406 84 
L 4238 -825 
L 3475 -825 
L 2784 -78 
Q 2681 -84 2626 -87 
Q 2572 -91 2522 -91 
Q 1538 -91 948 567 
Q 359 1225 359 2328 
Q 359 3434 948 4092 
Q 1538 4750 2522 4750 
Q 3503 4750 4090 4092 
Q 4678 3434 4678 2328 
Q 4678 1516 4351 937 
Q 4025 359 3406 84 
z
" transform="scale(0.015625)"/>
      <path id="DejaVuSans-54" d="M -19 4666 
L 3928 4666 
L 3928 4134 
L 2272 4134 
L 2272 0 
L 1638 0 
L 1638 4134 
L -19 4134 
L -19 4666 
z
" transform="scale(0.015625)"/>
     </defs>
     <use xlink:href="#DejaVuSans-42"/>
     <use xlink:href="#DejaVuSans-72" transform="translate(68.603516 0)"/>
     <use xlink:href="#DejaVuSans-6f" transform="translate(107.466797 0)"/>
     <use xlink:href="#DejaVuSans-6b" transform="translate(168.648438 0)"/>
     <use xlink:href="#DejaVuSans-65" transform="translate(222.933594 0)"/>
     <use xlink:href="#DejaVuSans-72" transform="translate(284.457031 0)"/>
     <use xlink:href="#DejaVuSans-20" transform="translate(325.570312 0)"/>
     <use xlink:href="#DejaVuSans-4d" transform="translate(357.357422 0)"/>
     <use xlink:href="#DejaVuSans-51" transform="translate(443.636719 0)"/>
     <use xlink:href="#DejaVuSans-54" transform="translate(522.347656 0)"/>
     <use xlink:href="#DejaVuSans-54" transform="translate(581.681641 0)"/>
    </g>
    <!-- Mosquitto / EMQX -->
    <g style="fill: #111111" transform="translate(259.656617 137.333406) scale(0.095 -0.095)">
     <defs>
      <path id="DejaVuSans-73" d="M 2834 3397 
L 2834 2853 
Q 2591 2978 2328 3040 
Q 2066 3103 1784 3103 
Q 1356 3103 1142 2972 
Q 928 2841 928 2578 
Q 928 2378 1081 2264 
Q 1234 2150 1697 2047 
L 1894 2003 
Q 2506 1872 2764 1633 
Q 3022 1394 3022 966 
Q 3022 478 2636 193 
Q 2250 -91 1575 -91 
Q 1294 -91 989 -36 
Q 684 19 347 128 
L 347 722 
Q 666 556 975 473 
Q 1284 391 1588 391 
Q 1994 391 2212 530 
Q 2431 669 2431 922 
Q 2431 1156 2273 1281 
Q 2116 1406 1581 1522 
L 1381 1569 
Q 847 1681 609 1914 
Q 372 2147 372 2553 
Q 372 3047 722 3315 
Q 1072 3584 1716 3584 
Q 2034 3584 2315 3537 
Q 2597 3491 2834 3397 
z
" transform="scale(0.015625)"/>
      <path id="DejaVuSans-71" d="M 947 1747 
Q 947 1113 1208 752 
Q 1469 391 1925 391 
Q 2381 391 2643 752 
Q 2906 1113 2906 1747 
Q 2906 2381 2643 2742 
Q 2381 3103 1925 3103 
Q 1469 3103 1208 2742 
Q 947 2381 947 1747 
z
M 2906 525 
Q 2725 213 2448 61 
Q 2172 -91 1784 -91 
Q 1150 -91 751 415 
Q 353 922 353 1747 
Q 353 2572 751 3078 
Q 1150 3584 1784 3584 
Q 2172 3584 2448 3432 
Q 2725 3281 2906 2969 
L 2906 3500 
L 3481 3500 
L 3481 -1331 
L 2906 -1331 
L 2906 525 
z
" transform="scale(0.015625)"/>
      <path id="DejaVuSans-75" d="M 544 1381 
L 544 3500 
L 1119 3500 
L 1119 1403 
Q 1119 906 1312 657 
Q 1506 409 1894 409 
Q 2359 409 2629 706 
Q 2900 1003 2900 1516 
L 2900 3500 
L 3475 3500 
L 3475 0 
L 2900 0 
L 2900 538 
Q 2691 219 2414 64 
Q 2138 -91 1772 -91 
Q 1169 -91 856 284 
Q 544 659 544 1381 
z
M 1991 3584 
L 1991 3584 
z
" transform="scale(0.015625)"/>
      <path id="DejaVuSans-74" d="M 1172 4494 
L 1172 3500 
L 2356 3500 
L 2356 3053 
L 1172 3053 
L 1172 1153 
Q 1172 725 1289 603 
Q 1406 481 1766 481 
L 2356 481 
L 2356 0 
L 1766 0 
Q 1100 0 847 248 
Q 594 497 594 1153 
L 594 3053 
L 172 3053 
L 172 3500 
L 594 3500 
L 594 4494 
L 1172 4494 
z
" transform="scale(0.015625)"/>
      <path id="DejaVuSans-58" d="M 403 4666 
L 1081 4666 
L 2241 2931 
L 3406 4666 
L 4084 4666 
L 2584 2425 
L 4184 0 
L 3506 0 
L 2194 1984 
L 872 0 
L 191 0 
L 1856 2491 
L 403 4666 
z
" transform="scale(0.015625)"/>
     </defs>
     <use xlink:href="#DejaVuSans-4d"/>
     <use xlink:href="#DejaVuSans-6f" transform="translate(86.279297 0)"/>
     <use xlink:href="#DejaVuSans-73" transform="translate(147.460938 0)"/>
     <use xlink:href="#DejaVuSans-71" transform="translate(199.560547 0)"/>
     <use xlink:href="#DejaVuSans-75" transform="translate(263.037109 0)"/>
     <use xlink:href="#DejaVuSans-69" transform="translate(326.416016 0)"/>
     <use xlink:href="#DejaVuSans-74" transform="translate(354.199219 0)"/>
     <use xlink:href="#DejaVuSans-74" transform="translate(393.408203 0)"/>
     <use xlink:href="#DejaVuSans-6f" transform="translate(432.617188 0)"/>
     <use xlink:href="#DejaVuSans-20" transform="translate(493.798828 0)"/>
     <use xlink:href="#DejaVuSans-2f" transform="translate(525.585938 0)"/>
     <use xlink:href="#DejaVuSans-20" transform="translate(559.277344 0)"/>
     <use xlink:href="#DejaVuSans-45" transform="translate(591.064453 0)"/>
     <use xlink:href="#DejaVuSans-4d" transform="translate(654.248047 0)"/>
     <use xlink:href="#DejaVuSans-51" transform="translate(740.527344 0)"/>
     <use xlink:href="#DejaVuSans-58" transform="translate(819.238281 0)"/>
    </g>
    <!-- TLS 1.3 -->
    <g style="fill: #111111" transform="translate(284.197047 147.971328) scale(0.095 -0.095)">
     <defs>
      <path id="DejaVuSans-4c" d="M 628 4666 
L 1259 4666 
L 1259 531 
L 3531 531 
L 3531 0 
L 628 0 
L 628 4666 
z
" transform="scale(0.015625)"/>
      <path id="DejaVuSans-2e" d="M 684 794 
L 1344 794 
L 1344 0 
L 684 0 
L 684 794 
z
" transform="scale(0.015625)"/>
     </defs>
     <use xlink:href="#DejaVuSans-54"/>
     <use xlink:href="#DejaVuSans-4c" transform="translate(61.083984 0)"/>
     <use xlink:href="#DejaVuSans-53" transform="translate(116.796875 0)"/>
     <use xlink:href="#DejaVuSans-20" transform="translate(180.273438 0)"/>
     <use xlink:href="#DejaVuSans-31" transform="translate(212.060547 0)"/>
     <use xlink:href="#DejaVuSans-2e" transform="translate(275.683594 0)"/>
     <use xlink:href="#DejaVuSans-33" transform="translate(307.470703 0)"/>
    </g>
   </g>
   <g id="text_4">
    <!-- Node-RED -->
    <g style="fill: #111111" transform="translate(492.024633 123.923484) scale(0.095 -0.095)">
     <defs>
      <path id="DejaVuSans-4e" d="M 628 4666 
L 1478 4666 
L 3547 763 
L 3547 4666 
L 4159 4666 
L 4159 0 
L 3309 0 
L 1241 3903 
L 1241 0 
L 628 0 
L 628 4666 
z
" transform="scale(0.015625)"/>
      <path id="DejaVuSans-64" d="M 2906 2969 
L 2906 4863 
L 3481 4863 
L 3481 0 
L 2906 0 
L 2906 525 
Q 2725 213 2448 61 
Q 2172 -91 1784 -91 
Q 1150 -91 751 415 
Q 353 922 353 1747 
Q 353 2572 751 3078 
Q 1150 3584 1784 3584 
Q 2172 3584 2448 3432 
Q 2725 3281 2906 2969 
z
M 947 1747 
Q 947 1113 1208 752 
Q 1469 391 1925 391 
Q 2381 391 2643 752 
Q 2906 1113 2906 1747 
Q 2906 2381 2643 2742 
Q 2381 3103 1925 3103 
Q 1469 3103 1208 2742 
Q 947 2381 947 1747 
z
" transform="scale(0.015625)"/>
      <path id="DejaVuSans-2d" d="M 313 2009 
L 1997 2009 
L 1997 1497 
L 313 1497 
L 313 2009 
z
" transform="scale(0.015625)"/>
      <path id="DejaVuSans-52" d="M 2841 2188 
Q 3044 2119 3236 1894 
Q 3428 1669 3622 1275 
L 4263 0 
L 3584 0 
L 2988 1197 
Q 2756 1666 2539 1819 
Q 2322 1972 1947 1972 
L 1259 1972 
L 1259 0 
L 628 0 
L 628 4666 
L 2053 4666 
Q 2853 4666 3247 4331 
Q 3641 3997 3641 3322 
Q 3641 2881 3436 2590 
Q 3231 2300 2841 2188 
z
M 1259 4147 
L 1259 2491 
L 2053 2491 
Q 2509 2491 2742 2702 
Q 2975 2913 2975 3322 
Q 2975 3731 2742 3939 
Q 2509 4147 2053 4147 
L 1259 4147 
z
" transform="scale(0.015625)"/>
      <path id="DejaVuSans-44" d="M 1259 4147 
L 1259 519 
L 2022 519 
Q 2988 519 3436 956 
Q 3884 1394 3884 2338 
Q 3884 3275 3436 3711 
Q 2988 4147 2022 4147 
L 1259 4147 
z
M 628 4666 
L 1925 4666 
Q 3281 4666 3915 4102 
Q 4550 3538 4550 2338 
Q 4550 1131 3912 565 
Q 3275 0 1925 0 
L 628 0 
L 628 4666 
z
" transform="scale(0.015625)"/>
     </defs>
     <use xlink:href="#DejaVuSans-4e"/>
     <use xlink:href="#DejaVuSans-6f" transform="translate(74.804688 0)"/>
     <use xlink:href="#DejaVuSans-64" transform="translate(135.986328 0)"/>
     <use xlink:href="#DejaVuSans-65" transform="translate(199.462891 0)"/>
     <use xlink:href="#DejaVuSans-2d" transform="translate(260.986328 0)"/>
     <use xlink:href="#DejaVuSans-52" transform="translate(297.070312 0)"/>
     <use xlink:href="#DejaVuSans-45" transform="translate(366.552734 0)"/>
     <use xlink:href="#DejaVuSans-44" transform="translate(429.736328 0)"/>
    </g>
    <!-- Validation + filtrage -->
    <g style="fill: #111111" transform="translate(468.665023 134.561406) scale(0.095 -0.095)">
     <defs>
      <path id="DejaVuSans-56" d="M 1831 0 
L 50 4666 
L 709 4666 
L 2188 738 
L 3669 4666 
L 4325 4666 
L 2547 0 
L 1831 0 
z
" transform="scale(0.015625)"/>
      <path id="DejaVuSans-61" d="M 2194 1759 
Q 1497 1759 1228 1600 
Q 959 1441 959 1056 
Q 959 750 1161 570 
Q 1363 391 1709 391 
Q 2188 391 2477 730 
Q 2766 1069 2766 1631 
L 2766 1759 
L 2194 1759 
z
M 3341 1997 
L 3341 0 
L 2766 0 
L 2766 531 
Q 2569 213 2275 61 
Q 1981 -91 1556 -91 
Q 1019 -91 701 211 
Q 384 513 384 1019 
Q 384 1609 779 1909 
Q 1175 2209 1959 2209 
L 2766 2209 
L 2766 2266 
Q 2766 2663 2505 2880 
Q 2244 3097 1772 3097 
Q 1472 3097 1187 3025 
Q 903 2953 641 2809 
L 641 3341 
Q 956 3463 1253 3523 
Q 1550 3584 1831 3584 
Q 2591 3584 2966 3190 
Q 3341 2797 3341 1997 
z
" transform="scale(0.015625)"/>
      <path id="DejaVuSans-6c" d="M 603 4863 
L 1178 4863 
L 1178 0 
L 603 0 
L 603 4863 
z
" transform="scale(0.015625)"/>
      <path id="DejaVuSans-6e" d="M 3513 2113 
L 3513 0 
L 2938 0 
L 2938 2094 
Q 2938 2591 2744 2837 
Q 2550 3084 2163 3084 
Q 1697 3084 1428 2787 
Q 1159 2491 1159 1978 
L 1159 0 
L 581 0 
L 581 3500 
L 1159 3500 
L 1159 2956 
Q 1366 3272 1645 3428 
Q 1925 3584 2291 3584 
Q 2894 3584 3203 3211 
Q 3513 2838 3513 2113 
z
" transform="scale(0.015625)"/>
      <path id="DejaVuSans-2b" d="M 2944 4013 
L 2944 2272 
L 4684 2272 
L 4684 1741 
L 2944 1741 
L 2944 0 
L 2419 0 
L 2419 1741 
L 678 1741 
L 678 2272 
L 2419 2272 
L 2419 4013 
L 2944 4013 
z
" transform="scale(0.015625)"/>
      <path id="DejaVuSans-66" d="M 2375 4863 
L 2375 4384 
L 1825 4384 
Q 1516 4384 1395 4259 
Q 1275 4134 1275 3809 
L 1275 3500 
L 2222 3500 
L 2222 3053 
L 1275 3053 
L 1275 0 
L 697 0 
L 697 3053 
L 147 3053 
L 147 3500 
L 697 3500 
L 697 3744 
Q 697 4328 969 4595 
Q 1241 4863 1831 4863 
L 2375 4863 
z
" transform="scale(0.015625)"/>
      <path id="DejaVuSans-67" d="M 2906 1791 
Q 2906 2416 2648 2759 
Q 2391 3103 1925 3103 
Q 1463 3103 1205 2759 
Q 947 2416 947 1791 
Q 947 1169 1205 825 
Q 1463 481 1925 481 
Q 2391 481 2648 825 
Q 2906 1169 2906 1791 
z
M 3481 434 
Q 3481 -459 3084 -895 
Q 2688 -1331 1869 -1331 
Q 1566 -1331 1297 -1286 
Q 1028 -1241 775 -1147 
L 775 -588 
Q 1028 -725 1275 -790 
Q 1522 -856 1778 -856 
Q 2344 -856 2625 -561 
Q 2906 -266 2906 331 
L 2906 616 
Q 2728 306 2450 153 
Q 2172 0 1784 0 
Q 1141 0 747 490 
Q 353 981 353 1791 
Q 353 2603 747 3093 
Q 1141 3584 1784 3584 
Q 2172 3584 2450 3431 
Q 2728 3278 2906 2969 
L 2906 3500 
L 3481 3500 
L 3481 434 
z
" transform="scale(0.015625)"/>
     </defs>
     <use xlink:href="#DejaVuSans-56"/>
     <use xlink:href="#DejaVuSans-61" transform="translate(60.658203 0)"/>
     <use xlink:href="#DejaVuSans-6c" transform="translate(121.9375 0)"/>
     <use xlink:href="#DejaVuSans-69" transform="translate(149.720703 0)"/>
     <use xlink:href="#DejaVuSans-64" transform="translate(177.503906 0)"/>
     <use xlink:href="#DejaVuSans-61" transform="translate(240.980469 0)"/>
     <use xlink:href="#DejaVuSans-74" transform="translate(302.259766 0)"/>
     <use xlink:href="#DejaVuSans-69" transform="translate(341.46875 0)"/>
     <use xlink:href="#DejaVuSans-6f" transform="translate(369.251953 0)"/>
     <use xlink:href="#DejaVuSans-6e" transform="translate(430.433594 0)"/>
     <use xlink:href="#DejaVuSans-20" transform="translate(493.8125 0)"/>
     <use xlink:href="#DejaVuSans-2b" transform="translate(525.599609 0)"/>
     <use xlink:href="#DejaVuSans-20" transform="translate(609.388672 0)"/>
     <use xlink:href="#DejaVuSans-66" transform="translate(641.175781 0)"/>
     <use xlink:href="#DejaVuSans-69" transform="translate(676.380859 0)"/>
     <use xlink:href="#DejaVuSans-6c" transform="translate(704.164062 0)"/>
     <use xlink:href="#DejaVuSans-74" transform="translate(731.947266 0)"/>
     <use xlink:href="#DejaVuSans-72" transform="translate(771.15625 0)"/>
     <use xlink:href="#DejaVuSans-61" transform="translate(812.269531 0)"/>
     <use xlink:href="#DejaVuSans-67" transform="translate(873.548828 0)"/>
     <use xlink:href="#DejaVuSans-65" transform="translate(937.025391 0)"/>
    </g>
    <!-- Détection -->
    <g style="fill: #111111" transform="translate(493.020648 145.199328) scale(0.095 -0.095)">
     <defs>
      <path id="DejaVuSans-e9" d="M 3597 1894 
L 3597 1613 
L 953 1613 
Q 991 1019 1311 708 
Q 1631 397 2203 397 
Q 2534 397 2845 478 
Q 3156 559 3463 722 
L 3463 178 
Q 3153 47 2828 -22 
Q 2503 -91 2169 -91 
Q 1331 -91 842 396 
Q 353 884 353 1716 
Q 353 2575 817 3079 
Q 1281 3584 2069 3584 
Q 2775 3584 3186 3129 
Q 3597 2675 3597 1894 
z
M 3022 2063 
Q 3016 2534 2758 2815 
Q 2500 3097 2075 3097 
Q 1594 3097 1305 2825 
Q 1016 2553 972 2059 
L 3022 2063 
z
M 2466 5119 
L 3088 5119 
L 2070 3944 
L 1591 3944 
L 2466 5119 
z
" transform="scale(0.015625)"/>
      <path id="DejaVuSans-63" d="M 3122 3366 
L 3122 2828 
Q 2878 2963 2633 3030 
Q 2388 3097 2138 3097 
Q 1578 3097 1268 2742 
Q 959 2388 959 1747 
Q 959 1106 1268 751 
Q 1578 397 2138 397 
Q 2388 397 2633 464 
Q 2878 531 3122 666 
L 3122 134 
Q 2881 22 2623 -34 
Q 2366 -91 2075 -91 
Q 1284 -91 818 406 
Q 353 903 353 1747 
Q 353 2603 823 3093 
Q 1294 3584 2113 3584 
Q 2378 3584 2631 3529 
Q 2884 3475 3122 3366 
z
" transform="scale(0.015625)"/>
     </defs>
     <use xlink:href="#DejaVuSans-44"/>
     <use xlink:href="#DejaVuSans-e9" transform="translate(77.001953 0)"/>
     <use xlink:href="#DejaVuSans-74" transform="translate(138.525391 0)"/>
     <use xlink:href="#DejaVuSans-65" transform="translate(177.734375 0)"/>
     <use xlink:href="#DejaVuSans-63" transform="translate(239.257812 0)"/>
     <use xlink:href="#DejaVuSans-74" transform="translate(294.238281 0)"/>
     <use xlink:href="#DejaVuSans-69" transform="translate(333.447266 0)"/>
     <use xlink:href="#DejaVuSans-6f" transform="translate(361.230469 0)"/>
     <use xlink:href="#DejaVuSans-6e" transform="translate(422.412109 0)"/>
    </g>
   </g>
   <g id="text_5">
    <!-- InfluxDB v2 -->
    <g style="fill: #111111" transform="translate(256.483312 265.070445) scale(0.095 -0.095)">
     <defs>
      <path id="DejaVuSans-49" d="M 628 4666 
L 1259 4666 
L 1259 0 
L 628 0 
L 628 4666 
z
" transform="scale(0.015625)"/>
      <path id="DejaVuSans-78" d="M 3513 3500 
L 2247 1797 
L 3578 0 
L 2900 0 
L 1881 1375 
L 863 0 
L 184 0 
L 1544 1831 
L 300 3500 
L 978 3500 
L 1906 2253 
L 2834 3500 
L 3513 3500 
z
" transform="scale(0.015625)"/>
      <path id="DejaVuSans-76" d="M 191 3500 
L 800 3500 
L 1894 563 
L 2988 3500 
L 3597 3500 
L 2284 0 
L 1503 0 
L 191 3500 
z
" transform="scale(0.015625)"/>
     </defs>
     <use xlink:href="#DejaVuSans-49"/>
     <use xlink:href="#DejaVuSans-6e" transform="translate(29.492188 0)"/>
     <use xlink:href="#DejaVuSans-66" transform="translate(92.871094 0)"/>
     <use xlink:href="#DejaVuSans-6c" transform="translate(128.076172 0)"/>
     <use xlink:href="#DejaVuSans-75" transform="translate(155.859375 0)"/>
     <use xlink:href="#DejaVuSans-78" transform="translate(219.238281 0)"/>
     <use xlink:href="#DejaVuSans-44" transform="translate(278.417969 0)"/>
     <use xlink:href="#DejaVuSans-42" transform="translate(355.419922 0)"/>
     <use xlink:href="#DejaVuSans-20" transform="translate(424.023438 0)"/>
     <use xlink:href="#DejaVuSans-76" transform="translate(455.810547 0)"/>
     <use xlink:href="#DejaVuSans-32" transform="translate(514.990234 0)"/>
    </g>
    <!-- Time-Series -->
    <g style="fill: #111111" transform="translate(256.024641 275.708367) scale(0.095 -0.095)">
     <defs>
      <path id="DejaVuSans-6d" d="M 3328 2828 
Q 3544 3216 3844 3400 
Q 4144 3584 4550 3584 
Q 5097 3584 5394 3201 
Q 5691 2819 5691 2113 
L 5691 0 
L 5113 0 
L 5113 2094 
Q 5113 2597 4934 2840 
Q 4756 3084 4391 3084 
Q 3944 3084 3684 2787 
Q 3425 2491 3425 1978 
L 3425 0 
L 2847 0 
L 2847 2094 
Q 2847 2600 2669 2842 
Q 2491 3084 2119 3084 
Q 1678 3084 1418 2786 
Q 1159 2488 1159 1978 
L 1159 0 
L 581 0 
L 581 3500 
L 1159 3500 
L 1159 2956 
Q 1356 3278 1631 3431 
Q 1906 3584 2284 3584 
Q 2666 3584 2933 3390 
Q 3200 3197 3328 2828 
z
" transform="scale(0.015625)"/>
     </defs>
     <use xlink:href="#DejaVuSans-54"/>
     <use xlink:href="#DejaVuSans-69" transform="translate(57.958984 0)"/>
     <use xlink:href="#DejaVuSans-6d" transform="translate(85.742188 0)"/>
     <use xlink:href="#DejaVuSans-65" transform="translate(183.154297 0)"/>
     <use xlink:href="#DejaVuSans-2d" transform="translate(244.677734 0)"/>
     <use xlink:href="#DejaVuSans-53" transform="translate(280.761719 0)"/>
     <use xlink:href="#DejaVuSans-65" transform="translate(344.238281 0)"/>
     <use xlink:href="#DejaVuSans-72" transform="translate(405.761719 0)"/>
     <use xlink:href="#DejaVuSans-69" transform="translate(446.875 0)"/>
     <use xlink:href="#DejaVuSans-65" transform="translate(474.658203 0)"/>
     <use xlink:href="#DejaVuSans-73" transform="translate(536.181641 0)"/>
    </g>
   </g>
   <g id="text_6">
    <!-- MongoDB -->
    <g style="fill: #111111" transform="translate(448.602563 265.070445) scale(0.095 -0.095)">
     <use xlink:href="#DejaVuSans-4d"/>
     <use xlink:href="#DejaVuSans-6f" transform="translate(86.279297 0)"/>
     <use xlink:href="#DejaVuSans-6e" transform="translate(147.460938 0)"/>
     <use xlink:href="#DejaVuSans-67" transform="translate(210.839844 0)"/>
     <use xlink:href="#DejaVuSans-6f" transform="translate(274.316406 0)"/>
     <use xlink:href="#DejaVuSans-44" transform="translate(335.498047 0)"/>
     <use xlink:href="#DejaVuSans-42" transform="translate(412.5 0)"/>
    </g>
    <!-- Metadata + GeoJSON -->
    <g style="fill: #111111" transform="translate(420.743812 275.708367) scale(0.095 -0.095)">
     <defs>
      <path id="DejaVuSans-47" d="M 3809 666 
L 3809 1919 
L 2778 1919 
L 2778 2438 
L 4434 2438 
L 4434 434 
Q 4069 175 3628 42 
Q 3188 -91 2688 -91 
Q 1594 -91 976 548 
Q 359 1188 359 2328 
Q 359 3472 976 4111 
Q 1594 4750 2688 4750 
Q 3144 4750 3555 4637 
Q 3966 4525 4313 4306 
L 4313 3634 
Q 3963 3931 3569 4081 
Q 3175 4231 2741 4231 
Q 1884 4231 1454 3753 
Q 1025 3275 1025 2328 
Q 1025 1384 1454 906 
Q 1884 428 2741 428 
Q 3075 428 3337 486 
Q 3600 544 3809 666 
z
" transform="scale(0.015625)"/>
      <path id="DejaVuSans-4a" d="M 628 4666 
L 1259 4666 
L 1259 325 
Q 1259 -519 939 -900 
Q 619 -1281 -91 -1281 
L -331 -1281 
L -331 -750 
L -134 -750 
Q 284 -750 456 -515 
Q 628 -281 628 325 
L 628 4666 
z
" transform="scale(0.015625)"/>
      <path id="DejaVuSans-4f" d="M 2522 4238 
Q 1834 4238 1429 3725 
Q 1025 3213 1025 2328 
Q 1025 1447 1429 934 
Q 1834 422 2522 422 
Q 3209 422 3611 934 
Q 4013 1447 4013 2328 
Q 4013 3213 3611 3725 
Q 3209 4238 2522 4238 
z
M 2522 4750 
Q 3503 4750 4090 4092 
Q 4678 3434 4678 2328 
Q 4678 1225 4090 567 
Q 3503 -91 2522 -91 
Q 1538 -91 948 565 
Q 359 1222 359 2328 
Q 359 3434 948 4092 
Q 1538 4750 2522 4750 
z
" transform="scale(0.015625)"/>
     </defs>
     <use xlink:href="#DejaVuSans-4d"/>
     <use xlink:href="#DejaVuSans-65" transform="translate(86.279297 0)"/>
     <use xlink:href="#DejaVuSans-74" transform="translate(147.802734 0)"/>
     <use xlink:href="#DejaVuSans-61" transform="translate(187.011719 0)"/>
     <use xlink:href="#DejaVuSans-64" transform="translate(248.291016 0)"/>
     <use xlink:href="#DejaVuSans-61" transform="translate(311.767578 0)"/>
     <use xlink:href="#DejaVuSans-74" transform="translate(373.046875 0)"/>
     <use xlink:href="#DejaVuSans-61" transform="translate(412.255859 0)"/>
     <use xlink:href="#DejaVuSans-20" transform="translate(473.535156 0)"/>
     <use xlink:href="#DejaVuSans-2b" transform="translate(505.322266 0)"/>
     <use xlink:href="#DejaVuSans-20" transform="translate(589.111328 0)"/>
     <use xlink:href="#DejaVuSans-47" transform="translate(620.898438 0)"/>
     <use xlink:href="#DejaVuSans-65" transform="translate(698.388672 0)"/>
     <use xlink:href="#DejaVuSans-6f" transform="translate(759.912109 0)"/>
     <use xlink:href="#DejaVuSans-4a" transform="translate(821.09375 0)"/>
     <use xlink:href="#DejaVuSans-53" transform="translate(850.585938 0)"/>
     <use xlink:href="#DejaVuSans-4f" transform="translate(914.0625 0)"/>
     <use xlink:href="#DejaVuSans-4e" transform="translate(992.773438 0)"/>
    </g>
   </g>
   <g id="text_7">
    <!-- Redis Sentinel -->
    <g style="fill: #111111" transform="translate(643.088359 259.523484) scale(0.095 -0.095)">
     <use xlink:href="#DejaVuSans-52"/>
     <use xlink:href="#DejaVuSans-65" transform="translate(64.982422 0)"/>
     <use xlink:href="#DejaVuSans-64" transform="translate(126.505859 0)"/>
     <use xlink:href="#DejaVuSans-69" transform="translate(189.982422 0)"/>
     <use xlink:href="#DejaVuSans-73" transform="translate(217.765625 0)"/>
     <use xlink:href="#DejaVuSans-20" transform="translate(269.865234 0)"/>
     <use xlink:href="#DejaVuSans-53" transform="translate(301.652344 0)"/>
     <use xlink:href="#DejaVuSans-65" transform="translate(365.128906 0)"/>
     <use xlink:href="#DejaVuSans-6e" transform="translate(426.652344 0)"/>
     <use xlink:href="#DejaVuSans-74" transform="translate(490.03125 0)"/>
     <use xlink:href="#DejaVuSans-69" transform="translate(529.240234 0)"/>
     <use xlink:href="#DejaVuSans-6e" transform="translate(557.023438 0)"/>
     <use xlink:href="#DejaVuSans-65" transform="translate(620.402344 0)"/>
     <use xlink:href="#DejaVuSans-6c" transform="translate(681.925781 0)"/>
    </g>
    <!-- Master + 2 réplicas -->
    <g style="fill: #111111" transform="translate(630.627031 270.617406) scale(0.095 -0.095)">
     <defs>
      <path id="DejaVuSans-70" d="M 1159 525 
L 1159 -1331 
L 581 -1331 
L 581 3500 
L 1159 3500 
L 1159 2969 
Q 1341 3281 1617 3432 
Q 1894 3584 2278 3584 
Q 2916 3584 3314 3078 
Q 3713 2572 3713 1747 
Q 3713 922 3314 415 
Q 2916 -91 2278 -91 
Q 1894 -91 1617 61 
Q 1341 213 1159 525 
z
M 3116 1747 
Q 3116 2381 2855 2742 
Q 2594 3103 2138 3103 
Q 1681 3103 1420 2742 
Q 1159 2381 1159 1747 
Q 1159 1113 1420 752 
Q 1681 391 2138 391 
Q 2594 391 2855 752 
Q 3116 1113 3116 1747 
z
" transform="scale(0.015625)"/>
     </defs>
     <use xlink:href="#DejaVuSans-4d"/>
     <use xlink:href="#DejaVuSans-61" transform="translate(86.279297 0)"/>
     <use xlink:href="#DejaVuSans-73" transform="translate(147.558594 0)"/>
     <use xlink:href="#DejaVuSans-74" transform="translate(199.658203 0)"/>
     <use xlink:href="#DejaVuSans-65" transform="translate(238.867188 0)"/>
     <use xlink:href="#DejaVuSans-72" transform="translate(300.390625 0)"/>
     <use xlink:href="#DejaVuSans-20" transform="translate(341.503906 0)"/>
     <use xlink:href="#DejaVuSans-2b" transform="translate(373.291016 0)"/>
     <use xlink:href="#DejaVuSans-20" transform="translate(457.080078 0)"/>
     <use xlink:href="#DejaVuSans-32" transform="translate(488.867188 0)"/>
     <use xlink:href="#DejaVuSans-20" transform="translate(552.490234 0)"/>
     <use xlink:href="#DejaVuSans-72" transform="translate(584.277344 0)"/>
     <use xlink:href="#DejaVuSans-e9" transform="translate(623.140625 0)"/>
     <use xlink:href="#DejaVuSans-70" transform="translate(684.664062 0)"/>
     <use xlink:href="#DejaVuSans-6c" transform="translate(748.140625 0)"/>
     <use xlink:href="#DejaVuSans-69" transform="translate(775.923828 0)"/>
     <use xlink:href="#DejaVuSans-63" transform="translate(803.707031 0)"/>
     <use xlink:href="#DejaVuSans-61" transform="translate(858.6875 0)"/>
     <use xlink:href="#DejaVuSans-73" transform="translate(919.966797 0)"/>
    </g>
    <!-- 3 sentinels -->
    <g style="fill: #111111" transform="translate(650.951836 281.255328) scale(0.095 -0.095)">
     <use xlink:href="#DejaVuSans-33"/>
     <use xlink:href="#DejaVuSans-20" transform="translate(63.623047 0)"/>
     <use xlink:href="#DejaVuSans-73" transform="translate(95.410156 0)"/>
     <use xlink:href="#DejaVuSans-65" transform="translate(147.509766 0)"/>
     <use xlink:href="#DejaVuSans-6e" transform="translate(209.033203 0)"/>
     <use xlink:href="#DejaVuSans-74" transform="translate(272.412109 0)"/>
     <use xlink:href="#DejaVuSans-69" transform="translate(311.621094 0)"/>
     <use xlink:href="#DejaVuSans-6e" transform="translate(339.404297 0)"/>
     <use xlink:href="#DejaVuSans-65" transform="translate(402.783203 0)"/>
     <use xlink:href="#DejaVuSans-6c" transform="translate(464.306641 0)"/>
     <use xlink:href="#DejaVuSans-73" transform="translate(492.089844 0)"/>
    </g>
   </g>
   <g id="text_8">
    <!-- Nginx -->
    <g style="fill: #111111" transform="translate(386.32157 403.670445) scale(0.095 -0.095)">
     <use xlink:href="#DejaVuSans-4e"/>
     <use xlink:href="#DejaVuSans-67" transform="translate(74.804688 0)"/>
     <use xlink:href="#DejaVuSans-69" transform="translate(138.28125 0)"/>
     <use xlink:href="#DejaVuSans-6e" transform="translate(166.064453 0)"/>
     <use xlink:href="#DejaVuSans-78" transform="translate(229.443359 0)"/>
    </g>
    <!-- Load Balancer -->
    <g style="fill: #111111" transform="translate(366.228328 414.308367) scale(0.095 -0.095)">
     <use xlink:href="#DejaVuSans-4c"/>
     <use xlink:href="#DejaVuSans-6f" transform="translate(53.962891 0)"/>
     <use xlink:href="#DejaVuSans-61" transform="translate(115.144531 0)"/>
     <use xlink:href="#DejaVuSans-64" transform="translate(176.423828 0)"/>
     <use xlink:href="#DejaVuSans-20" transform="translate(239.900391 0)"/>
     <use xlink:href="#DejaVuSans-42" transform="translate(271.6875 0)"/>
     <use xlink:href="#DejaVuSans-61" transform="translate(340.291016 0)"/>
     <use xlink:href="#DejaVuSans-6c" transform="translate(401.570312 0)"/>
     <use xlink:href="#DejaVuSans-61" transform="translate(429.353516 0)"/>
     <use xlink:href="#DejaVuSans-6e" transform="translate(490.632812 0)"/>
     <use xlink:href="#DejaVuSans-63" transform="translate(554.011719 0)"/>
     <use xlink:href="#DejaVuSans-65" transform="translate(608.992188 0)"/>
     <use xlink:href="#DejaVuSans-72" transform="translate(670.515625 0)"/>
    </g>
   </g>
   <g id="text_9">
    <!-- FastAPI-1 -->
    <g style="fill: #111111" transform="translate(186.283438 489.377406) scale(0.095 -0.095)">
     <defs>
      <path id="DejaVuSans-46" d="M 628 4666 
L 3309 4666 
L 3309 4134 
L 1259 4134 
L 1259 2759 
L 3109 2759 
L 3109 2228 
L 1259 2228 
L 1259 0 
L 628 0 
L 628 4666 
z
" transform="scale(0.015625)"/>
      <path id="DejaVuSans-41" d="M 2188 4044 
L 1331 1722 
L 3047 1722 
L 2188 4044 
z
M 1831 4666 
L 2547 4666 
L 4325 0 
L 3669 0 
L 3244 1197 
L 1141 1197 
L 716 0 
L 50 0 
L 1831 4666 
z
" transform="scale(0.015625)"/>
     </defs>
     <use xlink:href="#DejaVuSans-46"/>
     <use xlink:href="#DejaVuSans-61" transform="translate(48.394531 0)"/>
     <use xlink:href="#DejaVuSans-73" transform="translate(109.673828 0)"/>
     <use xlink:href="#DejaVuSans-74" transform="translate(161.773438 0)"/>
     <use xlink:href="#DejaVuSans-41" transform="translate(200.982422 0)"/>
     <use xlink:href="#DejaVuSans-50" transform="translate(269.390625 0)"/>
     <use xlink:href="#DejaVuSans-49" transform="translate(329.693359 0)"/>
     <use xlink:href="#DejaVuSans-2d" transform="translate(359.185547 0)"/>
     <use xlink:href="#DejaVuSans-31" transform="translate(395.269531 0)"/>
    </g>
   </g>
   <g id="text_10">
    <!-- FastAPI-2 -->
    <g style="fill: #111111" transform="translate(364.843437 489.377406) scale(0.095 -0.095)">
     <use xlink:href="#DejaVuSans-46"/>
     <use xlink:href="#DejaVuSans-61" transform="translate(48.394531 0)"/>
     <use xlink:href="#DejaVuSans-73" transform="translate(109.673828 0)"/>
     <use xlink:href="#DejaVuSans-74" transform="translate(161.773438 0)"/>
     <use xlink:href="#DejaVuSans-41" transform="translate(200.982422 0)"/>
     <use xlink:href="#DejaVuSans-50" transform="translate(269.390625 0)"/>
     <use xlink:href="#DejaVuSans-49" transform="translate(329.693359 0)"/>
     <use xlink:href="#DejaVuSans-2d" transform="translate(359.185547 0)"/>
     <use xlink:href="#DejaVuSans-32" transform="translate(395.269531 0)"/>
    </g>
   </g>
   <g id="text_11">
    <!-- FastAPI-3 -->
    <g style="fill: #111111" transform="translate(543.403437 489.377406) scale(0.095 -0.095)">
     <use xlink:href="#DejaVuSans-46"/>
     <use xlink:href="#DejaVuSans-61" transform="translate(48.394531 0)"/>
     <use xlink:href="#DejaVuSans-73" transform="translate(109.673828 0)"/>
     <use xlink:href="#DejaVuSans-74" transform="translate(161.773438 0)"/>
     <use xlink:href="#DejaVuSans-41" transform="translate(200.982422 0)"/>
     <use xlink:href="#DejaVuSans-50" transform="translate(269.390625 0)"/>
     <use xlink:href="#DejaVuSans-49" transform="translate(329.693359 0)"/>
     <use xlink:href="#DejaVuSans-2d" transform="translate(359.185547 0)"/>
     <use xlink:href="#DejaVuSans-33" transform="translate(395.269531 0)"/>
    </g>
   </g>
   <g id="text_12">
    <!-- Dashboard React -->
    <g style="fill: #111111" transform="translate(707.549156 398.126445) scale(0.095 -0.095)">
     <defs>
      <path id="DejaVuSans-68" d="M 3513 2113 
L 3513 0 
L 2938 0 
L 2938 2094 
Q 2938 2591 2744 2837 
Q 2550 3084 2163 3084 
Q 1697 3084 1428 2787 
Q 1159 2491 1159 1978 
L 1159 0 
L 581 0 
L 581 4863 
L 1159 4863 
L 1159 2956 
Q 1366 3272 1645 3428 
Q 1925 3584 2291 3584 
Q 2894 3584 3203 3211 
Q 3513 2838 3513 2113 
z
" transform="scale(0.015625)"/>
      <path id="DejaVuSans-62" d="M 3116 1747 
Q 3116 2381 2855 2742 
Q 2594 3103 2138 3103 
Q 1681 3103 1420 2742 
Q 1159 2381 1159 1747 
Q 1159 1113 1420 752 
Q 1681 391 2138 391 
Q 2594 391 2855 752 
Q 3116 1113 3116 1747 
z
M 1159 2969 
Q 1341 3281 1617 3432 
Q 1894 3584 2278 3584 
Q 2916 3584 3314 3078 
Q 3713 2572 3713 1747 
Q 3713 922 3314 415 
Q 2916 -91 2278 -91 
Q 1894 -91 1617 61 
Q 1341 213 1159 525 
L 1159 0 
L 581 0 
L 581 4863 
L 1159 4863 
L 1159 2969 
z
" transform="scale(0.015625)"/>
     </defs>
     <use xlink:href="#DejaVuSans-44"/>
     <use xlink:href="#DejaVuSans-61" transform="translate(77.001953 0)"/>
     <use xlink:href="#DejaVuSans-73" transform="translate(138.28125 0)"/>
     <use xlink:href="#DejaVuSans-68" transform="translate(190.380859 0)"/>
     <use xlink:href="#DejaVuSans-62" transform="translate(253.759766 0)"/>
     <use xlink:href="#DejaVuSans-6f" transform="translate(317.236328 0)"/>
     <use xlink:href="#DejaVuSans-61" transform="translate(378.417969 0)"/>
     <use xlink:href="#DejaVuSans-72" transform="translate(439.697266 0)"/>
     <use xlink:href="#DejaVuSans-64" transform="translate(479.060547 0)"/>
     <use xlink:href="#DejaVuSans-20" transform="translate(542.537109 0)"/>
     <use xlink:href="#DejaVuSans-52" transform="translate(574.324219 0)"/>
     <use xlink:href="#DejaVuSans-65" transform="translate(639.306641 0)"/>
     <use xlink:href="#DejaVuSans-61" transform="translate(700.830078 0)"/>
     <use xlink:href="#DejaVuSans-63" transform="translate(762.109375 0)"/>
     <use xlink:href="#DejaVuSans-74" transform="translate(817.089844 0)"/>
    </g>
    <!-- SPA 6 vues -->
    <g style="fill: #111111" transform="translate(722.137594 408.764367) scale(0.095 -0.095)">
     <defs>
      <path id="DejaVuSans-36" d="M 2113 2584 
Q 1688 2584 1439 2293 
Q 1191 2003 1191 1497 
Q 1191 994 1439 701 
Q 1688 409 2113 409 
Q 2538 409 2786 701 
Q 3034 994 3034 1497 
Q 3034 2003 2786 2293 
Q 2538 2584 2113 2584 
z
M 3366 4563 
L 3366 3988 
Q 3128 4100 2886 4159 
Q 2644 4219 2406 4219 
Q 1781 4219 1451 3797 
Q 1122 3375 1075 2522 
Q 1259 2794 1537 2939 
Q 1816 3084 2150 3084 
Q 2853 3084 3261 2657 
Q 3669 2231 3669 1497 
Q 3669 778 3244 343 
Q 2819 -91 2113 -91 
Q 1303 -91 875 529 
Q 447 1150 447 2328 
Q 447 3434 972 4092 
Q 1497 4750 2381 4750 
Q 2619 4750 2861 4703 
Q 3103 4656 3366 4563 
z
" transform="scale(0.015625)"/>
     </defs>
     <use xlink:href="#DejaVuSans-53"/>
     <use xlink:href="#DejaVuSans-50" transform="translate(63.476562 0)"/>
     <use xlink:href="#DejaVuSans-41" transform="translate(117.404297 0)"/>
     <use xlink:href="#DejaVuSans-20" transform="translate(185.8125 0)"/>
     <use xlink:href="#DejaVuSans-36" transform="translate(217.599609 0)"/>
     <use xlink:href="#DejaVuSans-20" transform="translate(281.222656 0)"/>
     <use xlink:href="#DejaVuSans-76" transform="translate(313.009766 0)"/>
     <use xlink:href="#DejaVuSans-75" transform="translate(372.189453 0)"/>
     <use xlink:href="#DejaVuSans-65" transform="translate(435.568359 0)"/>
     <use xlink:href="#DejaVuSans-73" transform="translate(497.091797 0)"/>
    </g>
   </g>
   <g id="text_13">
    <!-- Grafana -->
    <g style="fill: #111111" transform="translate(715.783758 137.333406) scale(0.095 -0.095)">
     <use xlink:href="#DejaVuSans-47"/>
     <use xlink:href="#DejaVuSans-72" transform="translate(77.490234 0)"/>
     <use xlink:href="#DejaVuSans-61" transform="translate(118.603516 0)"/>
     <use xlink:href="#DejaVuSans-66" transform="translate(179.882812 0)"/>
     <use xlink:href="#DejaVuSans-61" transform="translate(215.087891 0)"/>
     <use xlink:href="#DejaVuSans-6e" transform="translate(276.367188 0)"/>
     <use xlink:href="#DejaVuSans-61" transform="translate(339.746094 0)"/>
    </g>
   </g>
   <g id="text_14">
    <!-- Prometheus -->
    <g style="fill: #111111" transform="translate(809.141305 137.333406) scale(0.095 -0.095)">
     <use xlink:href="#DejaVuSans-50"/>
     <use xlink:href="#DejaVuSans-72" transform="translate(58.552734 0)"/>
     <use xlink:href="#DejaVuSans-6f" transform="translate(97.416016 0)"/>
     <use xlink:href="#DejaVuSans-6d" transform="translate(158.597656 0)"/>
     <use xlink:href="#DejaVuSans-65" transform="translate(256.009766 0)"/>
     <use xlink:href="#DejaVuSans-74" transform="translate(317.533203 0)"/>
     <use xlink:href="#DejaVuSans-68" transform="translate(356.742188 0)"/>
     <use xlink:href="#DejaVuSans-65" transform="translate(420.121094 0)"/>
     <use xlink:href="#DejaVuSans-75" transform="translate(481.644531 0)"/>
     <use xlink:href="#DejaVuSans-73" transform="translate(545.023438 0)"/>
    </g>
   </g>
   <g id="text_15">
    <!-- Kibana / ELK -->
    <g style="fill: #111111" transform="translate(767.663508 198.317406) scale(0.095 -0.095)">
     <defs>
      <path id="DejaVuSans-4b" d="M 628 4666 
L 1259 4666 
L 1259 2694 
L 3353 4666 
L 4166 4666 
L 1850 2491 
L 4331 0 
L 3500 0 
L 1259 2247 
L 1259 0 
L 628 0 
L 628 4666 
z
" transform="scale(0.015625)"/>
     </defs>
     <use xlink:href="#DejaVuSans-4b"/>
     <use xlink:href="#DejaVuSans-69" transform="translate(65.576172 0)"/>
     <use xlink:href="#DejaVuSans-62" transform="translate(93.359375 0)"/>
     <use xlink:href="#DejaVuSans-61" transform="translate(156.835938 0)"/>
     <use xlink:href="#DejaVuSans-6e" transform="translate(218.115234 0)"/>
     <use xlink:href="#DejaVuSans-61" transform="translate(281.494141 0)"/>
     <use xlink:href="#DejaVuSans-20" transform="translate(342.773438 0)"/>
     <use xlink:href="#DejaVuSans-2f" transform="translate(374.560547 0)"/>
     <use xlink:href="#DejaVuSans-20" transform="translate(408.251953 0)"/>
     <use xlink:href="#DejaVuSans-45" transform="translate(440.039062 0)"/>
     <use xlink:href="#DejaVuSans-4c" transform="translate(503.222656 0)"/>
     <use xlink:href="#DejaVuSans-4b" transform="translate(558.935547 0)"/>
    </g>
   </g>
   <g id="patch_16">
    <path d="M 179.83016 134.712 
Q 203.616566 134.712 225.949527 134.712 
" style="fill: none; stroke: #555555; stroke-width: 1.3; stroke-linecap: round"/>
    <path d="M 221.949527 132.712 
L 225.949527 134.712 
L 221.949527 136.712 
" style="fill: none; stroke: #555555; stroke-width: 1.3; stroke-linecap: round"/>
   </g>
   <g id="text_16">
    <g id="patch_17">
     <path d="M 192.333375 130.888125 
L 214.898625 130.888125 
L 214.898625 121.903875 
L 192.333375 121.903875 
z
" style="fill: #ffffff"/>
    </g>
    <!-- MQTT -->
    <g transform="translate(193.341375 128.38275) scale(0.072 -0.072)">
     <use xlink:href="#DejaVuSans-4d"/>
     <use xlink:href="#DejaVuSans-51" transform="translate(86.279297 0)"/>
     <use xlink:href="#DejaVuSans-54" transform="translate(164.990234 0)"/>
     <use xlink:href="#DejaVuSans-54" transform="translate(224.324219 0)"/>
    </g>
   </g>
   <g id="patch_18">
    <path d="M 376.249975 134.712 
Q 404.495475 134.712 431.287531 134.712 
" style="fill: none; stroke: #555555; stroke-width: 1.3; stroke-linecap: round"/>
    <path d="M 427.287531 132.712 
L 431.287531 134.712 
L 427.287531 136.712 
" style="fill: none; stroke: #555555; stroke-width: 1.3; stroke-linecap: round"/>
   </g>
   <g id="text_17">
    <g id="patch_19">
     <path d="M 386.21025 130.888125 
L 422.78175 130.888125 
L 422.78175 121.903875 
L 386.21025 121.903875 
z
" style="fill: #ffffff"/>
    </g>
    <!-- subscribe -->
    <g transform="translate(387.21825 128.38275) scale(0.072 -0.072)">
     <use xlink:href="#DejaVuSans-73"/>
     <use xlink:href="#DejaVuSans-75" transform="translate(52.099609 0)"/>
     <use xlink:href="#DejaVuSans-62" transform="translate(115.478516 0)"/>
     <use xlink:href="#DejaVuSans-73" transform="translate(178.955078 0)"/>
     <use xlink:href="#DejaVuSans-63" transform="translate(231.054688 0)"/>
     <use xlink:href="#DejaVuSans-72" transform="translate(286.035156 0)"/>
     <use xlink:href="#DejaVuSans-69" transform="translate(327.148438 0)"/>
     <use xlink:href="#DejaVuSans-62" transform="translate(354.931641 0)"/>
     <use xlink:href="#DejaVuSans-65" transform="translate(418.408203 0)"/>
    </g>
   </g>
   <g id="patch_20">
    <path d="M 504.337812 163.416175 
Q 395.570232 201.239224 288.175461 238.584889 
" style="fill: none; stroke: #555555; stroke-width: 1.3; stroke-linecap: round"/>
    <path d="M 292.610446 239.160133 
L 288.175461 238.584889 
L 291.296648 235.382048 
" style="fill: none; stroke: #555555; stroke-width: 1.3; stroke-linecap: round"/>
   </g>
   <g id="text_18">
    <g id="patch_21">
     <path d="M 385.509375 197.416125 
L 405.626625 197.416125 
L 405.626625 188.431875 
L 385.509375 188.431875 
z
" style="fill: #ffffff"/>
    </g>
    <!-- write -->
    <g transform="translate(386.517375 194.91075) scale(0.072 -0.072)">
     <use xlink:href="#DejaVuSans-77"/>
     <use xlink:href="#DejaVuSans-72" transform="translate(81.787109 0)"/>
     <use xlink:href="#DejaVuSans-69" transform="translate(122.900391 0)"/>
     <use xlink:href="#DejaVuSans-74" transform="translate(150.683594 0)"/>
     <use xlink:href="#DejaVuSans-65" transform="translate(189.892578 0)"/>
    </g>
   </g>
   <g id="patch_22">
    <path d="M 523.318939 164.902504 
Q 498.239771 201.240332 473.986185 236.381953 
" style="fill: none; stroke: #555555; stroke-width: 1.3; stroke-linecap: round"/>
    <path d="M 477.90429 234.225926 
L 473.986185 236.381953 
L 474.612226 231.953853 
" style="fill: none; stroke: #555555; stroke-width: 1.3; stroke-linecap: round"/>
   </g>
   <g id="text_19">
    <g id="patch_23">
     <path d="M 479.783813 197.416125 
L 516.696187 197.416125 
L 516.696187 188.431875 
L 479.783813 188.431875 
z
" style="fill: #ffffff"/>
    </g>
    <!-- metadata -->
    <g transform="translate(480.791812 194.91075) scale(0.072 -0.072)">
     <use xlink:href="#DejaVuSans-6d"/>
     <use xlink:href="#DejaVuSans-65" transform="translate(97.412109 0)"/>
     <use xlink:href="#DejaVuSans-74" transform="translate(158.935547 0)"/>
     <use xlink:href="#DejaVuSans-61" transform="translate(198.144531 0)"/>
     <use xlink:href="#DejaVuSans-64" transform="translate(259.423828 0)"/>
     <use xlink:href="#DejaVuSans-61" transform="translate(322.900391 0)"/>
     <use xlink:href="#DejaVuSans-74" transform="translate(384.179688 0)"/>
     <use xlink:href="#DejaVuSans-61" transform="translate(423.388672 0)"/>
    </g>
   </g>
   <g id="patch_24">
    <path d="M 554.405643 163.929834 
Q 614.304846 198.468488 672.944929 232.281116 
" style="fill: none; stroke: #555555; stroke-width: 1.3; stroke-linecap: round"/>
    <path d="M 670.478763 228.550429 
L 672.944929 232.281116 
L 668.48068 232.015637 
" style="fill: none; stroke: #555555; stroke-width: 1.3; stroke-linecap: round"/>
   </g>
   <g id="text_20">
    <g id="patch_25">
     <path d="M 585.838687 194.644125 
L 642.769312 194.644125 
L 642.769312 185.659875 
L 585.838687 185.659875 
z
" style="fill: #ffffff"/>
    </g>
    <!-- cache / pubsub -->
    <g transform="translate(586.846687 192.13875) scale(0.072 -0.072)">
     <use xlink:href="#DejaVuSans-63"/>
     <use xlink:href="#DejaVuSans-61" transform="translate(54.980469 0)"/>
     <use xlink:href="#DejaVuSans-63" transform="translate(116.259766 0)"/>
     <use xlink:href="#DejaVuSans-68" transform="translate(171.240234 0)"/>
     <use xlink:href="#DejaVuSans-65" transform="translate(234.619141 0)"/>
     <use xlink:href="#DejaVuSans-20" transform="translate(296.142578 0)"/>
     <use xlink:href="#DejaVuSans-2f" transform="translate(327.929688 0)"/>
     <use xlink:href="#DejaVuSans-20" transform="translate(361.621094 0)"/>
     <use xlink:href="#DejaVuSans-70" transform="translate(393.408203 0)"/>
     <use xlink:href="#DejaVuSans-75" transform="translate(456.884766 0)"/>
     <use xlink:href="#DejaVuSans-62" transform="translate(520.263672 0)"/>
     <use xlink:href="#DejaVuSans-73" transform="translate(583.740234 0)"/>
     <use xlink:href="#DejaVuSans-75" transform="translate(635.839844 0)"/>
     <use xlink:href="#DejaVuSans-62" transform="translate(699.21875 0)"/>
    </g>
   </g>
   <g id="patch_26">
    <path d="M 664.870979 400.91274 
Q 574.126503 403.596044 484.834835 406.236389 
" style="fill: none; stroke: #555555; stroke-width: 1.3; stroke-linecap: round"/>
    <path d="M 488.892202 408.117288 
L 484.834835 406.236389 
L 488.773974 404.119035 
" style="fill: none; stroke: #555555; stroke-width: 1.3; stroke-linecap: round"/>
   </g>
   <g id="text_21">
    <g id="patch_27">
     <path d="M 554.513625 399.772125 
L 593.742375 399.772125 
L 593.742375 390.787875 
L 554.513625 390.787875 
z
" style="fill: #ffffff"/>
    </g>
    <!-- REST / WS -->
    <g transform="translate(555.521625 397.26675) scale(0.072 -0.072)">
     <use xlink:href="#DejaVuSans-52"/>
     <use xlink:href="#DejaVuSans-45" transform="translate(69.482422 0)"/>
     <use xlink:href="#DejaVuSans-53" transform="translate(132.666016 0)"/>
     <use xlink:href="#DejaVuSans-54" transform="translate(196.142578 0)"/>
     <use xlink:href="#DejaVuSans-20" transform="translate(257.226562 0)"/>
     <use xlink:href="#DejaVuSans-2f" transform="translate(289.013672 0)"/>
     <use xlink:href="#DejaVuSans-20" transform="translate(322.705078 0)"/>
     <use xlink:href="#DejaVuSans-57" transform="translate(354.492188 0)"/>
     <use xlink:href="#DejaVuSans-53" transform="translate(453.369141 0)"/>
    </g>
   </g>
   <g id="patch_28">
    <path d="M 397.094258 429.13794 
Q 304.056593 447.94788 212.443547 466.469797 
" style="fill: none; stroke: #555555; stroke-width: 1.3; stroke-linecap: round"/>
    <path d="M 216.760553 467.63747 
L 212.443547 466.469797 
L 215.967889 463.716796 
" style="fill: none; stroke: #555555; stroke-width: 1.3; stroke-linecap: round"/>
   </g>
   <g id="text_22">
    <g id="patch_29">
     <path d="M 282.130313 444.124125 
L 325.981688 444.124125 
L 325.981688 435.139875 
L 282.130313 435.139875 
z
" style="fill: #ffffff"/>
    </g>
    <!-- round-robin -->
    <g transform="translate(283.138313 441.61875) scale(0.072 -0.072)">
     <use xlink:href="#DejaVuSans-72"/>
     <use xlink:href="#DejaVuSans-6f" transform="translate(38.863281 0)"/>
     <use xlink:href="#DejaVuSans-75" transform="translate(100.044922 0)"/>
     <use xlink:href="#DejaVuSans-6e" transform="translate(163.423828 0)"/>
     <use xlink:href="#DejaVuSans-64" transform="translate(226.802734 0)"/>
     <use xlink:href="#DejaVuSans-2d" transform="translate(290.279297 0)"/>
     <use xlink:href="#DejaVuSans-72" transform="translate(326.363281 0)"/>
     <use xlink:href="#DejaVuSans-6f" transform="translate(365.226562 0)"/>
     <use xlink:href="#DejaVuSans-62" transform="translate(426.408203 0)"/>
     <use xlink:href="#DejaVuSans-69" transform="translate(489.884766 0)"/>
     <use xlink:href="#DejaVuSans-6e" transform="translate(517.667969 0)"/>
    </g>
   </g>
   <g id="patch_30">
    <path d="M 399.053593 431.379277 
Q 393.335491 447.949476 388.091512 463.145737 
" style="fill: none; stroke: #555555; stroke-width: 1.3; stroke-linecap: round"/>
    <path d="M 391.286936 460.016957 
L 388.091512 463.145737 
L 387.505743 458.712129 
" style="fill: none; stroke: #555555; stroke-width: 1.3; stroke-linecap: round"/>
   </g>
   <g id="text_23">
    <g id="patch_31">
     <path d="M 371.410313 444.124125 
L 415.261687 444.124125 
L 415.261687 435.139875 
L 371.410313 435.139875 
z
" style="fill: #ffffff"/>
    </g>
    <!-- round-robin -->
    <g transform="translate(372.418313 441.61875) scale(0.072 -0.072)">
     <use xlink:href="#DejaVuSans-72"/>
     <use xlink:href="#DejaVuSans-6f" transform="translate(38.863281 0)"/>
     <use xlink:href="#DejaVuSans-75" transform="translate(100.044922 0)"/>
     <use xlink:href="#DejaVuSans-6e" transform="translate(163.423828 0)"/>
     <use xlink:href="#DejaVuSans-64" transform="translate(226.802734 0)"/>
     <use xlink:href="#DejaVuSans-2d" transform="translate(290.279297 0)"/>
     <use xlink:href="#DejaVuSans-72" transform="translate(326.363281 0)"/>
     <use xlink:href="#DejaVuSans-6f" transform="translate(365.226562 0)"/>
     <use xlink:href="#DejaVuSans-62" transform="translate(426.408203 0)"/>
     <use xlink:href="#DejaVuSans-69" transform="translate(489.884766 0)"/>
     <use xlink:href="#DejaVuSans-6e" transform="translate(517.667969 0)"/>
    </g>
   </g>
   <g id="patch_32">
    <path d="M 402.952986 429.230317 
Q 482.617072 447.948252 560.866245 466.333738 
" style="fill: none; stroke: #555555; stroke-width: 1.3; stroke-linecap: round"/>
    <path d="M 557.429751 463.471831 
L 560.866245 466.333738 
L 556.514824 467.365789 
" style="fill: none; stroke: #555555; stroke-width: 1.3; stroke-linecap: round"/>
   </g>
   <g id="text_24">
    <g id="patch_33">
     <path d="M 460.690313 444.124125 
L 504.541687 444.124125 
L 504.541687 435.139875 
L 460.690313 435.139875 
z
" style="fill: #ffffff"/>
    </g>
    <!-- round-robin -->
    <g transform="translate(461.698312 441.61875) scale(0.072 -0.072)">
     <use xlink:href="#DejaVuSans-72"/>
     <use xlink:href="#DejaVuSans-6f" transform="translate(38.863281 0)"/>
     <use xlink:href="#DejaVuSans-75" transform="translate(100.044922 0)"/>
     <use xlink:href="#DejaVuSans-6e" transform="translate(163.423828 0)"/>
     <use xlink:href="#DejaVuSans-64" transform="translate(226.802734 0)"/>
     <use xlink:href="#DejaVuSans-2d" transform="translate(290.279297 0)"/>
     <use xlink:href="#DejaVuSans-72" transform="translate(326.363281 0)"/>
     <use xlink:href="#DejaVuSans-6f" transform="translate(365.226562 0)"/>
     <use xlink:href="#DejaVuSans-62" transform="translate(426.408203 0)"/>
     <use xlink:href="#DejaVuSans-69" transform="translate(489.884766 0)"/>
     <use xlink:href="#DejaVuSans-6e" transform="translate(517.667969 0)"/>
    </g>
   </g>
   <g id="patch_34">
    <path d="M 210.853823 466.216316 
Q 411.192236 384.191903 610.185578 302.718203 
" style="fill: none; stroke: #555555; stroke-width: 1.3; stroke-linecap: round"/>
    <path d="M 605.726027 302.382932 
L 610.185578 302.718203 
L 607.241632 306.084681 
" style="fill: none; stroke: #555555; stroke-width: 1.3; stroke-linecap: round"/>
   </g>
   <g id="text_25">
    <g id="patch_35">
     <path d="M 399.522375 380.368125 
L 422.861625 380.368125 
L 422.861625 371.383875 
L 399.522375 371.383875 
z
" style="fill: #ffffff"/>
    </g>
    <!-- cache -->
    <g transform="translate(400.530375 377.86275) scale(0.072 -0.072)">
     <use xlink:href="#DejaVuSans-63"/>
     <use xlink:href="#DejaVuSans-61" transform="translate(54.980469 0)"/>
     <use xlink:href="#DejaVuSans-63" transform="translate(116.259766 0)"/>
     <use xlink:href="#DejaVuSans-68" transform="translate(171.240234 0)"/>
     <use xlink:href="#DejaVuSans-65" transform="translate(234.619141 0)"/>
    </g>
   </g>
   <g id="patch_36">
    <path d="M 385.099983 464.774145 
Q 335.303252 381.418749 286.251929 299.311098 
" style="fill: none; stroke: #555555; stroke-width: 1.3; stroke-linecap: round"/>
    <path d="M 286.586399 303.770709 
L 286.251929 299.311098 
L 290.0203 301.719288 
" style="fill: none; stroke: #555555; stroke-width: 1.3; stroke-linecap: round"/>
   </g>
   <g id="text_26">
    <g id="patch_37">
     <path d="M 326.190375 377.596125 
L 344.417625 377.596125 
L 344.417625 368.611875 
L 326.190375 368.611875 
z
" style="fill: #ffffff"/>
    </g>
    <!-- read -->
    <g transform="translate(327.198375 375.09075) scale(0.072 -0.072)">
     <use xlink:href="#DejaVuSans-72"/>
     <use xlink:href="#DejaVuSans-65" transform="translate(38.863281 0)"/>
     <use xlink:href="#DejaVuSans-61" transform="translate(100.386719 0)"/>
     <use xlink:href="#DejaVuSans-64" transform="translate(161.666016 0)"/>
    </g>
   </g>
   <g id="patch_38">
    <path d="M 563.762428 464.716451 
Q 518.326837 381.417867 473.58723 299.395256 
" style="fill: none; stroke: #555555; stroke-width: 1.3; stroke-linecap: round"/>
    <path d="M 473.746848 303.864542 
L 473.58723 299.395256 
L 477.25843 301.949134 
" style="fill: none; stroke: #555555; stroke-width: 1.3; stroke-linecap: round"/>
   </g>
   <g id="text_27">
    <g id="patch_39">
     <path d="M 509.214375 377.596125 
L 527.441625 377.596125 
L 527.441625 368.611875 
L 509.214375 368.611875 
z
" style="fill: #ffffff"/>
    </g>
    <!-- read -->
    <g transform="translate(510.222375 375.09075) scale(0.072 -0.072)">
     <use xlink:href="#DejaVuSans-72"/>
     <use xlink:href="#DejaVuSans-65" transform="translate(38.863281 0)"/>
     <use xlink:href="#DejaVuSans-61" transform="translate(100.386719 0)"/>
     <use xlink:href="#DejaVuSans-64" transform="translate(161.666016 0)"/>
    </g>
   </g>
   <g id="patch_40">
    <path d="M 834.503933 156.888 
Q 788.400665 156.888 743.750842 156.888 
" style="fill: none; stroke: #555555; stroke-width: 1.3; stroke-linecap: round"/>
    <path d="M 747.750842 158.888 
L 743.750842 156.888 
L 747.750842 154.888 
" style="fill: none; stroke: #555555; stroke-width: 1.3; stroke-linecap: round"/>
   </g>
   <g id="text_28">
    <g id="patch_41">
     <path d="M 767.329875 153.064125 
L 809.470125 153.064125 
L 809.470125 144.079875 
L 767.329875 144.079875 
z
" style="fill: #ffffff"/>
    </g>
    <!-- datasource -->
    <g transform="translate(768.337875 150.55875) scale(0.072 -0.072)">
     <use xlink:href="#DejaVuSans-64"/>
     <use xlink:href="#DejaVuSans-61" transform="translate(63.476562 0)"/>
     <use xlink:href="#DejaVuSans-74" transform="translate(124.755859 0)"/>
     <use xlink:href="#DejaVuSans-61" transform="translate(163.964844 0)"/>
     <use xlink:href="#DejaVuSans-73" transform="translate(225.244141 0)"/>
     <use xlink:href="#DejaVuSans-6f" transform="translate(277.34375 0)"/>
     <use xlink:href="#DejaVuSans-75" transform="translate(338.525391 0)"/>
     <use xlink:href="#DejaVuSans-72" transform="translate(401.904297 0)"/>
     <use xlink:href="#DejaVuSans-63" transform="translate(440.767578 0)"/>
     <use xlink:href="#DejaVuSans-65" transform="translate(495.748047 0)"/>
    </g>
   </g>
   <g id="patch_42">
    <path d="M 730.615122 159.880369 
Q 739.296098 264.997186 747.85745 368.665489 
" style="fill: none; stroke: #555555; stroke-width: 1.3; stroke-linecap: round"/>
    <path d="M 749.521449 364.514452 
L 747.85745 368.665489 
L 745.535019 364.843668 
" style="fill: none; stroke: #555555; stroke-width: 1.3; stroke-linecap: round"/>
   </g>
   <g id="text_29">
    <g id="patch_43">
     <path d="M 726.61275 261.172125 
L 751.97925 261.172125 
L 751.97925 252.187875 
L 726.61275 252.187875 
z
" style="fill: #ffffff"/>
    </g>
    <!-- iframe -->
    <g transform="translate(727.62075 258.66675) scale(0.072 -0.072)">
     <use xlink:href="#DejaVuSans-69"/>
     <use xlink:href="#DejaVuSans-66" transform="translate(27.783203 0)"/>
     <use xlink:href="#DejaVuSans-72" transform="translate(62.988281 0)"/>
     <use xlink:href="#DejaVuSans-61" transform="translate(104.101562 0)"/>
     <use xlink:href="#DejaVuSans-6d" transform="translate(165.380859 0)"/>
     <use xlink:href="#DejaVuSans-65" transform="translate(262.792969 0)"/>
    </g>
   </g>
   <g id="patch_44">
    <path d="M 800.962356 220.757019 
Q 779.472312 295.486914 758.383955 368.819974 
" style="fill: none; stroke: #555555; stroke-width: 1.3; stroke-linecap: round"/>
    <path d="M 761.411535 365.528506 
L 758.383955 368.819974 
L 757.567329 364.42303 
" style="fill: none; stroke: #555555; stroke-width: 1.3; stroke-linecap: round"/>
   </g>
   <g id="text_30">
    <g id="patch_45">
     <path d="M 771.100312 291.664125 
L 787.843687 291.664125 
L 787.843687 282.679875 
L 771.100312 282.679875 
z
" style="fill: #ffffff"/>
    </g>
    <!-- logs -->
    <g transform="translate(772.108313 289.15875) scale(0.072 -0.072)">
     <use xlink:href="#DejaVuSans-6c"/>
     <use xlink:href="#DejaVuSans-6f" transform="translate(27.783203 0)"/>
     <use xlink:href="#DejaVuSans-67" transform="translate(88.964844 0)"/>
     <use xlink:href="#DejaVuSans-73" transform="translate(152.441406 0)"/>
    </g>
   </g>
  </g>
 </g>
 <defs>
  <clipPath id="p95fc202eba">
   <rect x="7.2" y="7.2" width="892.8" height="554.4"/>
  </clipPath>
 </defs>
</svg>
