<?xml version="1.0" encoding="utf-8" standalone="no"?>
<!DOCTYPE svg PUBLIC "-//W3C//DTD SVG 1.1//EN"
  "http://www.w3.org/Graphics/SVG/1.1/DTD/svg11.dtd">
<svg xmlns:xlink="http://www.w3.org/1999/xlink" width="907.2pt" height="457.92pt" viewBox="0 0 907.2 457.92" xmlns="http://www.w3.org/2000/svg" version="1.1">
 <metadata>
  <rdf:RDF xmlns:dc="http://purl.org/dc/elements/1.1/" xmlns:cc="http://creativecommons.org/ns#" xmlns:rdf="http://www.w3.org/1999/02/22-rdf-syntax-ns#">
   <cc:Work>
    <dc:type rdf:resource="http://purl.org/dc/dcmitype/StillImage"/>
    <dc:date>2026-06-29T15:30:49.788176</dc:date>
    <dc:format>image/svg+xml</dc:format>
    <dc:creator>
     <cc:Agent>
      <dc:title>Matplotlib v3.10.8, https://matplotlib.org/</dc:title>
     </cc:Agent>
    </dc:creator>
   </cc:Work>
  </rdf:RDF>
 </metadata>
 <defs>
  <style type="text/css">*{stroke-linejoin: round; stroke-linecap: butt}</style>
 </defs>
 <g id="figure_1">
  <g id="patch_1">
   <path d="M 0 457.92 
L 907.2 457.92 
L 907.2 0 
L 0 0 
z
" style="fill: #ffffff"/>
  </g>
  <g id="axes_1">
   <g id="patch_2">
    <path d="M 63.4464 83.48544 
L 93.8016 83.48544 
Q 129.5136 83.48544 129.5136 65.74464 
L 129.5136 66.18816 
Q 129.5136 48.44736 93.8016 48.44736 
L 63.4464 48.44736 
Q 27.7344 48.44736 27.7344 66.18816 
L 27.7344 65.74464 
Q 27.7344 83.48544 63.4464 83.48544 
z
" clip-path="url(#pb136f409b6)" style="fill: #ffffff; stroke: #1f6f43; stroke-width: 1.8; stroke-linejoin: miter"/>
   </g>
   <g id="patch_3">
    <path d="M 179.5104 83.48544 
L 209.8656 83.48544 
Q 245.5776 83.48544 245.5776 65.74464 
L 245.5776 66.18816 
Q 245.5776 48.44736 209.8656 48.44736 
L 179.5104 48.44736 
Q 143.7984 48.44736 143.7984 66.18816 
L 143.7984 65.74464 
Q 143.7984 83.48544 179.5104 83.48544 
z
" clip-path="url(#pb136f409b6)" style="fill: #ffffff; stroke: #1f6f43; stroke-width: 1.8; stroke-linejoin: miter"/>
   </g>
   <g id="patch_4">
    <path d="M 295.5744 83.48544 
L 325.9296 83.48544 
Q 361.6416 83.48544 361.6416 65.74464 
L 361.6416 66.18816 
Q 361.6416 48.44736 325.9296 48.44736 
L 295.5744 48.44736 
Q 259.8624 48.44736 259.8624 66.18816 
L 259.8624 65.74464 
Q 259.8624 83.48544 295.5744 83.48544 
z
" clip-path="url(#pb136f409b6)" style="fill: #ffffff; stroke: #1f6f43; stroke-width: 1.8; stroke-linejoin: miter"/>
   </g>
   <g id="patch_5">
    <path d="M 420.5664 83.48544 
L 450.9216 83.48544 
Q 486.6336 83.48544 486.6336 65.74464 
L 486.6336 66.18816 
Q 486.6336 48.44736 450.9216 48.44736 
L 420.5664 48.44736 
Q 384.8544 48.44736 384.8544 66.18816 
L 384.8544 65.74464 
Q 384.8544 83.48544 420.5664 83.48544 
z
" clip-path="url(#pb136f409b6)" style="fill: #ffffff; stroke: #1f6f43; stroke-width: 1.8; stroke-linejoin: miter"/>
   </g>
   <g id="patch_6">
    <path d="M 527.7024 83.48544 
L 558.0576 83.48544 
Q 593.7696 83.48544 593.7696 65.74464 
L 593.7696 66.18816 
Q 593.7696 48.44736 558.0576 48.44736 
L 527.7024 48.44736 
Q 491.9904 48.44736 491.9904 66.18816 
L 491.9904 65.74464 
Q 491.9904 83.48544 527.7024 83.48544 
z
" clip-path="url(#pb136f409b6)" style="fill: #ffffff; stroke: #1f6f43; stroke-width: 1.8; stroke-linejoin: miter"/>
   </g>
   <g id="patch_7">
    <path d="M 634.8384 83.48544 
L 665.1936 83.48544 
Q 700.9056 83.48544 700.9056 65.74464 
L 700.9056 66.18816 
Q 700.9056 48.44736 665.1936 48.44736 
L 634.8384 48.44736 
Q 599.1264 48.44736 599.1264 66.18816 
L 599.1264 65.74464 
Q 599.1264 83.48544 634.8384 83.48544 
z
" clip-path="url(#pb136f409b6)" style="fill: #ffffff; stroke: #1f6f43; stroke-width: 1.8; stroke-linejoin: miter"/>
   </g>
   <g id="patch_8">
    <path d="M 741.9744 83.48544 
L 772.3296 83.48544 
Q 808.0416 83.48544 808.0416 65.74464 
L 808.0416 66.18816 
Q 808.0416 48.44736 772.3296 48.44736 
L 741.9744 48.44736 
Q 706.2624 48.44736 706.2624 66.18816 
L 706.2624 65.74464 
Q 706.2624 83.48544 741.9744 83.48544 
z
" clip-path="url(#pb136f409b6)" style="fill: #ffffff; stroke: #1f6f43; stroke-width: 1.8; stroke-linejoin: miter"/>
   </g>
   <g id="patch_9">
    <path d="M 831.2544 83.48544 
L 861.6096 83.48544 
Q 897.3216 83.48544 897.3216 65.74464 
L 897.3216 66.18816 
Q 897.3216 48.44736 861.6096 48.44736 
L 831.2544 48.44736 
Q 795.5424 48.44736 795.5424 66.18816 
L 795.5424 65.74464 
Q 795.5424 83.48544 831.2544 83.48544 
z
" clip-path="url(#pb136f409b6)" style="fill: #ffffff; stroke: #1f6f43; stroke-width: 1.8; stroke-linejoin: miter"/>
   </g>
   <g id="patch_10">
    <path d="M 371.4624 420.56064 
L 571.4496 420.56064 
Q 607.1616 420.56064 607.1616 402.81984 
L 607.1616 401.04576 
Q 607.1616 383.30496 571.4496 383.30496 
L 371.4624 383.30496 
Q 335.7504 383.30496 335.7504 401.04576 
L 335.7504 402.81984 
Q 335.7504 420.56064 371.4624 420.56064 
z
" clip-path="url(#pb136f409b6)" style="fill: #eaf7ef; stroke: #1f6f43; stroke-width: 1.8; stroke-linejoin: miter"/>
   </g>
   <g id="line2d_1">
    <path d="M 78.624 397.4976 
L 78.624 78.1632 
" clip-path="url(#pb136f409b6)" style="fill: none; stroke-dasharray: 3.7,1.6; stroke-dashoffset: 0; stroke: #999999"/>
   </g>
   <g id="line2d_2">
    <path d="M 194.688 397.4976 
L 194.688 78.1632 
" clip-path="url(#pb136f409b6)" style="fill: none; stroke-dasharray: 3.7,1.6; stroke-dashoffset: 0; stroke: #999999"/>
   </g>
   <g id="line2d_3">
    <path d="M 310.752 397.4976 
L 310.752 78.1632 
" clip-path="url(#pb136f409b6)" style="fill: none; stroke-dasharray: 3.7,1.6; stroke-dashoffset: 0; stroke: #999999"/>
   </g>
   <g id="line2d_4">
    <path d="M 435.744 397.4976 
L 435.744 78.1632 
" clip-path="url(#pb136f409b6)" style="fill: none; stroke-dasharray: 3.7,1.6; stroke-dashoffset: 0; stroke: #999999"/>
   </g>
   <g id="line2d_5">
    <path d="M 542.88 397.4976 
L 542.88 78.1632 
" clip-path="url(#pb136f409b6)" style="fill: none; stroke-dasharray: 3.7,1.6; stroke-dashoffset: 0; stroke: #999999"/>
   </g>
   <g id="line2d_6">
    <path d="M 650.016 397.4976 
L 650.016 78.1632 
" clip-path="url(#pb136f409b6)" style="fill: none; stroke-dasharray: 3.7,1.6; stroke-dashoffset: 0; stroke: #999999"/>
   </g>
   <g id="line2d_7">
    <path d="M 757.152 397.4976 
L 757.152 78.1632 
" clip-path="url(#pb136f409b6)" style="fill: none; stroke-dasharray: 3.7,1.6; stroke-dashoffset: 0; stroke: #999999"/>
   </g>
   <g id="line2d_8">
    <path d="M 846.432 397.4976 
L 846.432 78.1632 
" clip-path="url(#pb136f409b6)" style="fill: none; stroke-dasharray: 3.7,1.6; stroke-dashoffset: 0; stroke: #999999"/>
   </g>
   <g id="text_1">
    <!-- Diagramme de séquence — Publication mesure et détection fraude -->
    <g style="fill: #112233" transform="translate(132.337188 36.320544) scale(0.17 -0.17)">
     <defs>
      <path id="DejaVuSans-Bold-44" d="M 1791 3756 
L 1791 909 
L 2222 909 
Q 2959 909 3348 1275 
Q 3738 1641 3738 2338 
Q 3738 3031 3350 3393 
Q 2963 3756 2222 3756 
L 1791 3756 
z
M 588 4666 
L 1856 4666 
Q 2919 4666 3439 4514 
Q 3959 4363 4331 4000 
Q 4659 3684 4818 3271 
Q 4978 2859 4978 2338 
Q 4978 1809 4818 1395 
Q 4659 981 4331 666 
Q 3956 303 3431 151 
Q 2906 0 1856 0 
L 588 0 
L 588 4666 
z
" transform="scale(0.015625)"/>
      <path id="DejaVuSans-Bold-69" d="M 538 3500 
L 1656 3500 
L 1656 0 
L 538 0 
L 538 3500 
z
M 538 4863 
L 1656 4863 
L 1656 3950 
L 538 3950 
L 538 4863 
z
" transform="scale(0.015625)"/>
      <path id="DejaVuSans-Bold-61" d="M 2106 1575 
Q 1756 1575 1579 1456 
Q 1403 1338 1403 1106 
Q 1403 894 1545 773 
Q 1688 653 1941 653 
Q 2256 653 2472 879 
Q 2688 1106 2688 1447 
L 2688 1575 
L 2106 1575 
z
M 3816 1997 
L 3816 0 
L 2688 0 
L 2688 519 
Q 2463 200 2181 54 
Q 1900 -91 1497 -91 
Q 953 -91 614 226 
Q 275 544 275 1050 
Q 275 1666 698 1953 
Q 1122 2241 2028 2241 
L 2688 2241 
L 2688 2328 
Q 2688 2594 2478 2717 
Q 2269 2841 1825 2841 
Q 1466 2841 1156 2769 
Q 847 2697 581 2553 
L 581 3406 
Q 941 3494 1303 3539 
Q 1666 3584 2028 3584 
Q 2975 3584 3395 3211 
Q 3816 2838 3816 1997 
z
" transform="scale(0.015625)"/>
      <path id="DejaVuSans-Bold-67" d="M 2919 594 
Q 2688 288 2409 144 
Q 2131 0 1766 0 
Q 1125 0 706 504 
Q 288 1009 288 1791 
Q 288 2575 706 3076 
Q 1125 3578 1766 3578 
Q 2131 3578 2409 3434 
Q 2688 3291 2919 2981 
L 2919 3500 
L 4044 3500 
L 4044 353 
Q 4044 -491 3511 -936 
Q 2978 -1381 1966 -1381 
Q 1638 -1381 1331 -1331 
Q 1025 -1281 716 -1178 
L 716 -306 
Q 1009 -475 1290 -558 
Q 1572 -641 1856 -641 
Q 2406 -641 2662 -400 
Q 2919 -159 2919 353 
L 2919 594 
z
M 2181 2772 
Q 1834 2772 1640 2515 
Q 1447 2259 1447 1791 
Q 1447 1309 1634 1061 
Q 1822 813 2181 813 
Q 2531 813 2725 1069 
Q 2919 1325 2919 1791 
Q 2919 2259 2725 2515 
Q 2531 2772 2181 2772 
z
" transform="scale(0.015625)"/>
      <path id="DejaVuSans-Bold-72" d="M 3138 2547 
Q 2991 2616 2845 2648 
Q 2700 2681 2553 2681 
Q 2122 2681 1889 2404 
Q 1656 2128 1656 1613 
L 1656 0 
L 538 0 
L 538 3500 
L 1656 3500 
L 1656 2925 
Q 1872 3269 2151 3426 
Q 2431 3584 2822 3584 
Q 2878 3584 2943 3579 
Q 3009 3575 3134 3559 
L 3138 2547 
z
" transform="scale(0.015625)"/>
      <path id="DejaVuSans-Bold-6d" d="M 3781 2919 
Q 3994 3244 4286 3414 
Q 4578 3584 4928 3584 
Q 5531 3584 5847 3212 
Q 6163 2841 6163 2131 
L 6163 0 
L 5038 0 
L 5038 1825 
Q 5041 1866 5042 1909 
Q 5044 1953 5044 2034 
Q 5044 2406 4934 2573 
Q 4825 2741 4581 2741 
Q 4263 2741 4089 2478 
Q 3916 2216 3909 1719 
L 3909 0 
L 2784 0 
L 2784 1825 
Q 2784 2406 2684 2573 
Q 2584 2741 2328 2741 
Q 2006 2741 1831 2477 
Q 1656 2213 1656 1722 
L 1656 0 
L 531 0 
L 531 3500 
L 1656 3500 
L 1656 2988 
Q 1863 3284 2130 3434 
Q 2397 3584 2719 3584 
Q 3081 3584 3359 3409 
Q 3638 3234 3781 2919 
z
" transform="scale(0.015625)"/>
      <path id="DejaVuSans-Bold-65" d="M 4031 1759 
L 4031 1441 
L 1416 1441 
Q 1456 1047 1700 850 
Q 1944 653 2381 653 
Q 2734 653 3104 758 
Q 3475 863 3866 1075 
L 3866 213 
Q 3469 63 3072 -14 
Q 2675 -91 2278 -91 
Q 1328 -91 801 392 
Q 275 875 275 1747 
Q 275 2603 792 3093 
Q 1309 3584 2216 3584 
Q 3041 3584 3536 3087 
Q 4031 2591 4031 1759 
z
M 2881 2131 
Q 2881 2450 2695 2645 
Q 2509 2841 2209 2841 
Q 1884 2841 1681 2658 
Q 1478 2475 1428 2131 
L 2881 2131 
z
" transform="scale(0.015625)"/>
      <path id="DejaVuSans-Bold-20" transform="scale(0.015625)"/>
      <path id="DejaVuSans-Bold-64" d="M 2919 2988 
L 2919 4863 
L 4044 4863 
L 4044 0 
L 2919 0 
L 2919 506 
Q 2688 197 2409 53 
Q 2131 -91 1766 -91 
Q 1119 -91 703 423 
Q 288 938 288 1747 
Q 288 2556 703 3070 
Q 1119 3584 1766 3584 
Q 2128 3584 2408 3439 
Q 2688 3294 2919 2988 
z
M 2181 722 
Q 2541 722 2730 984 
Q 2919 1247 2919 1747 
Q 2919 2247 2730 2509 
Q 2541 2772 2181 2772 
Q 1825 2772 1636 2509 
Q 1447 2247 1447 1747 
Q 1447 1247 1636 984 
Q 1825 722 2181 722 
z
" transform="scale(0.015625)"/>
      <path id="DejaVuSans-Bold-73" d="M 3272 3391 
L 3272 2541 
Q 2913 2691 2578 2766 
Q 2244 2841 1947 2841 
Q 1628 2841 1473 2761 
Q 1319 2681 1319 2516 
Q 1319 2381 1436 2309 
Q 1553 2238 1856 2203 
L 2053 2175 
Q 2913 2066 3209 1816 
Q 3506 1566 3506 1031 
Q 3506 472 3093 190 
Q 2681 -91 1863 -91 
Q 1516 -91 1145 -36 
Q 775 19 384 128 
L 384 978 
Q 719 816 1070 734 
Q 1422 653 1784 653 
Q 2113 653 2278 743 
Q 2444 834 2444 1013 
Q 2444 1163 2330 1236 
Q 2216 1309 1875 1350 
L 1678 1375 
Q 931 1469 631 1722 
Q 331 1975 331 2491 
Q 331 3047 712 3315 
Q 1094 3584 1881 3584 
Q 2191 3584 2531 3537 
Q 2872 3491 3272 3391 
z
" transform="scale(0.015625)"/>
      <path id="DejaVuSans-Bold-e9" d="M 4031 1759 
L 4031 1441 
L 1416 1441 
Q 1456 1047 1700 850 
Q 1944 653 2381 653 
Q 2734 653 3104 758 
Q 3475 863 3866 1075 
L 3866 213 
Q 3469 63 3072 -14 
Q 2675 -91 2278 -91 
Q 1328 -91 801 392 
Q 275 875 275 1747 
Q 275 2603 792 3093 
Q 1309 3584 2216 3584 
Q 3041 3584 3536 3087 
Q 4031 2591 4031 1759 
z
M 2881 2131 
Q 2881 2450 2695 2645 
Q 2509 2841 2209 2841 
Q 1884 2841 1681 2658 
Q 1478 2475 1428 2131 
L 2881 2131 
z
M 2702 5119 
L 3586 5119 
L 2433 3944 
L 1821 3944 
L 2702 5119 
z
" transform="scale(0.015625)"/>
      <path id="DejaVuSans-Bold-71" d="M 2181 2772 
Q 1825 2772 1636 2509 
Q 1447 2247 1447 1747 
Q 1447 1247 1636 984 
Q 1825 722 2181 722 
Q 2541 722 2730 984 
Q 2919 1247 2919 1747 
Q 2919 2247 2730 2509 
Q 2541 2772 2181 2772 
z
M 2919 506 
Q 2688 197 2409 53 
Q 2131 -91 1766 -91 
Q 1119 -91 703 423 
Q 288 938 288 1747 
Q 288 2556 703 3067 
Q 1119 3578 1766 3578 
Q 2131 3578 2409 3434 
Q 2688 3291 2919 2981 
L 2919 3500 
L 4044 3500 
L 4044 -1331 
L 2919 -1331 
L 2919 506 
z
" transform="scale(0.015625)"/>
      <path id="DejaVuSans-Bold-75" d="M 500 1363 
L 500 3500 
L 1625 3500 
L 1625 3150 
Q 1625 2866 1622 2436 
Q 1619 2006 1619 1863 
Q 1619 1441 1641 1255 
Q 1663 1069 1716 984 
Q 1784 875 1895 815 
Q 2006 756 2150 756 
Q 2500 756 2700 1025 
Q 2900 1294 2900 1772 
L 2900 3500 
L 4019 3500 
L 4019 0 
L 2900 0 
L 2900 506 
Q 2647 200 2364 54 
Q 2081 -91 1741 -91 
Q 1134 -91 817 281 
Q 500 653 500 1363 
z
" transform="scale(0.015625)"/>
      <path id="DejaVuSans-Bold-6e" d="M 4056 2131 
L 4056 0 
L 2931 0 
L 2931 347 
L 2931 1631 
Q 2931 2084 2911 2256 
Q 2891 2428 2841 2509 
Q 2775 2619 2662 2680 
Q 2550 2741 2406 2741 
Q 2056 2741 1856 2470 
Q 1656 2200 1656 1722 
L 1656 0 
L 538 0 
L 538 3500 
L 1656 3500 
L 1656 2988 
Q 1909 3294 2193 3439 
Q 2478 3584 2822 3584 
Q 3428 3584 3742 3212 
Q 4056 2841 4056 2131 
z
" transform="scale(0.015625)"/>
      <path id="DejaVuSans-Bold-63" d="M 3366 3391 
L 3366 2478 
Q 3138 2634 2908 2709 
Q 2678 2784 2431 2784 
Q 1963 2784 1702 2511 
Q 1441 2238 1441 1747 
Q 1441 1256 1702 982 
Q 1963 709 2431 709 
Q 2694 709 2930 787 
Q 3166 866 3366 1019 
L 3366 103 
Q 3103 6 2833 -42 
Q 2563 -91 2291 -91 
Q 1344 -91 809 395 
Q 275 881 275 1747 
Q 275 2613 809 3098 
Q 1344 3584 2291 3584 
Q 2566 3584 2833 3536 
Q 3100 3488 3366 3391 
z
" transform="scale(0.015625)"/>
      <path id="DejaVuSans-Bold-2014" d="M 344 2156 
L 6056 2156 
L 6056 1350 
L 344 1350 
L 344 2156 
z
" transform="scale(0.015625)"/>
      <path id="DejaVuSans-Bold-50" d="M 588 4666 
L 2584 4666 
Q 3475 4666 3951 4270 
Q 4428 3875 4428 3144 
Q 4428 2409 3951 2014 
Q 3475 1619 2584 1619 
L 1791 1619 
L 1791 0 
L 588 0 
L 588 4666 
z
M 1791 3794 
L 1791 2491 
L 2456 2491 
Q 2806 2491 2997 2661 
Q 3188 2831 3188 3144 
Q 3188 3456 2997 3625 
Q 2806 3794 2456 3794 
L 1791 3794 
z
" transform="scale(0.015625)"/>
      <path id="DejaVuSans-Bold-62" d="M 2400 722 
Q 2759 722 2948 984 
Q 3138 1247 3138 1747 
Q 3138 2247 2948 2509 
Q 2759 2772 2400 2772 
Q 2041 2772 1848 2508 
Q 1656 2244 1656 1747 
Q 1656 1250 1848 986 
Q 2041 722 2400 722 
z
M 1656 2988 
Q 1888 3294 2169 3439 
Q 2450 3584 2816 3584 
Q 3463 3584 3878 3070 
Q 4294 2556 4294 1747 
Q 4294 938 3878 423 
Q 3463 -91 2816 -91 
Q 2450 -91 2169 54 
Q 1888 200 1656 506 
L 1656 0 
L 538 0 
L 538 4863 
L 1656 4863 
L 1656 2988 
z
" transform="scale(0.015625)"/>
      <path id="DejaVuSans-Bold-6c" d="M 538 4863 
L 1656 4863 
L 1656 0 
L 538 0 
L 538 4863 
z
" transform="scale(0.015625)"/>
      <path id="DejaVuSans-Bold-74" d="M 1759 4494 
L 1759 3500 
L 2913 3500 
L 2913 2700 
L 1759 2700 
L 1759 1216 
Q 1759 972 1856 886 
Q 1953 800 2241 800 
L 2816 800 
L 2816 0 
L 1856 0 
Q 1194 0 917 276 
Q 641 553 641 1216 
L 641 2700 
L 84 2700 
L 84 3500 
L 641 3500 
L 641 4494 
L 1759 4494 
z
" transform="scale(0.015625)"/>
      <path id="DejaVuSans-Bold-6f" d="M 2203 2784 
Q 1831 2784 1636 2517 
Q 1441 2250 1441 1747 
Q 1441 1244 1636 976 
Q 1831 709 2203 709 
Q 2569 709 2762 976 
Q 2956 1244 2956 1747 
Q 2956 2250 2762 2517 
Q 2569 2784 2203 2784 
z
M 2203 3584 
Q 3106 3584 3614 3096 
Q 4122 2609 4122 1747 
Q 4122 884 3614 396 
Q 3106 -91 2203 -91 
Q 1297 -91 786 396 
Q 275 884 275 1747 
Q 275 2609 786 3096 
Q 1297 3584 2203 3584 
z
" transform="scale(0.015625)"/>
      <path id="DejaVuSans-Bold-66" d="M 2841 4863 
L 2841 4128 
L 2222 4128 
Q 1984 4128 1890 4042 
Q 1797 3956 1797 3744 
L 1797 3500 
L 2753 3500 
L 2753 2700 
L 1797 2700 
L 1797 0 
L 678 0 
L 678 2700 
L 122 2700 
L 122 3500 
L 678 3500 
L 678 3744 
Q 678 4316 997 4589 
Q 1316 4863 1984 4863 
L 2841 4863 
z
" transform="scale(0.015625)"/>
     </defs>
     <use xlink:href="#DejaVuSans-Bold-44"/>
     <use xlink:href="#DejaVuSans-Bold-69" transform="translate(83.007812 0)"/>
     <use xlink:href="#DejaVuSans-Bold-61" transform="translate(117.285156 0)"/>
     <use xlink:href="#DejaVuSans-Bold-67" transform="translate(184.765625 0)"/>
     <use xlink:href="#DejaVuSans-Bold-72" transform="translate(256.347656 0)"/>
     <use xlink:href="#DejaVuSans-Bold-61" transform="translate(305.664062 0)"/>
     <use xlink:href="#DejaVuSans-Bold-6d" transform="translate(373.144531 0)"/>
     <use xlink:href="#DejaVuSans-Bold-6d" transform="translate(477.34375 0)"/>
     <use xlink:href="#DejaVuSans-Bold-65" transform="translate(581.542969 0)"/>
     <use xlink:href="#DejaVuSans-Bold-20" transform="translate(649.365234 0)"/>
     <use xlink:href="#DejaVuSans-Bold-64" transform="translate(684.179688 0)"/>
     <use xlink:href="#DejaVuSans-Bold-65" transform="translate(755.761719 0)"/>
     <use xlink:href="#DejaVuSans-Bold-20" transform="translate(823.583984 0)"/>
     <use xlink:href="#DejaVuSans-Bold-73" transform="translate(858.398438 0)"/>
     <use xlink:href="#DejaVuSans-Bold-e9" transform="translate(917.919922 0)"/>
     <use xlink:href="#DejaVuSans-Bold-71" transform="translate(985.742188 0)"/>
     <use xlink:href="#DejaVuSans-Bold-75" transform="translate(1057.324219 0)"/>
     <use xlink:href="#DejaVuSans-Bold-65" transform="translate(1128.515625 0)"/>
     <use xlink:href="#DejaVuSans-Bold-6e" transform="translate(1196.337891 0)"/>
     <use xlink:href="#DejaVuSans-Bold-63" transform="translate(1267.529297 0)"/>
     <use xlink:href="#DejaVuSans-Bold-65" transform="translate(1326.806641 0)"/>
     <use xlink:href="#DejaVuSans-Bold-20" transform="translate(1394.628906 0)"/>
     <use xlink:href="#DejaVuSans-Bold-2014" transform="translate(1429.443359 0)"/>
     <use xlink:href="#DejaVuSans-Bold-20" transform="translate(1529.443359 0)"/>
     <use xlink:href="#DejaVuSans-Bold-50" transform="translate(1564.257812 0)"/>
     <use xlink:href="#DejaVuSans-Bold-75" transform="translate(1637.548828 0)"/>
     <use xlink:href="#DejaVuSans-Bold-62" transform="translate(1708.740234 0)"/>
     <use xlink:href="#DejaVuSans-Bold-6c" transform="translate(1780.322266 0)"/>
     <use xlink:href="#DejaVuSans-Bold-69" transform="translate(1814.599609 0)"/>
     <use xlink:href="#DejaVuSans-Bold-63" transform="translate(1848.876953 0)"/>
     <use xlink:href="#DejaVuSans-Bold-61" transform="translate(1908.154297 0)"/>
     <use xlink:href="#DejaVuSans-Bold-74" transform="translate(1975.634766 0)"/>
     <use xlink:href="#DejaVuSans-Bold-69" transform="translate(2023.4375 0)"/>
     <use xlink:href="#DejaVuSans-Bold-6f" transform="translate(2057.714844 0)"/>
     <use xlink:href="#DejaVuSans-Bold-6e" transform="translate(2126.416016 0)"/>
     <use xlink:href="#DejaVuSans-Bold-20" transform="translate(2197.607422 0)"/>
     <use xlink:href="#DejaVuSans-Bold-6d" transform="translate(2232.421875 0)"/>
     <use xlink:href="#DejaVuSans-Bold-65" transform="translate(2336.621094 0)"/>
     <use xlink:href="#DejaVuSans-Bold-73" transform="translate(2404.443359 0)"/>
     <use xlink:href="#DejaVuSans-Bold-75" transform="translate(2463.964844 0)"/>
     <use xlink:href="#DejaVuSans-Bold-72" transform="translate(2535.15625 0)"/>
     <use xlink:href="#DejaVuSans-Bold-65" transform="translate(2584.472656 0)"/>
     <use xlink:href="#DejaVuSans-Bold-20" transform="translate(2652.294922 0)"/>
     <use xlink:href="#DejaVuSans-Bold-65" transform="translate(2687.109375 0)"/>
     <use xlink:href="#DejaVuSans-Bold-74" transform="translate(2754.931641 0)"/>
     <use xlink:href="#DejaVuSans-Bold-20" transform="translate(2802.734375 0)"/>
     <use xlink:href="#DejaVuSans-Bold-64" transform="translate(2837.548828 0)"/>
     <use xlink:href="#DejaVuSans-Bold-e9" transform="translate(2909.130859 0)"/>
     <use xlink:href="#DejaVuSans-Bold-74" transform="translate(2976.953125 0)"/>
     <use xlink:href="#DejaVuSans-Bold-65" transform="translate(3024.755859 0)"/>
     <use xlink:href="#DejaVuSans-Bold-63" transform="translate(3092.578125 0)"/>
     <use xlink:href="#DejaVuSans-Bold-74" transform="translate(3151.855469 0)"/>
     <use xlink:href="#DejaVuSans-Bold-69" transform="translate(3199.658203 0)"/>
     <use xlink:href="#DejaVuSans-Bold-6f" transform="translate(3233.935547 0)"/>
     <use xlink:href="#DejaVuSans-Bold-6e" transform="translate(3302.636719 0)"/>
     <use xlink:href="#DejaVuSans-Bold-20" transform="translate(3373.828125 0)"/>
     <use xlink:href="#DejaVuSans-Bold-66" transform="translate(3408.642578 0)"/>
     <use xlink:href="#DejaVuSans-Bold-72" transform="translate(3452.148438 0)"/>
     <use xlink:href="#DejaVuSans-Bold-61" transform="translate(3501.464844 0)"/>
     <use xlink:href="#DejaVuSans-Bold-75" transform="translate(3568.945312 0)"/>
     <use xlink:href="#DejaVuSans-Bold-64" transform="translate(3640.136719 0)"/>
     <use xlink:href="#DejaVuSans-Bold-65" transform="translate(3711.71875 0)"/>
    </g>
   </g>
   <g id="text_2">
    <!-- ESP32 -->
    <g style="fill: #111111" transform="translate(65.269703 68.311869) scale(0.085 -0.085)">
     <defs>
      <path id="DejaVuSans-45" d="M 628 4666 
L 3578 4666 
L 3578 4134 
L 1259 4134 
L 1259 2753 
L 3481 2753 
L 3481 2222 
L 1259 2222 
L 1259 531 
L 3634 531 
L 3634 0 
L 628 0 
L 628 4666 
z
" transform="scale(0.015625)"/>
      <path id="DejaVuSans-53" d="M 3425 4513 
L 3425 3897 
Q 3066 4069 2747 4153 
Q 2428 4238 2131 4238 
Q 1616 4238 1336 4038 
Q 1056 3838 1056 3469 
Q 1056 3159 1242 3001 
Q 1428 2844 1947 2747 
L 2328 2669 
Q 3034 2534 3370 2195 
Q 3706 1856 3706 1288 
Q 3706 609 3251 259 
Q 2797 -91 1919 -91 
Q 1588 -91 1214 -16 
Q 841 59 441 206 
L 441 856 
Q 825 641 1194 531 
Q 1563 422 1919 422 
Q 2459 422 2753 634 
Q 3047 847 3047 1241 
Q 3047 1584 2836 1778 
Q 2625 1972 2144 2069 
L 1759 2144 
Q 1053 2284 737 2584 
Q 422 2884 422 3419 
Q 422 4038 858 4394 
Q 1294 4750 2059 4750 
Q 2388 4750 2728 4690 
Q 3069 4631 3425 4513 
z
" transform="scale(0.015625)"/>
      <path id="DejaVuSans-50" d="M 1259 4147 
L 1259 2394 
L 2053 2394 
Q 2494 2394 2734 2622 
Q 2975 2850 2975 3272 
Q 2975 3691 2734 3919 
Q 2494 4147 2053 4147 
L 1259 4147 
z
M 628 4666 
L 2053 4666 
Q 2838 4666 3239 4311 
Q 3641 3956 3641 3272 
Q 3641 2581 3239 2228 
Q 2838 1875 2053 1875 
L 1259 1875 
L 1259 0 
L 628 0 
L 628 4666 
z
" transform="scale(0.015625)"/>
      <path id="DejaVuSans-33" d="M 2597 2516 
Q 3050 2419 3304 2112 
Q 3559 1806 3559 1356 
Q 3559 666 3084 287 
Q 2609 -91 1734 -91 
Q 1441 -91 1130 -33 
Q 819 25 488 141 
L 488 750 
Q 750 597 1062 519 
Q 1375 441 1716 441 
Q 2309 441 2620 675 
Q 2931 909 2931 1356 
Q 2931 1769 2642 2001 
Q 2353 2234 1838 2234 
L 1294 2234 
L 1294 2753 
L 1863 2753 
Q 2328 2753 2575 2939 
Q 2822 3125 2822 3475 
Q 2822 3834 2567 4026 
Q 2313 4219 1838 4219 
Q 1578 4219 1281 4162 
Q 984 4106 628 3988 
L 628 4550 
Q 988 4650 1302 4700 
Q 1616 4750 1894 4750 
Q 2613 4750 3031 4423 
Q 3450 4097 3450 3541 
Q 3450 3153 3228 2886 
Q 3006 2619 2597 2516 
z
" transform="scale(0.015625)"/>
      <path id="DejaVuSans-32" d="M 1228 531 
L 3431 531 
L 3431 0 
L 469 0 
L 469 531 
Q 828 903 1448 1529 
Q 2069 2156 2228 2338 
Q 2531 2678 2651 2914 
Q 2772 3150 2772 3378 
Q 2772 3750 2511 3984 
Q 2250 4219 1831 4219 
Q 1534 4219 1204 4116 
Q 875 4013 500 3803 
L 500 4441 
Q 881 4594 1212 4672 
Q 1544 4750 1819 4750 
Q 2544 4750 2975 4387 
Q 3406 4025 3406 3419 
Q 3406 3131 3298 2873 
Q 3191 2616 2906 2266 
Q 2828 2175 2409 1742 
Q 1991 1309 1228 531 
z
" transform="scale(0.015625)"/>
     </defs>
     <use xlink:href="#DejaVuSans-45"/>
     <use xlink:href="#DejaVuSans-53" transform="translate(63.183594 0)"/>
     <use xlink:href="#DejaVuSans-50" transform="translate(126.660156 0)"/>
     <use xlink:href="#DejaVuSans-33" transform="translate(186.962891 0)"/>
     <use xlink:href="#DejaVuSans-32" transform="translate(250.585938 0)"/>
    </g>
   </g>
   <g id="text_3">
    <!-- Broker MQTT -->
    <g style="fill: #111111" transform="translate(167.370461 68.311869) scale(0.085 -0.085)">
     <defs>
      <path id="DejaVuSans-42" d="M 1259 2228 
L 1259 519 
L 2272 519 
Q 2781 519 3026 730 
Q 3272 941 3272 1375 
Q 3272 1813 3026 2020 
Q 2781 2228 2272 2228 
L 1259 2228 
z
M 1259 4147 
L 1259 2741 
L 2194 2741 
Q 2656 2741 2882 2914 
Q 3109 3088 3109 3444 
Q 3109 3797 2882 3972 
Q 2656 4147 2194 4147 
L 1259 4147 
z
M 628 4666 
L 2241 4666 
Q 2963 4666 3353 4366 
Q 3744 4066 3744 3513 
Q 3744 3084 3544 2831 
Q 3344 2578 2956 2516 
Q 3422 2416 3680 2098 
Q 3938 1781 3938 1306 
Q 3938 681 3513 340 
Q 3088 0 2303 0 
L 628 0 
L 628 4666 
z
" transform="scale(0.015625)"/>
      <path id="DejaVuSans-72" d="M 2631 2963 
Q 2534 3019 2420 3045 
Q 2306 3072 2169 3072 
Q 1681 3072 1420 2755 
Q 1159 2438 1159 1844 
L 1159 0 
L 581 0 
L 581 3500 
L 1159 3500 
L 1159 2956 
Q 1341 3275 1631 3429 
Q 1922 3584 2338 3584 
Q 2397 3584 2469 3576 
Q 2541 3569 2628 3553 
L 2631 2963 
z
" transform="scale(0.015625)"/>
      <path id="DejaVuSans-6f" d="M 1959 3097 
Q 1497 3097 1228 2736 
Q 959 2375 959 1747 
Q 959 1119 1226 758 
Q 1494 397 1959 397 
Q 2419 397 2687 759 
Q 2956 1122 2956 1747 
Q 2956 2369 2687 2733 
Q 2419 3097 1959 3097 
z
M 1959 3584 
Q 2709 3584 3137 3096 
Q 3566 2609 3566 1747 
Q 3566 888 3137 398 
Q 2709 -91 1959 -91 
Q 1206 -91 779 398 
Q 353 888 353 1747 
Q 353 2609 779 3096 
Q 1206 3584 1959 3584 
z
" transform="scale(0.015625)"/>
      <path id="DejaVuSans-6b" d="M 581 4863 
L 1159 4863 
L 1159 1991 
L 2875 3500 
L 3609 3500 
L 1753 1863 
L 3688 0 
L 2938 0 
L 1159 1709 
L 1159 0 
L 581 0 
L 581 4863 
z
" transform="scale(0.015625)"/>
      <path id="DejaVuSans-65" d="M 3597 1894 
L 3597 1613 
L 953 1613 
Q 991 1019 1311 708 
Q 1631 397 2203 397 
Q 2534 397 2845 478 
Q 3156 559 3463 722 
L 3463 178 
Q 3153 47 2828 -22 
Q 2503 -91 2169 -91 
Q 1331 -91 842 396 
Q 353 884 353 1716 
Q 353 2575 817 3079 
Q 1281 3584 2069 3584 
Q 2775 3584 3186 3129 
Q 3597 2675 3597 1894 
z
M 3022 2063 
Q 3016 2534 2758 2815 
Q 2500 3097 2075 3097 
Q 1594 3097 1305 2825 
Q 1016 2553 972 2059 
L 3022 2063 
z
" transform="scale(0.015625)"/>
      <path id="DejaVuSans-20" transform="scale(0.015625)"/>
      <path id="DejaVuSans-4d" d="M 628 4666 
L 1569 4666 
L 2759 1491 
L 3956 4666 
L 4897 4666 
L 4897 0 
L 4281 0 
L 4281 4097 
L 3078 897 
L 2444 897 
L 1241 4097 
L 1241 0 
L 628 0 
L 628 4666 
z
" transform="scale(0.015625)"/>
      <path id="DejaVuSans-51" d="M 2522 4238 
Q 1834 4238 1429 3725 
Q 1025 3213 1025 2328 
Q 1025 1447 1429 934 
Q 1834 422 2522 422 
Q 3209 422 3611 934 
Q 4013 1447 4013 2328 
Q 4013 3213 3611 3725 
Q 3209 4238 2522 4238 
z
M 3406 84 
L 4238 -825 
L 3475 -825 
L 2784 -78 
Q 2681 -84 2626 -87 
Q 2572 -91 2522 -91 
Q 1538 -91 948 567 
Q 359 1225 359 2328 
Q 359 3434 948 4092 
Q 1538 4750 2522 4750 
Q 3503 4750 4090 4092 
Q 4678 3434 4678 2328 
Q 4678 1516 4351 937 
Q 4025 359 3406 84 
z
" transform="scale(0.015625)"/>
      <path id="DejaVuSans-54" d="M -19 4666 
L 3928 4666 
L 3928 4134 
L 2272 4134 
L 2272 0 
L 1638 0 
L 1638 4134 
L -19 4134 
L -19 4666 
z
" transform="scale(0.015625)"/>
     </defs>
     <use xlink:href="#DejaVuSans-42"/>
     <use xlink:href="#DejaVuSans-72" transform="translate(68.603516 0)"/>
     <use xlink:href="#DejaVuSans-6f" transform="translate(107.466797 0)"/>
     <use xlink:href="#DejaVuSans-6b" transform="translate(168.648438 0)"/>
     <use xlink:href="#DejaVuSans-65" transform="translate(222.933594 0)"/>
     <use xlink:href="#DejaVuSans-72" transform="translate(284.457031 0)"/>
     <use xlink:href="#DejaVuSans-20" transform="translate(325.570312 0)"/>
     <use xlink:href="#DejaVuSans-4d" transform="translate(357.357422 0)"/>
     <use xlink:href="#DejaVuSans-51" transform="translate(443.636719 0)"/>
     <use xlink:href="#DejaVuSans-54" transform="translate(522.347656 0)"/>
     <use xlink:href="#DejaVuSans-54" transform="translate(581.681641 0)"/>
    </g>
   </g>
   <g id="text_4">
    <!-- Node-RED -->
    <g style="fill: #111111" transform="translate(289.214461 68.311869) scale(0.085 -0.085)">
     <defs>
      <path id="DejaVuSans-4e" d="M 628 4666 
L 1478 4666 
L 3547 763 
L 3547 4666 
L 4159 4666 
L 4159 0 
L 3309 0 
L 1241 3903 
L 1241 0 
L 628 0 
L 628 4666 
z
" transform="scale(0.015625)"/>
      <path id="DejaVuSans-64" d="M 2906 2969 
L 2906 4863 
L 3481 4863 
L 3481 0 
L 2906 0 
L 2906 525 
Q 2725 213 2448 61 
Q 2172 -91 1784 -91 
Q 1150 -91 751 415 
Q 353 922 353 1747 
Q 353 2572 751 3078 
Q 1150 3584 1784 3584 
Q 2172 3584 2448 3432 
Q 2725 3281 2906 2969 
z
M 947 1747 
Q 947 1113 1208 752 
Q 1469 391 1925 391 
Q 2381 391 2643 752 
Q 2906 1113 2906 1747 
Q 2906 2381 2643 2742 
Q 2381 3103 1925 3103 
Q 1469 3103 1208 2742 
Q 947 2381 947 1747 
z
" transform="scale(0.015625)"/>
      <path id="DejaVuSans-2d" d="M 313 2009 
L 1997 2009 
L 1997 1497 
L 313 1497 
L 313 2009 
z
" transform="scale(0.015625)"/>
      <path id="DejaVuSans-52" d="M 2841 2188 
Q 3044 2119 3236 1894 
Q 3428 1669 3622 1275 
L 4263 0 
L 3584 0 
L 2988 1197 
Q 2756 1666 2539 1819 
Q 2322 1972 1947 1972 
L 1259 1972 
L 1259 0 
L 628 0 
L 628 4666 
L 2053 4666 
Q 2853 4666 3247 4331 
Q 3641 3997 3641 3322 
Q 3641 2881 3436 2590 
Q 3231 2300 2841 2188 
z
M 1259 4147 
L 1259 2491 
L 2053 2491 
Q 2509 2491 2742 2702 
Q 2975 2913 2975 3322 
Q 2975 3731 2742 3939 
Q 2509 4147 2053 4147 
L 1259 4147 
z
" transform="scale(0.015625)"/>
      <path id="DejaVuSans-44" d="M 1259 4147 
L 1259 519 
L 2022 519 
Q 2988 519 3436 956 
Q 3884 1394 3884 2338 
Q 3884 3275 3436 3711 
Q 2988 4147 2022 4147 
L 1259 4147 
z
M 628 4666 
L 1925 4666 
Q 3281 4666 3915 4102 
Q 4550 3538 4550 2338 
Q 4550 1131 3912 565 
Q 3275 0 1925 0 
L 628 0 
L 628 4666 
z
" transform="scale(0.015625)"/>
     </defs>
     <use xlink:href="#DejaVuSans-4e"/>
     <use xlink:href="#DejaVuSans-6f" transform="translate(74.804688 0)"/>
     <use xlink:href="#DejaVuSans-64" transform="translate(135.986328 0)"/>
     <use xlink:href="#DejaVuSans-65" transform="translate(199.462891 0)"/>
     <use xlink:href="#DejaVuSans-2d" transform="translate(260.986328 0)"/>
     <use xlink:href="#DejaVuSans-52" transform="translate(297.070312 0)"/>
     <use xlink:href="#DejaVuSans-45" transform="translate(366.552734 0)"/>
     <use xlink:href="#DejaVuSans-44" transform="translate(429.736328 0)"/>
    </g>
   </g>
   <g id="text_5">
    <!-- InfluxDB -->
    <g style="fill: #111111" transform="translate(417.722672 68.311869) scale(0.085 -0.085)">
     <defs>
      <path id="DejaVuSans-49" d="M 628 4666 
L 1259 4666 
L 1259 0 
L 628 0 
L 628 4666 
z
" transform="scale(0.015625)"/>
      <path id="DejaVuSans-6e" d="M 3513 2113 
L 3513 0 
L 2938 0 
L 2938 2094 
Q 2938 2591 2744 2837 
Q 2550 3084 2163 3084 
Q 1697 3084 1428 2787 
Q 1159 2491 1159 1978 
L 1159 0 
L 581 0 
L 581 3500 
L 1159 3500 
L 1159 2956 
Q 1366 3272 1645 3428 
Q 1925 3584 2291 3584 
Q 2894 3584 3203 3211 
Q 3513 2838 3513 2113 
z
" transform="scale(0.015625)"/>
      <path id="DejaVuSans-66" d="M 2375 4863 
L 2375 4384 
L 1825 4384 
Q 1516 4384 1395 4259 
Q 1275 4134 1275 3809 
L 1275 3500 
L 2222 3500 
L 2222 3053 
L 1275 3053 
L 1275 0 
L 697 0 
L 697 3053 
L 147 3053 
L 147 3500 
L 697 3500 
L 697 3744 
Q 697 4328 969 4595 
Q 1241 4863 1831 4863 
L 2375 4863 
z
" transform="scale(0.015625)"/>
      <path id="DejaVuSans-6c" d="M 603 4863 
L 1178 4863 
L 1178 0 
L 603 0 
L 603 4863 
z
" transform="scale(0.015625)"/>
      <path id="DejaVuSans-75" d="M 544 1381 
L 544 3500 
L 1119 3500 
L 1119 1403 
Q 1119 906 1312 657 
Q 1506 409 1894 409 
Q 2359 409 2629 706 
Q 2900 1003 2900 1516 
L 2900 3500 
L 3475 3500 
L 3475 0 
L 2900 0 
L 2900 538 
Q 2691 219 2414 64 
Q 2138 -91 1772 -91 
Q 1169 -91 856 284 
Q 544 659 544 1381 
z
M 1991 3584 
L 1991 3584 
z
" transform="scale(0.015625)"/>
      <path id="DejaVuSans-78" d="M 3513 3500 
L 2247 1797 
L 3578 0 
L 2900 0 
L 1881 1375 
L 863 0 
L 184 0 
L 1544 1831 
L 300 3500 
L 978 3500 
L 1906 2253 
L 2834 3500 
L 3513 3500 
z
" transform="scale(0.015625)"/>
     </defs>
     <use xlink:href="#DejaVuSans-49"/>
     <use xlink:href="#DejaVuSans-6e" transform="translate(29.492188 0)"/>
     <use xlink:href="#DejaVuSans-66" transform="translate(92.871094 0)"/>
     <use xlink:href="#DejaVuSans-6c" transform="translate(128.076172 0)"/>
     <use xlink:href="#DejaVuSans-75" transform="translate(155.859375 0)"/>
     <use xlink:href="#DejaVuSans-78" transform="translate(219.238281 0)"/>
     <use xlink:href="#DejaVuSans-44" transform="translate(278.417969 0)"/>
     <use xlink:href="#DejaVuSans-42" transform="translate(355.419922 0)"/>
    </g>
   </g>
   <g id="text_6">
    <!-- MongoDB -->
    <g style="fill: #111111" transform="translate(522.432187 68.311869) scale(0.085 -0.085)">
     <defs>
      <path id="DejaVuSans-67" d="M 2906 1791 
Q 2906 2416 2648 2759 
Q 2391 3103 1925 3103 
Q 1463 3103 1205 2759 
Q 947 2416 947 1791 
Q 947 1169 1205 825 
Q 1463 481 1925 481 
Q 2391 481 2648 825 
Q 2906 1169 2906 1791 
z
M 3481 434 
Q 3481 -459 3084 -895 
Q 2688 -1331 1869 -1331 
Q 1566 -1331 1297 -1286 
Q 1028 -1241 775 -1147 
L 775 -588 
Q 1028 -725 1275 -790 
Q 1522 -856 1778 -856 
Q 2344 -856 2625 -561 
Q 2906 -266 2906 331 
L 2906 616 
Q 2728 306 2450 153 
Q 2172 0 1784 0 
Q 1141 0 747 490 
Q 353 981 353 1791 
Q 353 2603 747 3093 
Q 1141 3584 1784 3584 
Q 2172 3584 2450 3431 
Q 2728 3278 2906 2969 
L 2906 3500 
L 3481 3500 
L 3481 434 
z
" transform="scale(0.015625)"/>
     </defs>
     <use xlink:href="#DejaVuSans-4d"/>
     <use xlink:href="#DejaVuSans-6f" transform="translate(86.279297 0)"/>
     <use xlink:href="#DejaVuSans-6e" transform="translate(147.460938 0)"/>
     <use xlink:href="#DejaVuSans-67" transform="translate(210.839844 0)"/>
     <use xlink:href="#DejaVuSans-6f" transform="translate(274.316406 0)"/>
     <use xlink:href="#DejaVuSans-44" transform="translate(335.498047 0)"/>
     <use xlink:href="#DejaVuSans-42" transform="translate(412.5 0)"/>
    </g>
   </g>
   <g id="text_7">
    <!-- Redis -->
    <g style="fill: #111111" transform="translate(638.546312 68.311869) scale(0.085 -0.085)">
     <defs>
      <path id="DejaVuSans-69" d="M 603 3500 
L 1178 3500 
L 1178 0 
L 603 0 
L 603 3500 
z
M 603 4863 
L 1178 4863 
L 1178 4134 
L 603 4134 
L 603 4863 
z
" transform="scale(0.015625)"/>
      <path id="DejaVuSans-73" d="M 2834 3397 
L 2834 2853 
Q 2591 2978 2328 3040 
Q 2066 3103 1784 3103 
Q 1356 3103 1142 2972 
Q 928 2841 928 2578 
Q 928 2378 1081 2264 
Q 1234 2150 1697 2047 
L 1894 2003 
Q 2506 1872 2764 1633 
Q 3022 1394 3022 966 
Q 3022 478 2636 193 
Q 2250 -91 1575 -91 
Q 1294 -91 989 -36 
Q 684 19 347 128 
L 347 722 
Q 666 556 975 473 
Q 1284 391 1588 391 
Q 1994 391 2212 530 
Q 2431 669 2431 922 
Q 2431 1156 2273 1281 
Q 2116 1406 1581 1522 
L 1381 1569 
Q 847 1681 609 1914 
Q 372 2147 372 2553 
Q 372 3047 722 3315 
Q 1072 3584 1716 3584 
Q 2034 3584 2315 3537 
Q 2597 3491 2834 3397 
z
" transform="scale(0.015625)"/>
     </defs>
     <use xlink:href="#DejaVuSans-52"/>
     <use xlink:href="#DejaVuSans-65" transform="translate(64.982422 0)"/>
     <use xlink:href="#DejaVuSans-64" transform="translate(126.505859 0)"/>
     <use xlink:href="#DejaVuSans-69" transform="translate(189.982422 0)"/>
     <use xlink:href="#DejaVuSans-73" transform="translate(217.765625 0)"/>
    </g>
   </g>
   <g id="text_8">
    <!-- FastAPI -->
    <g style="fill: #111111" transform="translate(741.887195 68.311869) scale(0.085 -0.085)">
     <defs>
      <path id="DejaVuSans-46" d="M 628 4666 
L 3309 4666 
L 3309 4134 
L 1259 4134 
L 1259 2759 
L 3109 2759 
L 3109 2228 
L 1259 2228 
L 1259 0 
L 628 0 
L 628 4666 
z
" transform="scale(0.015625)"/>
      <path id="DejaVuSans-61" d="M 2194 1759 
Q 1497 1759 1228 1600 
Q 959 1441 959 1056 
Q 959 750 1161 570 
Q 1363 391 1709 391 
Q 2188 391 2477 730 
Q 2766 1069 2766 1631 
L 2766 1759 
L 2194 1759 
z
M 3341 1997 
L 3341 0 
L 2766 0 
L 2766 531 
Q 2569 213 2275 61 
Q 1981 -91 1556 -91 
Q 1019 -91 701 211 
Q 384 513 384 1019 
Q 384 1609 779 1909 
Q 1175 2209 1959 2209 
L 2766 2209 
L 2766 2266 
Q 2766 2663 2505 2880 
Q 2244 3097 1772 3097 
Q 1472 3097 1187 3025 
Q 903 2953 641 2809 
L 641 3341 
Q 956 3463 1253 3523 
Q 1550 3584 1831 3584 
Q 2591 3584 2966 3190 
Q 3341 2797 3341 1997 
z
" transform="scale(0.015625)"/>
      <path id="DejaVuSans-74" d="M 1172 4494 
L 1172 3500 
L 2356 3500 
L 2356 3053 
L 1172 3053 
L 1172 1153 
Q 1172 725 1289 603 
Q 1406 481 1766 481 
L 2356 481 
L 2356 0 
L 1766 0 
Q 1100 0 847 248 
Q 594 497 594 1153 
L 594 3053 
L 172 3053 
L 172 3500 
L 594 3500 
L 594 4494 
L 1172 4494 
z
" transform="scale(0.015625)"/>
      <path id="DejaVuSans-41" d="M 2188 4044 
L 1331 1722 
L 3047 1722 
L 2188 4044 
z
M 1831 4666 
L 2547 4666 
L 4325 0 
L 3669 0 
L 3244 1197 
L 1141 1197 
L 716 0 
L 50 0 
L 1831 4666 
z
" transform="scale(0.015625)"/>
     </defs>
     <use xlink:href="#DejaVuSans-46"/>
     <use xlink:href="#DejaVuSans-61" transform="translate(48.394531 0)"/>
     <use xlink:href="#DejaVuSans-73" transform="translate(109.673828 0)"/>
     <use xlink:href="#DejaVuSans-74" transform="translate(161.773438 0)"/>
     <use xlink:href="#DejaVuSans-41" transform="translate(200.982422 0)"/>
     <use xlink:href="#DejaVuSans-50" transform="translate(269.390625 0)"/>
     <use xlink:href="#DejaVuSans-49" transform="translate(329.693359 0)"/>
    </g>
   </g>
   <g id="text_9">
    <!-- React -->
    <g style="fill: #111111" transform="translate(834.447664 68.311869) scale(0.085 -0.085)">
     <defs>
      <path id="DejaVuSans-63" d="M 3122 3366 
L 3122 2828 
Q 2878 2963 2633 3030 
Q 2388 3097 2138 3097 
Q 1578 3097 1268 2742 
Q 959 2388 959 1747 
Q 959 1106 1268 751 
Q 1578 397 2138 397 
Q 2388 397 2633 464 
Q 2878 531 3122 666 
L 3122 134 
Q 2881 22 2623 -34 
Q 2366 -91 2075 -91 
Q 1284 -91 818 406 
Q 353 903 353 1747 
Q 353 2603 823 3093 
Q 1294 3584 2113 3584 
Q 2378 3584 2631 3529 
Q 2884 3475 3122 3366 
z
" transform="scale(0.015625)"/>
     </defs>
     <use xlink:href="#DejaVuSans-52"/>
     <use xlink:href="#DejaVuSans-65" transform="translate(64.982422 0)"/>
     <use xlink:href="#DejaVuSans-61" transform="translate(126.505859 0)"/>
     <use xlink:href="#DejaVuSans-63" transform="translate(187.785156 0)"/>
     <use xlink:href="#DejaVuSans-74" transform="translate(242.765625 0)"/>
    </g>
   </g>
   <g id="patch_11">
    <path d="M 81.624067 118.08 
Q 136.656819 118.08 190.236126 118.08 
" style="fill: none; stroke: #555555; stroke-width: 1.3; stroke-linecap: round"/>
    <path d="M 186.236126 116.08 
L 190.236126 118.08 
L 186.236126 120.08 
" style="fill: none; stroke: #555555; stroke-width: 1.3; stroke-linecap: round"/>
   </g>
   <g id="text_10">
    <g id="patch_12">
     <path d="M 97.2225 115.919325 
L 176.0895 115.919325 
L 176.0895 106.935075 
L 97.2225 106.935075 
z
" style="fill: #ffffff"/>
    </g>
    <!-- Publier mesure MQTT -->
    <g transform="translate(98.2305 113.41395) scale(0.072 -0.072)">
     <defs>
      <path id="DejaVuSans-62" d="M 3116 1747 
Q 3116 2381 2855 2742 
Q 2594 3103 2138 3103 
Q 1681 3103 1420 2742 
Q 1159 2381 1159 1747 
Q 1159 1113 1420 752 
Q 1681 391 2138 391 
Q 2594 391 2855 752 
Q 3116 1113 3116 1747 
z
M 1159 2969 
Q 1341 3281 1617 3432 
Q 1894 3584 2278 3584 
Q 2916 3584 3314 3078 
Q 3713 2572 3713 1747 
Q 3713 922 3314 415 
Q 2916 -91 2278 -91 
Q 1894 -91 1617 61 
Q 1341 213 1159 525 
L 1159 0 
L 581 0 
L 581 4863 
L 1159 4863 
L 1159 2969 
z
" transform="scale(0.015625)"/>
      <path id="DejaVuSans-6d" d="M 3328 2828 
Q 3544 3216 3844 3400 
Q 4144 3584 4550 3584 
Q 5097 3584 5394 3201 
Q 5691 2819 5691 2113 
L 5691 0 
L 5113 0 
L 5113 2094 
Q 5113 2597 4934 2840 
Q 4756 3084 4391 3084 
Q 3944 3084 3684 2787 
Q 3425 2491 3425 1978 
L 3425 0 
L 2847 0 
L 2847 2094 
Q 2847 2600 2669 2842 
Q 2491 3084 2119 3084 
Q 1678 3084 1418 2786 
Q 1159 2488 1159 1978 
L 1159 0 
L 581 0 
L 581 3500 
L 1159 3500 
L 1159 2956 
Q 1356 3278 1631 3431 
Q 1906 3584 2284 3584 
Q 2666 3584 2933 3390 
Q 3200 3197 3328 2828 
z
" transform="scale(0.015625)"/>
     </defs>
     <use xlink:href="#DejaVuSans-50"/>
     <use xlink:href="#DejaVuSans-75" transform="translate(58.552734 0)"/>
     <use xlink:href="#DejaVuSans-62" transform="translate(121.931641 0)"/>
     <use xlink:href="#DejaVuSans-6c" transform="translate(185.408203 0)"/>
     <use xlink:href="#DejaVuSans-69" transform="translate(213.191406 0)"/>
     <use xlink:href="#DejaVuSans-65" transform="translate(240.974609 0)"/>
     <use xlink:href="#DejaVuSans-72" transform="translate(302.498047 0)"/>
     <use xlink:href="#DejaVuSans-20" transform="translate(343.611328 0)"/>
     <use xlink:href="#DejaVuSans-6d" transform="translate(375.398438 0)"/>
     <use xlink:href="#DejaVuSans-65" transform="translate(472.810547 0)"/>
     <use xlink:href="#DejaVuSans-73" transform="translate(534.333984 0)"/>
     <use xlink:href="#DejaVuSans-75" transform="translate(586.433594 0)"/>
     <use xlink:href="#DejaVuSans-72" transform="translate(649.8125 0)"/>
     <use xlink:href="#DejaVuSans-65" transform="translate(688.675781 0)"/>
     <use xlink:href="#DejaVuSans-20" transform="translate(750.199219 0)"/>
     <use xlink:href="#DejaVuSans-4d" transform="translate(781.986328 0)"/>
     <use xlink:href="#DejaVuSans-51" transform="translate(868.265625 0)"/>
     <use xlink:href="#DejaVuSans-54" transform="translate(946.976562 0)"/>
     <use xlink:href="#DejaVuSans-54" transform="translate(1006.310547 0)"/>
    </g>
   </g>
   <g id="patch_13">
    <path d="M 197.688067 153.5616 
Q 252.720819 153.5616 306.300126 153.5616 
" style="fill: none; stroke: #555555; stroke-width: 1.3; stroke-linecap: round"/>
    <path d="M 302.300126 151.5616 
L 306.300126 153.5616 
L 302.300126 155.5616 
" style="fill: none; stroke: #555555; stroke-width: 1.3; stroke-linecap: round"/>
   </g>
   <g id="text_11">
    <g id="patch_14">
     <path d="M 212.7195 151.400925 
L 292.7205 151.400925 
L 292.7205 142.416675 
L 212.7195 142.416675 
z
" style="fill: #ffffff"/>
    </g>
    <!-- Transmettre message -->
    <g transform="translate(213.7275 148.89555) scale(0.072 -0.072)">
     <use xlink:href="#DejaVuSans-54"/>
     <use xlink:href="#DejaVuSans-72" transform="translate(46.333984 0)"/>
     <use xlink:href="#DejaVuSans-61" transform="translate(87.447266 0)"/>
     <use xlink:href="#DejaVuSans-6e" transform="translate(148.726562 0)"/>
     <use xlink:href="#DejaVuSans-73" transform="translate(212.105469 0)"/>
     <use xlink:href="#DejaVuSans-6d" transform="translate(264.205078 0)"/>
     <use xlink:href="#DejaVuSans-65" transform="translate(361.617188 0)"/>
     <use xlink:href="#DejaVuSans-74" transform="translate(423.140625 0)"/>
     <use xlink:href="#DejaVuSans-74" transform="translate(462.349609 0)"/>
     <use xlink:href="#DejaVuSans-72" transform="translate(501.558594 0)"/>
     <use xlink:href="#DejaVuSans-65" transform="translate(540.421875 0)"/>
     <use xlink:href="#DejaVuSans-20" transform="translate(601.945312 0)"/>
     <use xlink:href="#DejaVuSans-6d" transform="translate(633.732422 0)"/>
     <use xlink:href="#DejaVuSans-65" transform="translate(731.144531 0)"/>
     <use xlink:href="#DejaVuSans-73" transform="translate(792.667969 0)"/>
     <use xlink:href="#DejaVuSans-73" transform="translate(844.767578 0)"/>
     <use xlink:href="#DejaVuSans-61" transform="translate(896.867188 0)"/>
     <use xlink:href="#DejaVuSans-67" transform="translate(958.146484 0)"/>
     <use xlink:href="#DejaVuSans-65" transform="translate(1021.623047 0)"/>
    </g>
   </g>
   <g id="patch_15">
    <path d="M 312.223739 187.694207 
Q 338.966356 163.810512 353.963476 194.893306 
" style="fill: none; stroke: #555555; stroke-width: 1.2; stroke-linecap: round"/>
    <path d="M 354.026559 190.421615 
L 353.963476 194.893306 
L 350.423973 192.159825 
" style="fill: none; stroke: #555555; stroke-width: 1.2; stroke-linecap: round"/>
   </g>
   <g id="text_12">
    <!-- Valider / enrichir -->
    <g transform="translate(382.176 195.6859) scale(0.08 -0.08)">
     <defs>
      <path id="DejaVuSans-56" d="M 1831 0 
L 50 4666 
L 709 4666 
L 2188 738 
L 3669 4666 
L 4325 4666 
L 2547 0 
L 1831 0 
z
" transform="scale(0.015625)"/>
      <path id="DejaVuSans-2f" d="M 1625 4666 
L 2156 4666 
L 531 -594 
L 0 -594 
L 1625 4666 
z
" transform="scale(0.015625)"/>
      <path id="DejaVuSans-68" d="M 3513 2113 
L 3513 0 
L 2938 0 
L 2938 2094 
Q 2938 2591 2744 2837 
Q 2550 3084 2163 3084 
Q 1697 3084 1428 2787 
Q 1159 2491 1159 1978 
L 1159 0 
L 581 0 
L 581 4863 
L 1159 4863 
L 1159 2956 
Q 1366 3272 1645 3428 
Q 1925 3584 2291 3584 
Q 2894 3584 3203 3211 
Q 3513 2838 3513 2113 
z
" transform="scale(0.015625)"/>
     </defs>
     <use xlink:href="#DejaVuSans-56"/>
     <use xlink:href="#DejaVuSans-61" transform="translate(60.658203 0)"/>
     <use xlink:href="#DejaVuSans-6c" transform="translate(121.9375 0)"/>
     <use xlink:href="#DejaVuSans-69" transform="translate(149.720703 0)"/>
     <use xlink:href="#DejaVuSans-64" transform="translate(177.503906 0)"/>
     <use xlink:href="#DejaVuSans-65" transform="translate(240.980469 0)"/>
     <use xlink:href="#DejaVuSans-72" transform="translate(302.503906 0)"/>
     <use xlink:href="#DejaVuSans-20" transform="translate(343.617188 0)"/>
     <use xlink:href="#DejaVuSans-2f" transform="translate(375.404297 0)"/>
     <use xlink:href="#DejaVuSans-20" transform="translate(409.095703 0)"/>
     <use xlink:href="#DejaVuSans-65" transform="translate(440.882812 0)"/>
     <use xlink:href="#DejaVuSans-6e" transform="translate(502.40625 0)"/>
     <use xlink:href="#DejaVuSans-72" transform="translate(565.785156 0)"/>
     <use xlink:href="#DejaVuSans-69" transform="translate(606.898438 0)"/>
     <use xlink:href="#DejaVuSans-63" transform="translate(634.681641 0)"/>
     <use xlink:href="#DejaVuSans-68" transform="translate(689.662109 0)"/>
     <use xlink:href="#DejaVuSans-69" transform="translate(753.041016 0)"/>
     <use xlink:href="#DejaVuSans-72" transform="translate(780.824219 0)"/>
    </g>
   </g>
   <g id="patch_16">
    <path d="M 313.753975 224.5248 
Q 373.250544 224.5248 431.29367 224.5248 
" style="fill: none; stroke: #555555; stroke-width: 1.3; stroke-linecap: round"/>
    <path d="M 427.29367 222.5248 
L 431.29367 224.5248 
L 427.29367 226.5248 
" style="fill: none; stroke: #555555; stroke-width: 1.3; stroke-linecap: round"/>
   </g>
   <g id="text_13">
    <g id="patch_17">
     <path d="M 344.075063 222.364125 
L 402.420938 222.364125 
L 402.420938 213.379875 
L 344.075063 213.379875 
z
" style="fill: #ffffff"/>
    </g>
    <!-- Stocker mesure -->
    <g transform="translate(345.083063 219.85875) scale(0.072 -0.072)">
     <use xlink:href="#DejaVuSans-53"/>
     <use xlink:href="#DejaVuSans-74" transform="translate(63.476562 0)"/>
     <use xlink:href="#DejaVuSans-6f" transform="translate(102.685547 0)"/>
     <use xlink:href="#DejaVuSans-63" transform="translate(163.867188 0)"/>
     <use xlink:href="#DejaVuSans-6b" transform="translate(218.847656 0)"/>
     <use xlink:href="#DejaVuSans-65" transform="translate(273.132812 0)"/>
     <use xlink:href="#DejaVuSans-72" transform="translate(334.65625 0)"/>
     <use xlink:href="#DejaVuSans-20" transform="translate(375.769531 0)"/>
     <use xlink:href="#DejaVuSans-6d" transform="translate(407.556641 0)"/>
     <use xlink:href="#DejaVuSans-65" transform="translate(504.96875 0)"/>
     <use xlink:href="#DejaVuSans-73" transform="translate(566.492188 0)"/>
     <use xlink:href="#DejaVuSans-75" transform="translate(618.591797 0)"/>
     <use xlink:href="#DejaVuSans-72" transform="translate(681.970703 0)"/>
     <use xlink:href="#DejaVuSans-65" transform="translate(720.833984 0)"/>
    </g>
   </g>
   <g id="patch_18">
    <path d="M 313.752067 260.0064 
Q 426.814409 260.0064 538.423307 260.0064 
" style="fill: none; stroke: #555555; stroke-width: 1.3; stroke-linecap: round"/>
    <path d="M 534.423307 258.0064 
L 538.423307 260.0064 
L 534.423307 262.0064 
" style="fill: none; stroke: #555555; stroke-width: 1.3; stroke-linecap: round"/>
   </g>
   <g id="text_14">
    <g id="patch_19">
     <path d="M 383.999062 257.989725 
L 469.632937 257.989725 
L 469.632937 248.717475 
L 383.999062 248.717475 
z
" style="fill: #ffffff"/>
    </g>
    <!-- Mettre à jour metadata -->
    <g transform="translate(385.007062 255.48435) scale(0.072 -0.072)">
     <defs>
      <path id="DejaVuSans-e0" d="M 2194 1759 
Q 1497 1759 1228 1600 
Q 959 1441 959 1056 
Q 959 750 1161 570 
Q 1363 391 1709 391 
Q 2188 391 2477 730 
Q 2766 1069 2766 1631 
L 2766 1759 
L 2194 1759 
z
M 3341 1997 
L 3341 0 
L 2766 0 
L 2766 531 
Q 2569 213 2275 61 
Q 1981 -91 1556 -91 
Q 1019 -91 701 211 
Q 384 513 384 1019 
Q 384 1609 779 1909 
Q 1175 2209 1959 2209 
L 2766 2209 
L 2766 2266 
Q 2766 2663 2505 2880 
Q 2244 3097 1772 3097 
Q 1472 3097 1187 3025 
Q 903 2953 641 2809 
L 641 3341 
Q 956 3463 1253 3523 
Q 1550 3584 1831 3584 
Q 2591 3584 2966 3190 
Q 3341 2797 3341 1997 
z
M 1403 5119 
L 2284 3950 
L 1806 3950 
L 787 5119 
L 1403 5119 
z
" transform="scale(0.015625)"/>
      <path id="DejaVuSans-6a" d="M 603 3500 
L 1178 3500 
L 1178 -63 
Q 1178 -731 923 -1031 
Q 669 -1331 103 -1331 
L -116 -1331 
L -116 -844 
L 38 -844 
Q 366 -844 484 -692 
Q 603 -541 603 -63 
L 603 3500 
z
M 603 4863 
L 1178 4863 
L 1178 4134 
L 603 4134 
L 603 4863 
z
" transform="scale(0.015625)"/>
     </defs>
     <use xlink:href="#DejaVuSans-4d"/>
     <use xlink:href="#DejaVuSans-65" transform="translate(86.279297 0)"/>
     <use xlink:href="#DejaVuSans-74" transform="translate(147.802734 0)"/>
     <use xlink:href="#DejaVuSans-74" transform="translate(187.011719 0)"/>
     <use xlink:href="#DejaVuSans-72" transform="translate(226.220703 0)"/>
     <use xlink:href="#DejaVuSans-65" transform="translate(265.083984 0)"/>
     <use xlink:href="#DejaVuSans-20" transform="translate(326.607422 0)"/>
     <use xlink:href="#DejaVuSans-e0" transform="translate(358.394531 0)"/>
     <use xlink:href="#DejaVuSans-20" transform="translate(419.673828 0)"/>
     <use xlink:href="#DejaVuSans-6a" transform="translate(451.460938 0)"/>
     <use xlink:href="#DejaVuSans-6f" transform="translate(479.244141 0)"/>
     <use xlink:href="#DejaVuSans-75" transform="translate(540.425781 0)"/>
     <use xlink:href="#DejaVuSans-72" transform="translate(603.804688 0)"/>
     <use xlink:href="#DejaVuSans-20" transform="translate(644.917969 0)"/>
     <use xlink:href="#DejaVuSans-6d" transform="translate(676.705078 0)"/>
     <use xlink:href="#DejaVuSans-65" transform="translate(774.117188 0)"/>
     <use xlink:href="#DejaVuSans-74" transform="translate(835.640625 0)"/>
     <use xlink:href="#DejaVuSans-61" transform="translate(874.849609 0)"/>
     <use xlink:href="#DejaVuSans-64" transform="translate(936.128906 0)"/>
     <use xlink:href="#DejaVuSans-61" transform="translate(999.605469 0)"/>
     <use xlink:href="#DejaVuSans-74" transform="translate(1060.884766 0)"/>
     <use xlink:href="#DejaVuSans-61" transform="translate(1100.09375 0)"/>
    </g>
   </g>
   <g id="patch_20">
    <path d="M 313.751931 295.488 
Q 480.384436 295.488 645.563497 295.488 
" style="fill: none; stroke: #555555; stroke-width: 1.3; stroke-linecap: round"/>
    <path d="M 641.563497 293.488 
L 645.563497 295.488 
L 641.563497 297.488 
" style="fill: none; stroke: #555555; stroke-width: 1.3; stroke-linecap: round"/>
   </g>
   <g id="text_15">
    <g id="patch_21">
     <path d="M 441.171563 293.327325 
L 519.596438 293.327325 
L 519.596438 284.343075 
L 441.171563 284.343075 
z
" style="fill: #ffffff"/>
    </g>
    <!-- Publier cache / alerte -->
    <g transform="translate(442.179563 290.82195) scale(0.072 -0.072)">
     <use xlink:href="#DejaVuSans-50"/>
     <use xlink:href="#DejaVuSans-75" transform="translate(58.552734 0)"/>
     <use xlink:href="#DejaVuSans-62" transform="translate(121.931641 0)"/>
     <use xlink:href="#DejaVuSans-6c" transform="translate(185.408203 0)"/>
     <use xlink:href="#DejaVuSans-69" transform="translate(213.191406 0)"/>
     <use xlink:href="#DejaVuSans-65" transform="translate(240.974609 0)"/>
     <use xlink:href="#DejaVuSans-72" transform="translate(302.498047 0)"/>
     <use xlink:href="#DejaVuSans-20" transform="translate(343.611328 0)"/>
     <use xlink:href="#DejaVuSans-63" transform="translate(375.398438 0)"/>
     <use xlink:href="#DejaVuSans-61" transform="translate(430.378906 0)"/>
     <use xlink:href="#DejaVuSans-63" transform="translate(491.658203 0)"/>
     <use xlink:href="#DejaVuSans-68" transform="translate(546.638672 0)"/>
     <use xlink:href="#DejaVuSans-65" transform="translate(610.017578 0)"/>
     <use xlink:href="#DejaVuSans-20" transform="translate(671.541016 0)"/>
     <use xlink:href="#DejaVuSans-2f" transform="translate(703.328125 0)"/>
     <use xlink:href="#DejaVuSans-20" transform="translate(737.019531 0)"/>
     <use xlink:href="#DejaVuSans-61" transform="translate(768.806641 0)"/>
     <use xlink:href="#DejaVuSans-6c" transform="translate(830.085938 0)"/>
     <use xlink:href="#DejaVuSans-65" transform="translate(857.869141 0)"/>
     <use xlink:href="#DejaVuSans-72" transform="translate(919.392578 0)"/>
     <use xlink:href="#DejaVuSans-74" transform="translate(960.505859 0)"/>
     <use xlink:href="#DejaVuSans-65" transform="translate(999.714844 0)"/>
    </g>
   </g>
   <g id="patch_22">
    <path d="M 754.15384 330.9696 
Q 703.583363 330.9696 654.466331 330.9696 
" style="fill: none; stroke: #555555; stroke-width: 1.3; stroke-linecap: round"/>
    <path d="M 658.466331 332.9696 
L 654.466331 330.9696 
L 658.466331 328.9696 
" style="fill: none; stroke: #555555; stroke-width: 1.3; stroke-linecap: round"/>
   </g>
   <g id="text_16">
    <g id="patch_23">
     <path d="M 667.122187 328.808925 
L 740.045813 328.808925 
L 740.045813 319.824675 
L 667.122187 319.824675 
z
" style="fill: #ffffff"/>
    </g>
    <!-- Lire cache / PubSub -->
    <g transform="translate(668.130188 326.30355) scale(0.072 -0.072)">
     <defs>
      <path id="DejaVuSans-4c" d="M 628 4666 
L 1259 4666 
L 1259 531 
L 3531 531 
L 3531 0 
L 628 0 
L 628 4666 
z
" transform="scale(0.015625)"/>
     </defs>
     <use xlink:href="#DejaVuSans-4c"/>
     <use xlink:href="#DejaVuSans-69" transform="translate(55.712891 0)"/>
     <use xlink:href="#DejaVuSans-72" transform="translate(83.496094 0)"/>
     <use xlink:href="#DejaVuSans-65" transform="translate(122.359375 0)"/>
     <use xlink:href="#DejaVuSans-20" transform="translate(183.882812 0)"/>
     <use xlink:href="#DejaVuSans-63" transform="translate(215.669922 0)"/>
     <use xlink:href="#DejaVuSans-61" transform="translate(270.650391 0)"/>
     <use xlink:href="#DejaVuSans-63" transform="translate(331.929688 0)"/>
     <use xlink:href="#DejaVuSans-68" transform="translate(386.910156 0)"/>
     <use xlink:href="#DejaVuSans-65" transform="translate(450.289062 0)"/>
     <use xlink:href="#DejaVuSans-20" transform="translate(511.8125 0)"/>
     <use xlink:href="#DejaVuSans-2f" transform="translate(543.599609 0)"/>
     <use xlink:href="#DejaVuSans-20" transform="translate(577.291016 0)"/>
     <use xlink:href="#DejaVuSans-50" transform="translate(609.078125 0)"/>
     <use xlink:href="#DejaVuSans-75" transform="translate(667.630859 0)"/>
     <use xlink:href="#DejaVuSans-62" transform="translate(731.009766 0)"/>
     <use xlink:href="#DejaVuSans-53" transform="translate(794.486328 0)"/>
     <use xlink:href="#DejaVuSans-75" transform="translate(857.962891 0)"/>
     <use xlink:href="#DejaVuSans-62" transform="translate(921.341797 0)"/>
    </g>
   </g>
   <g id="patch_24">
    <path d="M 760.151795 362.016 
Q 801.792368 362.016 841.979497 362.016 
" style="fill: none; stroke: #555555; stroke-width: 1.3; stroke-linecap: round"/>
    <path d="M 837.979497 360.016 
L 841.979497 362.016 
L 837.979497 364.016 
" style="fill: none; stroke: #555555; stroke-width: 1.3; stroke-linecap: round"/>
   </g>
   <g id="text_17">
    <g id="patch_25">
     <path d="M 767.324812 359.855325 
L 836.259187 359.855325 
L 836.259187 350.871075 
L 767.324812 350.871075 
z
" style="fill: #ffffff"/>
    </g>
    <!-- Notifier dashboard -->
    <g transform="translate(768.332812 357.34995) scale(0.072 -0.072)">
     <use xlink:href="#DejaVuSans-4e"/>
     <use xlink:href="#DejaVuSans-6f" transform="translate(74.804688 0)"/>
     <use xlink:href="#DejaVuSans-74" transform="translate(135.986328 0)"/>
     <use xlink:href="#DejaVuSans-69" transform="translate(175.195312 0)"/>
     <use xlink:href="#DejaVuSans-66" transform="translate(202.978516 0)"/>
     <use xlink:href="#DejaVuSans-69" transform="translate(238.183594 0)"/>
     <use xlink:href="#DejaVuSans-65" transform="translate(265.966797 0)"/>
     <use xlink:href="#DejaVuSans-72" transform="translate(327.490234 0)"/>
     <use xlink:href="#DejaVuSans-20" transform="translate(368.603516 0)"/>
     <use xlink:href="#DejaVuSans-64" transform="translate(400.390625 0)"/>
     <use xlink:href="#DejaVuSans-61" transform="translate(463.867188 0)"/>
     <use xlink:href="#DejaVuSans-73" transform="translate(525.146484 0)"/>
     <use xlink:href="#DejaVuSans-68" transform="translate(577.246094 0)"/>
     <use xlink:href="#DejaVuSans-62" transform="translate(640.625 0)"/>
     <use xlink:href="#DejaVuSans-6f" transform="translate(704.101562 0)"/>
     <use xlink:href="#DejaVuSans-61" transform="translate(765.283203 0)"/>
     <use xlink:href="#DejaVuSans-72" transform="translate(826.5625 0)"/>
     <use xlink:href="#DejaVuSans-64" transform="translate(865.925781 0)"/>
    </g>
   </g>
   <g id="text_18">
    <!-- Si anomalie : création d’une alerte fraude -->
    <g style="fill: #111111" transform="translate(372.302719 404.554206) scale(0.095 -0.095)">
     <defs>
      <path id="DejaVuSans-3a" d="M 750 794 
L 1409 794 
L 1409 0 
L 750 0 
L 750 794 
z
M 750 3309 
L 1409 3309 
L 1409 2516 
L 750 2516 
L 750 3309 
z
" transform="scale(0.015625)"/>
      <path id="DejaVuSans-e9" d="M 3597 1894 
L 3597 1613 
L 953 1613 
Q 991 1019 1311 708 
Q 1631 397 2203 397 
Q 2534 397 2845 478 
Q 3156 559 3463 722 
L 3463 178 
Q 3153 47 2828 -22 
Q 2503 -91 2169 -91 
Q 1331 -91 842 396 
Q 353 884 353 1716 
Q 353 2575 817 3079 
Q 1281 3584 2069 3584 
Q 2775 3584 3186 3129 
Q 3597 2675 3597 1894 
z
M 3022 2063 
Q 3016 2534 2758 2815 
Q 2500 3097 2075 3097 
Q 1594 3097 1305 2825 
Q 1016 2553 972 2059 
L 3022 2063 
z
M 2466 5119 
L 3088 5119 
L 2070 3944 
L 1591 3944 
L 2466 5119 
z
" transform="scale(0.015625)"/>
      <path id="DejaVuSans-2019" d="M 813 4666 
L 1472 4666 
L 1472 4191 
L 959 3194 
L 556 3194 
L 813 4191 
L 813 4666 
z
" transform="scale(0.015625)"/>
     </defs>
     <use xlink:href="#DejaVuSans-53"/>
     <use xlink:href="#DejaVuSans-69" transform="translate(63.476562 0)"/>
     <use xlink:href="#DejaVuSans-20" transform="translate(91.259766 0)"/>
     <use xlink:href="#DejaVuSans-61" transform="translate(123.046875 0)"/>
     <use xlink:href="#DejaVuSans-6e" transform="translate(184.326172 0)"/>
     <use xlink:href="#DejaVuSans-6f" transform="translate(247.705078 0)"/>
     <use xlink:href="#DejaVuSans-6d" transform="translate(308.886719 0)"/>
     <use xlink:href="#DejaVuSans-61" transform="translate(406.298828 0)"/>
     <use xlink:href="#DejaVuSans-6c" transform="translate(467.578125 0)"/>
     <use xlink:href="#DejaVuSans-69" transform="translate(495.361328 0)"/>
     <use xlink:href="#DejaVuSans-65" transform="translate(523.144531 0)"/>
     <use xlink:href="#DejaVuSans-20" transform="translate(584.667969 0)"/>
     <use xlink:href="#DejaVuSans-3a" transform="translate(616.455078 0)"/>
     <use xlink:href="#DejaVuSans-20" transform="translate(650.146484 0)"/>
     <use xlink:href="#DejaVuSans-63" transform="translate(681.933594 0)"/>
     <use xlink:href="#DejaVuSans-72" transform="translate(736.914062 0)"/>
     <use xlink:href="#DejaVuSans-e9" transform="translate(775.777344 0)"/>
     <use xlink:href="#DejaVuSans-61" transform="translate(837.300781 0)"/>
     <use xlink:href="#DejaVuSans-74" transform="translate(898.580078 0)"/>
     <use xlink:href="#DejaVuSans-69" transform="translate(937.789062 0)"/>
     <use xlink:href="#DejaVuSans-6f" transform="translate(965.572266 0)"/>
     <use xlink:href="#DejaVuSans-6e" transform="translate(1026.753906 0)"/>
     <use xlink:href="#DejaVuSans-20" transform="translate(1090.132812 0)"/>
     <use xlink:href="#DejaVuSans-64" transform="translate(1121.919922 0)"/>
     <use xlink:href="#DejaVuSans-2019" transform="translate(1185.396484 0)"/>
     <use xlink:href="#DejaVuSans-75" transform="translate(1217.183594 0)"/>
     <use xlink:href="#DejaVuSans-6e" transform="translate(1280.5625 0)"/>
     <use xlink:href="#DejaVuSans-65" transform="translate(1343.941406 0)"/>
     <use xlink:href="#DejaVuSans-20" transform="translate(1405.464844 0)"/>
     <use xlink:href="#DejaVuSans-61" transform="translate(1437.251953 0)"/>
     <use xlink:href="#DejaVuSans-6c" transform="translate(1498.53125 0)"/>
     <use xlink:href="#DejaVuSans-65" transform="translate(1526.314453 0)"/>
     <use xlink:href="#DejaVuSans-72" transform="translate(1587.837891 0)"/>
     <use xlink:href="#DejaVuSans-74" transform="translate(1628.951172 0)"/>
     <use xlink:href="#DejaVuSans-65" transform="translate(1668.160156 0)"/>
     <use xlink:href="#DejaVuSans-20" transform="translate(1729.683594 0)"/>
     <use xlink:href="#DejaVuSans-66" transform="translate(1761.470703 0)"/>
     <use xlink:href="#DejaVuSans-72" transform="translate(1796.675781 0)"/>
     <use xlink:href="#DejaVuSans-61" transform="translate(1837.789062 0)"/>
     <use xlink:href="#DejaVuSans-75" transform="translate(1899.068359 0)"/>
     <use xlink:href="#DejaVuSans-64" transform="translate(1962.447266 0)"/>
     <use xlink:href="#DejaVuSans-65" transform="translate(2025.923828 0)"/>
    </g>
   </g>
  </g>
 </g>
 <defs>
  <clipPath id="pb136f409b6">
   <rect x="7.2" y="7.2" width="892.8" height="443.52"/>
  </clipPath>
 </defs>
</svg>
