<?xml version="1.0" encoding="utf-8" standalone="no"?>
<!DOCTYPE svg PUBLIC "-//W3C//DTD SVG 1.1//EN"
  "http://www.w3.org/Graphics/SVG/1.1/DTD/svg11.dtd">
<svg xmlns:xlink="http://www.w3.org/1999/xlink" width="572.4pt" height="679.68pt" viewBox="0 0 572.4 679.68" xmlns="http://www.w3.org/2000/svg" version="1.1">
 <metadata>
  <rdf:RDF xmlns:dc="http://purl.org/dc/elements/1.1/" xmlns:cc="http://creativecommons.org/ns#" xmlns:rdf="http://www.w3.org/1999/02/22-rdf-syntax-ns#">
   <cc:Work>
    <dc:type rdf:resource="http://purl.org/dc/dcmitype/StillImage"/>
    <dc:date>2026-06-29T15:30:50.094511</dc:date>
    <dc:format>image/svg+xml</dc:format>
    <dc:creator>
     <cc:Agent>
      <dc:title>Matplotlib v3.10.8, https://matplotlib.org/</dc:title>
     </cc:Agent>
    </dc:creator>
   </cc:Work>
  </rdf:RDF>
 </metadata>
 <defs>
  <style type="text/css">*{stroke-linejoin: round; stroke-linecap: butt}</style>
 </defs>
 <g id="figure_1">
  <g id="patch_1">
   <path d="M 0 679.68 
L 572.4 679.68 
L 572.4 0 
L 0 0 
z
" style="fill: #ffffff"/>
  </g>
  <g id="axes_1">
   <g id="patch_2">
    <path d="M 246.024 95.01696 
L 326.376 95.01696 
Q 348.696 95.01696 348.696 68.40576 
L 348.696 69.07104 
Q 348.696 42.45984 326.376 42.45984 
L 246.024 42.45984 
Q 223.704 42.45984 223.704 69.07104 
L 223.704 68.40576 
Q 223.704 95.01696 246.024 95.01696 
z
" clip-path="url(#pbd64963413)" style="fill: #ffffff; stroke: #1f6f43; stroke-width: 1.8; stroke-linejoin: miter"/>
   </g>
   <g id="patch_3">
    <path d="M 206.964 161.54496 
L 365.436 161.54496 
Q 387.756 161.54496 387.756 134.93376 
L 387.756 125.61984 
Q 387.756 99.00864 365.436 99.00864 
L 206.964 99.00864 
Q 184.644 99.00864 184.644 125.61984 
L 184.644 134.93376 
Q 184.644 161.54496 206.964 161.54496 
z
" clip-path="url(#pbd64963413)" style="fill: #ffffff; stroke: #1f6f43; stroke-width: 1.8; stroke-linejoin: miter"/>
   </g>
   <g id="patch_4">
    <path d="M 206.964 228.07296 
L 365.436 228.07296 
Q 387.756 228.07296 387.756 201.46176 
L 387.756 192.14784 
Q 387.756 165.53664 365.436 165.53664 
L 206.964 165.53664 
Q 184.644 165.53664 184.644 192.14784 
L 184.644 201.46176 
Q 184.644 228.07296 206.964 228.07296 
z
" clip-path="url(#pbd64963413)" style="fill: #ffffff; stroke: #1f6f43; stroke-width: 1.8; stroke-linejoin: miter"/>
   </g>
   <g id="patch_5">
    <path d="M 206.964 294.60096 
L 365.436 294.60096 
Q 387.756 294.60096 387.756 267.98976 
L 387.756 258.67584 
Q 387.756 232.06464 365.436 232.06464 
L 206.964 232.06464 
Q 184.644 232.06464 184.644 258.67584 
L 184.644 267.98976 
Q 184.644 294.60096 206.964 294.60096 
z
" clip-path="url(#pbd64963413)" style="fill: #eaf7ef; stroke: #1f6f43; stroke-width: 1.8; stroke-linejoin: miter"/>
   </g>
   <g id="patch_6">
    <path d="M 206.964 367.78176 
L 365.436 367.78176 
Q 387.756 367.78176 387.756 341.17056 
L 387.756 331.85664 
Q 387.756 305.24544 365.436 305.24544 
L 206.964 305.24544 
Q 184.644 305.24544 184.644 331.85664 
L 184.644 341.17056 
Q 184.644 367.78176 206.964 367.78176 
z
" clip-path="url(#pbd64963413)" style="fill: #ffffff; stroke: #1f6f43; stroke-width: 1.8; stroke-linejoin: miter"/>
   </g>
   <g id="patch_7">
    <path d="M 206.964 434.30976 
L 365.436 434.30976 
Q 387.756 434.30976 387.756 407.69856 
L 387.756 398.38464 
Q 387.756 371.77344 365.436 371.77344 
L 206.964 371.77344 
Q 184.644 371.77344 184.644 398.38464 
L 184.644 407.69856 
Q 184.644 434.30976 206.964 434.30976 
z
" clip-path="url(#pbd64963413)" style="fill: #eaf7ef; stroke: #1f6f43; stroke-width: 1.8; stroke-linejoin: miter"/>
   </g>
   <g id="patch_8">
    <path d="M 73.044 520.79616 
L 209.196 520.79616 
Q 231.516 520.79616 231.516 494.18496 
L 231.516 484.87104 
Q 231.516 458.25984 209.196 458.25984 
L 73.044 458.25984 
Q 50.724 458.25984 50.724 484.87104 
L 50.724 494.18496 
Q 50.724 520.79616 73.044 520.79616 
z
" clip-path="url(#pbd64963413)" style="fill: #ffffff; stroke: #1f6f43; stroke-width: 1.8; stroke-linejoin: miter"/>
   </g>
   <g id="patch_9">
    <path d="M 363.204 520.79616 
L 499.356 520.79616 
Q 521.676 520.79616 521.676 494.18496 
L 521.676 484.87104 
Q 521.676 458.25984 499.356 458.25984 
L 363.204 458.25984 
Q 340.884 458.25984 340.884 484.87104 
L 340.884 494.18496 
Q 340.884 520.79616 363.204 520.79616 
z
" clip-path="url(#pbd64963413)" style="fill: #ffffff; stroke: #1f6f43; stroke-width: 1.8; stroke-linejoin: miter"/>
   </g>
   <g id="patch_10">
    <path d="M 218.124 607.28256 
L 354.276 607.28256 
Q 376.596 607.28256 376.596 580.67136 
L 376.596 571.35744 
Q 376.596 544.74624 354.276 544.74624 
L 218.124 544.74624 
Q 195.804 544.74624 195.804 571.35744 
L 195.804 580.67136 
Q 195.804 607.28256 218.124 607.28256 
z
" clip-path="url(#pbd64963413)" style="fill: #ffffff; stroke: #1f6f43; stroke-width: 1.8; stroke-linejoin: miter"/>
   </g>
   <g id="patch_11">
    <path d="M 262.764 667.15776 
L 309.636 667.15776 
Q 331.956 667.15776 331.956 640.54656 
L 331.956 641.21184 
Q 331.956 614.60064 309.636 614.60064 
L 262.764 614.60064 
Q 240.444 614.60064 240.444 641.21184 
L 240.444 640.54656 
Q 240.444 667.15776 262.764 667.15776 
z
" clip-path="url(#pbd64963413)" style="fill: #ffffff; stroke: #1f6f43; stroke-width: 1.8; stroke-linejoin: miter"/>
   </g>
   <g id="text_1">
    <!-- Diagramme d’activité — Détection de fraude -->
    <g style="fill: #112233" transform="translate(72.427656 44.082144) scale(0.17 -0.17)">
     <defs>
      <path id="DejaVuSans-Bold-44" d="M 1791 3756 
L 1791 909 
L 2222 909 
Q 2959 909 3348 1275 
Q 3738 1641 3738 2338 
Q 3738 3031 3350 3393 
Q 2963 3756 2222 3756 
L 1791 3756 
z
M 588 4666 
L 1856 4666 
Q 2919 4666 3439 4514 
Q 3959 4363 4331 4000 
Q 4659 3684 4818 3271 
Q 4978 2859 4978 2338 
Q 4978 1809 4818 1395 
Q 4659 981 4331 666 
Q 3956 303 3431 151 
Q 2906 0 1856 0 
L 588 0 
L 588 4666 
z
" transform="scale(0.015625)"/>
      <path id="DejaVuSans-Bold-69" d="M 538 3500 
L 1656 3500 
L 1656 0 
L 538 0 
L 538 3500 
z
M 538 4863 
L 1656 4863 
L 1656 3950 
L 538 3950 
L 538 4863 
z
" transform="scale(0.015625)"/>
      <path id="DejaVuSans-Bold-61" d="M 2106 1575 
Q 1756 1575 1579 1456 
Q 1403 1338 1403 1106 
Q 1403 894 1545 773 
Q 1688 653 1941 653 
Q 2256 653 2472 879 
Q 2688 1106 2688 1447 
L 2688 1575 
L 2106 1575 
z
M 3816 1997 
L 3816 0 
L 2688 0 
L 2688 519 
Q 2463 200 2181 54 
Q 1900 -91 1497 -91 
Q 953 -91 614 226 
Q 275 544 275 1050 
Q 275 1666 698 1953 
Q 1122 2241 2028 2241 
L 2688 2241 
L 2688 2328 
Q 2688 2594 2478 2717 
Q 2269 2841 1825 2841 
Q 1466 2841 1156 2769 
Q 847 2697 581 2553 
L 581 3406 
Q 941 3494 1303 3539 
Q 1666 3584 2028 3584 
Q 2975 3584 3395 3211 
Q 3816 2838 3816 1997 
z
" transform="scale(0.015625)"/>
      <path id="DejaVuSans-Bold-67" d="M 2919 594 
Q 2688 288 2409 144 
Q 2131 0 1766 0 
Q 1125 0 706 504 
Q 288 1009 288 1791 
Q 288 2575 706 3076 
Q 1125 3578 1766 3578 
Q 2131 3578 2409 3434 
Q 2688 3291 2919 2981 
L 2919 3500 
L 4044 3500 
L 4044 353 
Q 4044 -491 3511 -936 
Q 2978 -1381 1966 -1381 
Q 1638 -1381 1331 -1331 
Q 1025 -1281 716 -1178 
L 716 -306 
Q 1009 -475 1290 -558 
Q 1572 -641 1856 -641 
Q 2406 -641 2662 -400 
Q 2919 -159 2919 353 
L 2919 594 
z
M 2181 2772 
Q 1834 2772 1640 2515 
Q 1447 2259 1447 1791 
Q 1447 1309 1634 1061 
Q 1822 813 2181 813 
Q 2531 813 2725 1069 
Q 2919 1325 2919 1791 
Q 2919 2259 2725 2515 
Q 2531 2772 2181 2772 
z
" transform="scale(0.015625)"/>
      <path id="DejaVuSans-Bold-72" d="M 3138 2547 
Q 2991 2616 2845 2648 
Q 2700 2681 2553 2681 
Q 2122 2681 1889 2404 
Q 1656 2128 1656 1613 
L 1656 0 
L 538 0 
L 538 3500 
L 1656 3500 
L 1656 2925 
Q 1872 3269 2151 3426 
Q 2431 3584 2822 3584 
Q 2878 3584 2943 3579 
Q 3009 3575 3134 3559 
L 3138 2547 
z
" transform="scale(0.015625)"/>
      <path id="DejaVuSans-Bold-6d" d="M 3781 2919 
Q 3994 3244 4286 3414 
Q 4578 3584 4928 3584 
Q 5531 3584 5847 3212 
Q 6163 2841 6163 2131 
L 6163 0 
L 5038 0 
L 5038 1825 
Q 5041 1866 5042 1909 
Q 5044 1953 5044 2034 
Q 5044 2406 4934 2573 
Q 4825 2741 4581 2741 
Q 4263 2741 4089 2478 
Q 3916 2216 3909 1719 
L 3909 0 
L 2784 0 
L 2784 1825 
Q 2784 2406 2684 2573 
Q 2584 2741 2328 2741 
Q 2006 2741 1831 2477 
Q 1656 2213 1656 1722 
L 1656 0 
L 531 0 
L 531 3500 
L 1656 3500 
L 1656 2988 
Q 1863 3284 2130 3434 
Q 2397 3584 2719 3584 
Q 3081 3584 3359 3409 
Q 3638 3234 3781 2919 
z
" transform="scale(0.015625)"/>
      <path id="DejaVuSans-Bold-65" d="M 4031 1759 
L 4031 1441 
L 1416 1441 
Q 1456 1047 1700 850 
Q 1944 653 2381 653 
Q 2734 653 3104 758 
Q 3475 863 3866 1075 
L 3866 213 
Q 3469 63 3072 -14 
Q 2675 -91 2278 -91 
Q 1328 -91 801 392 
Q 275 875 275 1747 
Q 275 2603 792 3093 
Q 1309 3584 2216 3584 
Q 3041 3584 3536 3087 
Q 4031 2591 4031 1759 
z
M 2881 2131 
Q 2881 2450 2695 2645 
Q 2509 2841 2209 2841 
Q 1884 2841 1681 2658 
Q 1478 2475 1428 2131 
L 2881 2131 
z
" transform="scale(0.015625)"/>
      <path id="DejaVuSans-Bold-20" transform="scale(0.015625)"/>
      <path id="DejaVuSans-Bold-64" d="M 2919 2988 
L 2919 4863 
L 4044 4863 
L 4044 0 
L 2919 0 
L 2919 506 
Q 2688 197 2409 53 
Q 2131 -91 1766 -91 
Q 1119 -91 703 423 
Q 288 938 288 1747 
Q 288 2556 703 3070 
Q 1119 3584 1766 3584 
Q 2128 3584 2408 3439 
Q 2688 3294 2919 2988 
z
M 2181 722 
Q 2541 722 2730 984 
Q 2919 1247 2919 1747 
Q 2919 2247 2730 2509 
Q 2541 2772 2181 2772 
Q 1825 2772 1636 2509 
Q 1447 2247 1447 1747 
Q 1447 1247 1636 984 
Q 1825 722 2181 722 
z
" transform="scale(0.015625)"/>
      <path id="DejaVuSans-Bold-2019" d="M 716 4666 
L 1778 4666 
L 1778 3775 
L 1069 2675 
L 403 2675 
L 716 3775 
L 716 4666 
z
" transform="scale(0.015625)"/>
      <path id="DejaVuSans-Bold-63" d="M 3366 3391 
L 3366 2478 
Q 3138 2634 2908 2709 
Q 2678 2784 2431 2784 
Q 1963 2784 1702 2511 
Q 1441 2238 1441 1747 
Q 1441 1256 1702 982 
Q 1963 709 2431 709 
Q 2694 709 2930 787 
Q 3166 866 3366 1019 
L 3366 103 
Q 3103 6 2833 -42 
Q 2563 -91 2291 -91 
Q 1344 -91 809 395 
Q 275 881 275 1747 
Q 275 2613 809 3098 
Q 1344 3584 2291 3584 
Q 2566 3584 2833 3536 
Q 3100 3488 3366 3391 
z
" transform="scale(0.015625)"/>
      <path id="DejaVuSans-Bold-74" d="M 1759 4494 
L 1759 3500 
L 2913 3500 
L 2913 2700 
L 1759 2700 
L 1759 1216 
Q 1759 972 1856 886 
Q 1953 800 2241 800 
L 2816 800 
L 2816 0 
L 1856 0 
Q 1194 0 917 276 
Q 641 553 641 1216 
L 641 2700 
L 84 2700 
L 84 3500 
L 641 3500 
L 641 4494 
L 1759 4494 
z
" transform="scale(0.015625)"/>
      <path id="DejaVuSans-Bold-76" d="M 97 3500 
L 1216 3500 
L 2088 1081 
L 2956 3500 
L 4078 3500 
L 2700 0 
L 1472 0 
L 97 3500 
z
" transform="scale(0.015625)"/>
      <path id="DejaVuSans-Bold-e9" d="M 4031 1759 
L 4031 1441 
L 1416 1441 
Q 1456 1047 1700 850 
Q 1944 653 2381 653 
Q 2734 653 3104 758 
Q 3475 863 3866 1075 
L 3866 213 
Q 3469 63 3072 -14 
Q 2675 -91 2278 -91 
Q 1328 -91 801 392 
Q 275 875 275 1747 
Q 275 2603 792 3093 
Q 1309 3584 2216 3584 
Q 3041 3584 3536 3087 
Q 4031 2591 4031 1759 
z
M 2881 2131 
Q 2881 2450 2695 2645 
Q 2509 2841 2209 2841 
Q 1884 2841 1681 2658 
Q 1478 2475 1428 2131 
L 2881 2131 
z
M 2702 5119 
L 3586 5119 
L 2433 3944 
L 1821 3944 
L 2702 5119 
z
" transform="scale(0.015625)"/>
      <path id="DejaVuSans-Bold-2014" d="M 344 2156 
L 6056 2156 
L 6056 1350 
L 344 1350 
L 344 2156 
z
" transform="scale(0.015625)"/>
      <path id="DejaVuSans-Bold-6f" d="M 2203 2784 
Q 1831 2784 1636 2517 
Q 1441 2250 1441 1747 
Q 1441 1244 1636 976 
Q 1831 709 2203 709 
Q 2569 709 2762 976 
Q 2956 1244 2956 1747 
Q 2956 2250 2762 2517 
Q 2569 2784 2203 2784 
z
M 2203 3584 
Q 3106 3584 3614 3096 
Q 4122 2609 4122 1747 
Q 4122 884 3614 396 
Q 3106 -91 2203 -91 
Q 1297 -91 786 396 
Q 275 884 275 1747 
Q 275 2609 786 3096 
Q 1297 3584 2203 3584 
z
" transform="scale(0.015625)"/>
      <path id="DejaVuSans-Bold-6e" d="M 4056 2131 
L 4056 0 
L 2931 0 
L 2931 347 
L 2931 1631 
Q 2931 2084 2911 2256 
Q 2891 2428 2841 2509 
Q 2775 2619 2662 2680 
Q 2550 2741 2406 2741 
Q 2056 2741 1856 2470 
Q 1656 2200 1656 1722 
L 1656 0 
L 538 0 
L 538 3500 
L 1656 3500 
L 1656 2988 
Q 1909 3294 2193 3439 
Q 2478 3584 2822 3584 
Q 3428 3584 3742 3212 
Q 4056 2841 4056 2131 
z
" transform="scale(0.015625)"/>
      <path id="DejaVuSans-Bold-66" d="M 2841 4863 
L 2841 4128 
L 2222 4128 
Q 1984 4128 1890 4042 
Q 1797 3956 1797 3744 
L 1797 3500 
L 2753 3500 
L 2753 2700 
L 1797 2700 
L 1797 0 
L 678 0 
L 678 2700 
L 122 2700 
L 122 3500 
L 678 3500 
L 678 3744 
Q 678 4316 997 4589 
Q 1316 4863 1984 4863 
L 2841 4863 
z
" transform="scale(0.015625)"/>
      <path id="DejaVuSans-Bold-75" d="M 500 1363 
L 500 3500 
L 1625 3500 
L 1625 3150 
Q 1625 2866 1622 2436 
Q 1619 2006 1619 1863 
Q 1619 1441 1641 1255 
Q 1663 1069 1716 984 
Q 1784 875 1895 815 
Q 2006 756 2150 756 
Q 2500 756 2700 1025 
Q 2900 1294 2900 1772 
L 2900 3500 
L 4019 3500 
L 4019 0 
L 2900 0 
L 2900 506 
Q 2647 200 2364 54 
Q 2081 -91 1741 -91 
Q 1134 -91 817 281 
Q 500 653 500 1363 
z
" transform="scale(0.015625)"/>
     </defs>
     <use xlink:href="#DejaVuSans-Bold-44"/>
     <use xlink:href="#DejaVuSans-Bold-69" transform="translate(83.007812 0)"/>
     <use xlink:href="#DejaVuSans-Bold-61" transform="translate(117.285156 0)"/>
     <use xlink:href="#DejaVuSans-Bold-67" transform="translate(184.765625 0)"/>
     <use xlink:href="#DejaVuSans-Bold-72" transform="translate(256.347656 0)"/>
     <use xlink:href="#DejaVuSans-Bold-61" transform="translate(305.664062 0)"/>
     <use xlink:href="#DejaVuSans-Bold-6d" transform="translate(373.144531 0)"/>
     <use xlink:href="#DejaVuSans-Bold-6d" transform="translate(477.34375 0)"/>
     <use xlink:href="#DejaVuSans-Bold-65" transform="translate(581.542969 0)"/>
     <use xlink:href="#DejaVuSans-Bold-20" transform="translate(649.365234 0)"/>
     <use xlink:href="#DejaVuSans-Bold-64" transform="translate(684.179688 0)"/>
     <use xlink:href="#DejaVuSans-Bold-2019" transform="translate(755.761719 0)"/>
     <use xlink:href="#DejaVuSans-Bold-61" transform="translate(793.75 0)"/>
     <use xlink:href="#DejaVuSans-Bold-63" transform="translate(861.230469 0)"/>
     <use xlink:href="#DejaVuSans-Bold-74" transform="translate(920.507812 0)"/>
     <use xlink:href="#DejaVuSans-Bold-69" transform="translate(968.310547 0)"/>
     <use xlink:href="#DejaVuSans-Bold-76" transform="translate(1002.587891 0)"/>
     <use xlink:href="#DejaVuSans-Bold-69" transform="translate(1067.773438 0)"/>
     <use xlink:href="#DejaVuSans-Bold-74" transform="translate(1102.050781 0)"/>
     <use xlink:href="#DejaVuSans-Bold-e9" transform="translate(1149.853516 0)"/>
     <use xlink:href="#DejaVuSans-Bold-20" transform="translate(1217.675781 0)"/>
     <use xlink:href="#DejaVuSans-Bold-2014" transform="translate(1252.490234 0)"/>
     <use xlink:href="#DejaVuSans-Bold-20" transform="translate(1352.490234 0)"/>
     <use xlink:href="#DejaVuSans-Bold-44" transform="translate(1387.304688 0)"/>
     <use xlink:href="#DejaVuSans-Bold-e9" transform="translate(1470.3125 0)"/>
     <use xlink:href="#DejaVuSans-Bold-74" transform="translate(1538.134766 0)"/>
     <use xlink:href="#DejaVuSans-Bold-65" transform="translate(1585.9375 0)"/>
     <use xlink:href="#DejaVuSans-Bold-63" transform="translate(1653.759766 0)"/>
     <use xlink:href="#DejaVuSans-Bold-74" transform="translate(1713.037109 0)"/>
     <use xlink:href="#DejaVuSans-Bold-69" transform="translate(1760.839844 0)"/>
     <use xlink:href="#DejaVuSans-Bold-6f" transform="translate(1795.117188 0)"/>
     <use xlink:href="#DejaVuSans-Bold-6e" transform="translate(1863.818359 0)"/>
     <use xlink:href="#DejaVuSans-Bold-20" transform="translate(1935.009766 0)"/>
     <use xlink:href="#DejaVuSans-Bold-64" transform="translate(1969.824219 0)"/>
     <use xlink:href="#DejaVuSans-Bold-65" transform="translate(2041.40625 0)"/>
     <use xlink:href="#DejaVuSans-Bold-20" transform="translate(2109.228516 0)"/>
     <use xlink:href="#DejaVuSans-Bold-66" transform="translate(2144.042969 0)"/>
     <use xlink:href="#DejaVuSans-Bold-72" transform="translate(2187.548828 0)"/>
     <use xlink:href="#DejaVuSans-Bold-61" transform="translate(2236.865234 0)"/>
     <use xlink:href="#DejaVuSans-Bold-75" transform="translate(2304.345703 0)"/>
     <use xlink:href="#DejaVuSans-Bold-64" transform="translate(2375.537109 0)"/>
     <use xlink:href="#DejaVuSans-Bold-65" transform="translate(2447.119141 0)"/>
    </g>
   </g>
   <g id="text_2">
    <!-- Début -->
    <g style="fill: #111111" transform="translate(271.731797 71.359806) scale(0.095 -0.095)">
     <defs>
      <path id="DejaVuSans-44" d="M 1259 4147 
L 1259 519 
L 2022 519 
Q 2988 519 3436 956 
Q 3884 1394 3884 2338 
Q 3884 3275 3436 3711 
Q 2988 4147 2022 4147 
L 1259 4147 
z
M 628 4666 
L 1925 4666 
Q 3281 4666 3915 4102 
Q 4550 3538 4550 2338 
Q 4550 1131 3912 565 
Q 3275 0 1925 0 
L 628 0 
L 628 4666 
z
" transform="scale(0.015625)"/>
      <path id="DejaVuSans-e9" d="M 3597 1894 
L 3597 1613 
L 953 1613 
Q 991 1019 1311 708 
Q 1631 397 2203 397 
Q 2534 397 2845 478 
Q 3156 559 3463 722 
L 3463 178 
Q 3153 47 2828 -22 
Q 2503 -91 2169 -91 
Q 1331 -91 842 396 
Q 353 884 353 1716 
Q 353 2575 817 3079 
Q 1281 3584 2069 3584 
Q 2775 3584 3186 3129 
Q 3597 2675 3597 1894 
z
M 3022 2063 
Q 3016 2534 2758 2815 
Q 2500 3097 2075 3097 
Q 1594 3097 1305 2825 
Q 1016 2553 972 2059 
L 3022 2063 
z
M 2466 5119 
L 3088 5119 
L 2070 3944 
L 1591 3944 
L 2466 5119 
z
" transform="scale(0.015625)"/>
      <path id="DejaVuSans-62" d="M 3116 1747 
Q 3116 2381 2855 2742 
Q 2594 3103 2138 3103 
Q 1681 3103 1420 2742 
Q 1159 2381 1159 1747 
Q 1159 1113 1420 752 
Q 1681 391 2138 391 
Q 2594 391 2855 752 
Q 3116 1113 3116 1747 
z
M 1159 2969 
Q 1341 3281 1617 3432 
Q 1894 3584 2278 3584 
Q 2916 3584 3314 3078 
Q 3713 2572 3713 1747 
Q 3713 922 3314 415 
Q 2916 -91 2278 -91 
Q 1894 -91 1617 61 
Q 1341 213 1159 525 
L 1159 0 
L 581 0 
L 581 4863 
L 1159 4863 
L 1159 2969 
z
" transform="scale(0.015625)"/>
      <path id="DejaVuSans-75" d="M 544 1381 
L 544 3500 
L 1119 3500 
L 1119 1403 
Q 1119 906 1312 657 
Q 1506 409 1894 409 
Q 2359 409 2629 706 
Q 2900 1003 2900 1516 
L 2900 3500 
L 3475 3500 
L 3475 0 
L 2900 0 
L 2900 538 
Q 2691 219 2414 64 
Q 2138 -91 1772 -91 
Q 1169 -91 856 284 
Q 544 659 544 1381 
z
M 1991 3584 
L 1991 3584 
z
" transform="scale(0.015625)"/>
      <path id="DejaVuSans-74" d="M 1172 4494 
L 1172 3500 
L 2356 3500 
L 2356 3053 
L 1172 3053 
L 1172 1153 
Q 1172 725 1289 603 
Q 1406 481 1766 481 
L 2356 481 
L 2356 0 
L 1766 0 
Q 1100 0 847 248 
Q 594 497 594 1153 
L 594 3053 
L 172 3053 
L 172 3500 
L 594 3500 
L 594 4494 
L 1172 4494 
z
" transform="scale(0.015625)"/>
     </defs>
     <use xlink:href="#DejaVuSans-44"/>
     <use xlink:href="#DejaVuSans-e9" transform="translate(77.001953 0)"/>
     <use xlink:href="#DejaVuSans-62" transform="translate(138.525391 0)"/>
     <use xlink:href="#DejaVuSans-75" transform="translate(202.001953 0)"/>
     <use xlink:href="#DejaVuSans-74" transform="translate(265.380859 0)"/>
    </g>
   </g>
   <g id="text_3">
    <!-- Réception mesure MQTT -->
    <g style="fill: #111111" transform="translate(228.163164 133.088206) scale(0.095 -0.095)">
     <defs>
      <path id="DejaVuSans-52" d="M 2841 2188 
Q 3044 2119 3236 1894 
Q 3428 1669 3622 1275 
L 4263 0 
L 3584 0 
L 2988 1197 
Q 2756 1666 2539 1819 
Q 2322 1972 1947 1972 
L 1259 1972 
L 1259 0 
L 628 0 
L 628 4666 
L 2053 4666 
Q 2853 4666 3247 4331 
Q 3641 3997 3641 3322 
Q 3641 2881 3436 2590 
Q 3231 2300 2841 2188 
z
M 1259 4147 
L 1259 2491 
L 2053 2491 
Q 2509 2491 2742 2702 
Q 2975 2913 2975 3322 
Q 2975 3731 2742 3939 
Q 2509 4147 2053 4147 
L 1259 4147 
z
" transform="scale(0.015625)"/>
      <path id="DejaVuSans-63" d="M 3122 3366 
L 3122 2828 
Q 2878 2963 2633 3030 
Q 2388 3097 2138 3097 
Q 1578 3097 1268 2742 
Q 959 2388 959 1747 
Q 959 1106 1268 751 
Q 1578 397 2138 397 
Q 2388 397 2633 464 
Q 2878 531 3122 666 
L 3122 134 
Q 2881 22 2623 -34 
Q 2366 -91 2075 -91 
Q 1284 -91 818 406 
Q 353 903 353 1747 
Q 353 2603 823 3093 
Q 1294 3584 2113 3584 
Q 2378 3584 2631 3529 
Q 2884 3475 3122 3366 
z
" transform="scale(0.015625)"/>
      <path id="DejaVuSans-65" d="M 3597 1894 
L 3597 1613 
L 953 1613 
Q 991 1019 1311 708 
Q 1631 397 2203 397 
Q 2534 397 2845 478 
Q 3156 559 3463 722 
L 3463 178 
Q 3153 47 2828 -22 
Q 2503 -91 2169 -91 
Q 1331 -91 842 396 
Q 353 884 353 1716 
Q 353 2575 817 3079 
Q 1281 3584 2069 3584 
Q 2775 3584 3186 3129 
Q 3597 2675 3597 1894 
z
M 3022 2063 
Q 3016 2534 2758 2815 
Q 2500 3097 2075 3097 
Q 1594 3097 1305 2825 
Q 1016 2553 972 2059 
L 3022 2063 
z
" transform="scale(0.015625)"/>
      <path id="DejaVuSans-70" d="M 1159 525 
L 1159 -1331 
L 581 -1331 
L 581 3500 
L 1159 3500 
L 1159 2969 
Q 1341 3281 1617 3432 
Q 1894 3584 2278 3584 
Q 2916 3584 3314 3078 
Q 3713 2572 3713 1747 
Q 3713 922 3314 415 
Q 2916 -91 2278 -91 
Q 1894 -91 1617 61 
Q 1341 213 1159 525 
z
M 3116 1747 
Q 3116 2381 2855 2742 
Q 2594 3103 2138 3103 
Q 1681 3103 1420 2742 
Q 1159 2381 1159 1747 
Q 1159 1113 1420 752 
Q 1681 391 2138 391 
Q 2594 391 2855 752 
Q 3116 1113 3116 1747 
z
" transform="scale(0.015625)"/>
      <path id="DejaVuSans-69" d="M 603 3500 
L 1178 3500 
L 1178 0 
L 603 0 
L 603 3500 
z
M 603 4863 
L 1178 4863 
L 1178 4134 
L 603 4134 
L 603 4863 
z
" transform="scale(0.015625)"/>
      <path id="DejaVuSans-6f" d="M 1959 3097 
Q 1497 3097 1228 2736 
Q 959 2375 959 1747 
Q 959 1119 1226 758 
Q 1494 397 1959 397 
Q 2419 397 2687 759 
Q 2956 1122 2956 1747 
Q 2956 2369 2687 2733 
Q 2419 3097 1959 3097 
z
M 1959 3584 
Q 2709 3584 3137 3096 
Q 3566 2609 3566 1747 
Q 3566 888 3137 398 
Q 2709 -91 1959 -91 
Q 1206 -91 779 398 
Q 353 888 353 1747 
Q 353 2609 779 3096 
Q 1206 3584 1959 3584 
z
" transform="scale(0.015625)"/>
      <path id="DejaVuSans-6e" d="M 3513 2113 
L 3513 0 
L 2938 0 
L 2938 2094 
Q 2938 2591 2744 2837 
Q 2550 3084 2163 3084 
Q 1697 3084 1428 2787 
Q 1159 2491 1159 1978 
L 1159 0 
L 581 0 
L 581 3500 
L 1159 3500 
L 1159 2956 
Q 1366 3272 1645 3428 
Q 1925 3584 2291 3584 
Q 2894 3584 3203 3211 
Q 3513 2838 3513 2113 
z
" transform="scale(0.015625)"/>
      <path id="DejaVuSans-20" transform="scale(0.015625)"/>
      <path id="DejaVuSans-6d" d="M 3328 2828 
Q 3544 3216 3844 3400 
Q 4144 3584 4550 3584 
Q 5097 3584 5394 3201 
Q 5691 2819 5691 2113 
L 5691 0 
L 5113 0 
L 5113 2094 
Q 5113 2597 4934 2840 
Q 4756 3084 4391 3084 
Q 3944 3084 3684 2787 
Q 3425 2491 3425 1978 
L 3425 0 
L 2847 0 
L 2847 2094 
Q 2847 2600 2669 2842 
Q 2491 3084 2119 3084 
Q 1678 3084 1418 2786 
Q 1159 2488 1159 1978 
L 1159 0 
L 581 0 
L 581 3500 
L 1159 3500 
L 1159 2956 
Q 1356 3278 1631 3431 
Q 1906 3584 2284 3584 
Q 2666 3584 2933 3390 
Q 3200 3197 3328 2828 
z
" transform="scale(0.015625)"/>
      <path id="DejaVuSans-73" d="M 2834 3397 
L 2834 2853 
Q 2591 2978 2328 3040 
Q 2066 3103 1784 3103 
Q 1356 3103 1142 2972 
Q 928 2841 928 2578 
Q 928 2378 1081 2264 
Q 1234 2150 1697 2047 
L 1894 2003 
Q 2506 1872 2764 1633 
Q 3022 1394 3022 966 
Q 3022 478 2636 193 
Q 2250 -91 1575 -91 
Q 1294 -91 989 -36 
Q 684 19 347 128 
L 347 722 
Q 666 556 975 473 
Q 1284 391 1588 391 
Q 1994 391 2212 530 
Q 2431 669 2431 922 
Q 2431 1156 2273 1281 
Q 2116 1406 1581 1522 
L 1381 1569 
Q 847 1681 609 1914 
Q 372 2147 372 2553 
Q 372 3047 722 3315 
Q 1072 3584 1716 3584 
Q 2034 3584 2315 3537 
Q 2597 3491 2834 3397 
z
" transform="scale(0.015625)"/>
      <path id="DejaVuSans-72" d="M 2631 2963 
Q 2534 3019 2420 3045 
Q 2306 3072 2169 3072 
Q 1681 3072 1420 2755 
Q 1159 2438 1159 1844 
L 1159 0 
L 581 0 
L 581 3500 
L 1159 3500 
L 1159 2956 
Q 1341 3275 1631 3429 
Q 1922 3584 2338 3584 
Q 2397 3584 2469 3576 
Q 2541 3569 2628 3553 
L 2631 2963 
z
" transform="scale(0.015625)"/>
      <path id="DejaVuSans-4d" d="M 628 4666 
L 1569 4666 
L 2759 1491 
L 3956 4666 
L 4897 4666 
L 4897 0 
L 4281 0 
L 4281 4097 
L 3078 897 
L 2444 897 
L 1241 4097 
L 1241 0 
L 628 0 
L 628 4666 
z
" transform="scale(0.015625)"/>
      <path id="DejaVuSans-51" d="M 2522 4238 
Q 1834 4238 1429 3725 
Q 1025 3213 1025 2328 
Q 1025 1447 1429 934 
Q 1834 422 2522 422 
Q 3209 422 3611 934 
Q 4013 1447 4013 2328 
Q 4013 3213 3611 3725 
Q 3209 4238 2522 4238 
z
M 3406 84 
L 4238 -825 
L 3475 -825 
L 2784 -78 
Q 2681 -84 2626 -87 
Q 2572 -91 2522 -91 
Q 1538 -91 948 567 
Q 359 1225 359 2328 
Q 359 3434 948 4092 
Q 1538 4750 2522 4750 
Q 3503 4750 4090 4092 
Q 4678 3434 4678 2328 
Q 4678 1516 4351 937 
Q 4025 359 3406 84 
z
" transform="scale(0.015625)"/>
      <path id="DejaVuSans-54" d="M -19 4666 
L 3928 4666 
L 3928 4134 
L 2272 4134 
L 2272 0 
L 1638 0 
L 1638 4134 
L -19 4134 
L -19 4666 
z
" transform="scale(0.015625)"/>
     </defs>
     <use xlink:href="#DejaVuSans-52"/>
     <use xlink:href="#DejaVuSans-e9" transform="translate(64.982422 0)"/>
     <use xlink:href="#DejaVuSans-63" transform="translate(126.505859 0)"/>
     <use xlink:href="#DejaVuSans-65" transform="translate(181.486328 0)"/>
     <use xlink:href="#DejaVuSans-70" transform="translate(243.009766 0)"/>
     <use xlink:href="#DejaVuSans-74" transform="translate(306.486328 0)"/>
     <use xlink:href="#DejaVuSans-69" transform="translate(345.695312 0)"/>
     <use xlink:href="#DejaVuSans-6f" transform="translate(373.478516 0)"/>
     <use xlink:href="#DejaVuSans-6e" transform="translate(434.660156 0)"/>
     <use xlink:href="#DejaVuSans-20" transform="translate(498.039062 0)"/>
     <use xlink:href="#DejaVuSans-6d" transform="translate(529.826172 0)"/>
     <use xlink:href="#DejaVuSans-65" transform="translate(627.238281 0)"/>
     <use xlink:href="#DejaVuSans-73" transform="translate(688.761719 0)"/>
     <use xlink:href="#DejaVuSans-75" transform="translate(740.861328 0)"/>
     <use xlink:href="#DejaVuSans-72" transform="translate(804.240234 0)"/>
     <use xlink:href="#DejaVuSans-65" transform="translate(843.103516 0)"/>
     <use xlink:href="#DejaVuSans-20" transform="translate(904.626953 0)"/>
     <use xlink:href="#DejaVuSans-4d" transform="translate(936.414062 0)"/>
     <use xlink:href="#DejaVuSans-51" transform="translate(1022.693359 0)"/>
     <use xlink:href="#DejaVuSans-54" transform="translate(1101.404297 0)"/>
     <use xlink:href="#DejaVuSans-54" transform="translate(1160.738281 0)"/>
    </g>
   </g>
   <g id="text_4">
    <!-- Validation format JSON -->
    <g style="fill: #111111" transform="translate(232.167266 199.426206) scale(0.095 -0.095)">
     <defs>
      <path id="DejaVuSans-56" d="M 1831 0 
L 50 4666 
L 709 4666 
L 2188 738 
L 3669 4666 
L 4325 4666 
L 2547 0 
L 1831 0 
z
" transform="scale(0.015625)"/>
      <path id="DejaVuSans-61" d="M 2194 1759 
Q 1497 1759 1228 1600 
Q 959 1441 959 1056 
Q 959 750 1161 570 
Q 1363 391 1709 391 
Q 2188 391 2477 730 
Q 2766 1069 2766 1631 
L 2766 1759 
L 2194 1759 
z
M 3341 1997 
L 3341 0 
L 2766 0 
L 2766 531 
Q 2569 213 2275 61 
Q 1981 -91 1556 -91 
Q 1019 -91 701 211 
Q 384 513 384 1019 
Q 384 1609 779 1909 
Q 1175 2209 1959 2209 
L 2766 2209 
L 2766 2266 
Q 2766 2663 2505 2880 
Q 2244 3097 1772 3097 
Q 1472 3097 1187 3025 
Q 903 2953 641 2809 
L 641 3341 
Q 956 3463 1253 3523 
Q 1550 3584 1831 3584 
Q 2591 3584 2966 3190 
Q 3341 2797 3341 1997 
z
" transform="scale(0.015625)"/>
      <path id="DejaVuSans-6c" d="M 603 4863 
L 1178 4863 
L 1178 0 
L 603 0 
L 603 4863 
z
" transform="scale(0.015625)"/>
      <path id="DejaVuSans-64" d="M 2906 2969 
L 2906 4863 
L 3481 4863 
L 3481 0 
L 2906 0 
L 2906 525 
Q 2725 213 2448 61 
Q 2172 -91 1784 -91 
Q 1150 -91 751 415 
Q 353 922 353 1747 
Q 353 2572 751 3078 
Q 1150 3584 1784 3584 
Q 2172 3584 2448 3432 
Q 2725 3281 2906 2969 
z
M 947 1747 
Q 947 1113 1208 752 
Q 1469 391 1925 391 
Q 2381 391 2643 752 
Q 2906 1113 2906 1747 
Q 2906 2381 2643 2742 
Q 2381 3103 1925 3103 
Q 1469 3103 1208 2742 
Q 947 2381 947 1747 
z
" transform="scale(0.015625)"/>
      <path id="DejaVuSans-66" d="M 2375 4863 
L 2375 4384 
L 1825 4384 
Q 1516 4384 1395 4259 
Q 1275 4134 1275 3809 
L 1275 3500 
L 2222 3500 
L 2222 3053 
L 1275 3053 
L 1275 0 
L 697 0 
L 697 3053 
L 147 3053 
L 147 3500 
L 697 3500 
L 697 3744 
Q 697 4328 969 4595 
Q 1241 4863 1831 4863 
L 2375 4863 
z
" transform="scale(0.015625)"/>
      <path id="DejaVuSans-4a" d="M 628 4666 
L 1259 4666 
L 1259 325 
Q 1259 -519 939 -900 
Q 619 -1281 -91 -1281 
L -331 -1281 
L -331 -750 
L -134 -750 
Q 284 -750 456 -515 
Q 628 -281 628 325 
L 628 4666 
z
" transform="scale(0.015625)"/>
      <path id="DejaVuSans-53" d="M 3425 4513 
L 3425 3897 
Q 3066 4069 2747 4153 
Q 2428 4238 2131 4238 
Q 1616 4238 1336 4038 
Q 1056 3838 1056 3469 
Q 1056 3159 1242 3001 
Q 1428 2844 1947 2747 
L 2328 2669 
Q 3034 2534 3370 2195 
Q 3706 1856 3706 1288 
Q 3706 609 3251 259 
Q 2797 -91 1919 -91 
Q 1588 -91 1214 -16 
Q 841 59 441 206 
L 441 856 
Q 825 641 1194 531 
Q 1563 422 1919 422 
Q 2459 422 2753 634 
Q 3047 847 3047 1241 
Q 3047 1584 2836 1778 
Q 2625 1972 2144 2069 
L 1759 2144 
Q 1053 2284 737 2584 
Q 422 2884 422 3419 
Q 422 4038 858 4394 
Q 1294 4750 2059 4750 
Q 2388 4750 2728 4690 
Q 3069 4631 3425 4513 
z
" transform="scale(0.015625)"/>
      <path id="DejaVuSans-4f" d="M 2522 4238 
Q 1834 4238 1429 3725 
Q 1025 3213 1025 2328 
Q 1025 1447 1429 934 
Q 1834 422 2522 422 
Q 3209 422 3611 934 
Q 4013 1447 4013 2328 
Q 4013 3213 3611 3725 
Q 3209 4238 2522 4238 
z
M 2522 4750 
Q 3503 4750 4090 4092 
Q 4678 3434 4678 2328 
Q 4678 1225 4090 567 
Q 3503 -91 2522 -91 
Q 1538 -91 948 565 
Q 359 1222 359 2328 
Q 359 3434 948 4092 
Q 1538 4750 2522 4750 
z
" transform="scale(0.015625)"/>
      <path id="DejaVuSans-4e" d="M 628 4666 
L 1478 4666 
L 3547 763 
L 3547 4666 
L 4159 4666 
L 4159 0 
L 3309 0 
L 1241 3903 
L 1241 0 
L 628 0 
L 628 4666 
z
" transform="scale(0.015625)"/>
     </defs>
     <use xlink:href="#DejaVuSans-56"/>
     <use xlink:href="#DejaVuSans-61" transform="translate(60.658203 0)"/>
     <use xlink:href="#DejaVuSans-6c" transform="translate(121.9375 0)"/>
     <use xlink:href="#DejaVuSans-69" transform="translate(149.720703 0)"/>
     <use xlink:href="#DejaVuSans-64" transform="translate(177.503906 0)"/>
     <use xlink:href="#DejaVuSans-61" transform="translate(240.980469 0)"/>
     <use xlink:href="#DejaVuSans-74" transform="translate(302.259766 0)"/>
     <use xlink:href="#DejaVuSans-69" transform="translate(341.46875 0)"/>
     <use xlink:href="#DejaVuSans-6f" transform="translate(369.251953 0)"/>
     <use xlink:href="#DejaVuSans-6e" transform="translate(430.433594 0)"/>
     <use xlink:href="#DejaVuSans-20" transform="translate(493.8125 0)"/>
     <use xlink:href="#DejaVuSans-66" transform="translate(525.599609 0)"/>
     <use xlink:href="#DejaVuSans-6f" transform="translate(560.804688 0)"/>
     <use xlink:href="#DejaVuSans-72" transform="translate(621.986328 0)"/>
     <use xlink:href="#DejaVuSans-6d" transform="translate(661.349609 0)"/>
     <use xlink:href="#DejaVuSans-61" transform="translate(758.761719 0)"/>
     <use xlink:href="#DejaVuSans-74" transform="translate(820.041016 0)"/>
     <use xlink:href="#DejaVuSans-20" transform="translate(859.25 0)"/>
     <use xlink:href="#DejaVuSans-4a" transform="translate(891.037109 0)"/>
     <use xlink:href="#DejaVuSans-53" transform="translate(920.529297 0)"/>
     <use xlink:href="#DejaVuSans-4f" transform="translate(984.005859 0)"/>
     <use xlink:href="#DejaVuSans-4e" transform="translate(1062.716797 0)"/>
    </g>
   </g>
   <g id="text_5">
    <!-- Capteur autorisé ? -->
    <g style="fill: #111111" transform="translate(242.309258 266.144206) scale(0.095 -0.095)">
     <defs>
      <path id="DejaVuSans-43" d="M 4122 4306 
L 4122 3641 
Q 3803 3938 3442 4084 
Q 3081 4231 2675 4231 
Q 1875 4231 1450 3742 
Q 1025 3253 1025 2328 
Q 1025 1406 1450 917 
Q 1875 428 2675 428 
Q 3081 428 3442 575 
Q 3803 722 4122 1019 
L 4122 359 
Q 3791 134 3420 21 
Q 3050 -91 2638 -91 
Q 1578 -91 968 557 
Q 359 1206 359 2328 
Q 359 3453 968 4101 
Q 1578 4750 2638 4750 
Q 3056 4750 3426 4639 
Q 3797 4528 4122 4306 
z
" transform="scale(0.015625)"/>
      <path id="DejaVuSans-3f" d="M 1222 794 
L 1856 794 
L 1856 0 
L 1222 0 
L 1222 794 
z
M 1838 1253 
L 1241 1253 
L 1241 1734 
Q 1241 2050 1328 2253 
Q 1416 2456 1697 2725 
L 1978 3003 
Q 2156 3169 2236 3316 
Q 2316 3463 2316 3616 
Q 2316 3894 2111 4066 
Q 1906 4238 1569 4238 
Q 1322 4238 1042 4128 
Q 763 4019 459 3809 
L 459 4397 
Q 753 4575 1054 4662 
Q 1356 4750 1678 4750 
Q 2253 4750 2601 4447 
Q 2950 4144 2950 3647 
Q 2950 3409 2837 3195 
Q 2725 2981 2444 2713 
L 2169 2444 
Q 2022 2297 1961 2214 
Q 1900 2131 1875 2053 
Q 1856 1988 1847 1894 
Q 1838 1800 1838 1638 
L 1838 1253 
z
" transform="scale(0.015625)"/>
     </defs>
     <use xlink:href="#DejaVuSans-43"/>
     <use xlink:href="#DejaVuSans-61" transform="translate(69.824219 0)"/>
     <use xlink:href="#DejaVuSans-70" transform="translate(131.103516 0)"/>
     <use xlink:href="#DejaVuSans-74" transform="translate(194.580078 0)"/>
     <use xlink:href="#DejaVuSans-65" transform="translate(233.789062 0)"/>
     <use xlink:href="#DejaVuSans-75" transform="translate(295.3125 0)"/>
     <use xlink:href="#DejaVuSans-72" transform="translate(358.691406 0)"/>
     <use xlink:href="#DejaVuSans-20" transform="translate(399.804688 0)"/>
     <use xlink:href="#DejaVuSans-61" transform="translate(431.591797 0)"/>
     <use xlink:href="#DejaVuSans-75" transform="translate(492.871094 0)"/>
     <use xlink:href="#DejaVuSans-74" transform="translate(556.25 0)"/>
     <use xlink:href="#DejaVuSans-6f" transform="translate(595.458984 0)"/>
     <use xlink:href="#DejaVuSans-72" transform="translate(656.640625 0)"/>
     <use xlink:href="#DejaVuSans-69" transform="translate(697.753906 0)"/>
     <use xlink:href="#DejaVuSans-73" transform="translate(725.537109 0)"/>
     <use xlink:href="#DejaVuSans-e9" transform="translate(777.636719 0)"/>
     <use xlink:href="#DejaVuSans-20" transform="translate(839.160156 0)"/>
     <use xlink:href="#DejaVuSans-3f" transform="translate(870.947266 0)"/>
    </g>
   </g>
   <g id="text_6">
    <!-- Contrôle seuils métier -->
    <g style="fill: #111111" transform="translate(233.962617 339.135006) scale(0.095 -0.095)">
     <defs>
      <path id="DejaVuSans-f4" d="M 1959 3097 
Q 1497 3097 1228 2736 
Q 959 2375 959 1747 
Q 959 1119 1226 758 
Q 1494 397 1959 397 
Q 2419 397 2687 759 
Q 2956 1122 2956 1747 
Q 2956 2369 2687 2733 
Q 2419 3097 1959 3097 
z
M 1959 3584 
Q 2709 3584 3137 3096 
Q 3566 2609 3566 1747 
Q 3566 888 3137 398 
Q 2709 -91 1959 -91 
Q 1206 -91 779 398 
Q 353 888 353 1747 
Q 353 2609 779 3096 
Q 1206 3584 1959 3584 
z
M 1729 5119 
L 2191 5119 
L 2957 3944 
L 2523 3944 
L 1960 4709 
L 1398 3944 
L 963 3944 
L 1729 5119 
z
" transform="scale(0.015625)"/>
     </defs>
     <use xlink:href="#DejaVuSans-43"/>
     <use xlink:href="#DejaVuSans-6f" transform="translate(69.824219 0)"/>
     <use xlink:href="#DejaVuSans-6e" transform="translate(131.005859 0)"/>
     <use xlink:href="#DejaVuSans-74" transform="translate(194.384766 0)"/>
     <use xlink:href="#DejaVuSans-72" transform="translate(233.59375 0)"/>
     <use xlink:href="#DejaVuSans-f4" transform="translate(272.457031 0)"/>
     <use xlink:href="#DejaVuSans-6c" transform="translate(333.638672 0)"/>
     <use xlink:href="#DejaVuSans-65" transform="translate(361.421875 0)"/>
     <use xlink:href="#DejaVuSans-20" transform="translate(422.945312 0)"/>
     <use xlink:href="#DejaVuSans-73" transform="translate(454.732422 0)"/>
     <use xlink:href="#DejaVuSans-65" transform="translate(506.832031 0)"/>
     <use xlink:href="#DejaVuSans-75" transform="translate(568.355469 0)"/>
     <use xlink:href="#DejaVuSans-69" transform="translate(631.734375 0)"/>
     <use xlink:href="#DejaVuSans-6c" transform="translate(659.517578 0)"/>
     <use xlink:href="#DejaVuSans-73" transform="translate(687.300781 0)"/>
     <use xlink:href="#DejaVuSans-20" transform="translate(739.400391 0)"/>
     <use xlink:href="#DejaVuSans-6d" transform="translate(771.1875 0)"/>
     <use xlink:href="#DejaVuSans-e9" transform="translate(868.599609 0)"/>
     <use xlink:href="#DejaVuSans-74" transform="translate(930.123047 0)"/>
     <use xlink:href="#DejaVuSans-69" transform="translate(969.332031 0)"/>
     <use xlink:href="#DejaVuSans-65" transform="translate(997.115234 0)"/>
     <use xlink:href="#DejaVuSans-72" transform="translate(1058.638672 0)"/>
    </g>
   </g>
   <g id="text_7">
    <!-- Variation brutale ? -->
    <g style="fill: #111111" transform="translate(242.592031 405.663006) scale(0.095 -0.095)">
     <use xlink:href="#DejaVuSans-56"/>
     <use xlink:href="#DejaVuSans-61" transform="translate(60.658203 0)"/>
     <use xlink:href="#DejaVuSans-72" transform="translate(121.9375 0)"/>
     <use xlink:href="#DejaVuSans-69" transform="translate(163.050781 0)"/>
     <use xlink:href="#DejaVuSans-61" transform="translate(190.833984 0)"/>
     <use xlink:href="#DejaVuSans-74" transform="translate(252.113281 0)"/>
     <use xlink:href="#DejaVuSans-69" transform="translate(291.322266 0)"/>
     <use xlink:href="#DejaVuSans-6f" transform="translate(319.105469 0)"/>
     <use xlink:href="#DejaVuSans-6e" transform="translate(380.287109 0)"/>
     <use xlink:href="#DejaVuSans-20" transform="translate(443.666016 0)"/>
     <use xlink:href="#DejaVuSans-62" transform="translate(475.453125 0)"/>
     <use xlink:href="#DejaVuSans-72" transform="translate(538.929688 0)"/>
     <use xlink:href="#DejaVuSans-75" transform="translate(580.042969 0)"/>
     <use xlink:href="#DejaVuSans-74" transform="translate(643.421875 0)"/>
     <use xlink:href="#DejaVuSans-61" transform="translate(682.630859 0)"/>
     <use xlink:href="#DejaVuSans-6c" transform="translate(743.910156 0)"/>
     <use xlink:href="#DejaVuSans-65" transform="translate(771.693359 0)"/>
     <use xlink:href="#DejaVuSans-20" transform="translate(833.216797 0)"/>
     <use xlink:href="#DejaVuSans-3f" transform="translate(865.003906 0)"/>
    </g>
   </g>
   <g id="text_8">
    <!-- Créer alerte fraude -->
    <g style="fill: #111111" transform="translate(95.764922 492.149406) scale(0.095 -0.095)">
     <use xlink:href="#DejaVuSans-43"/>
     <use xlink:href="#DejaVuSans-72" transform="translate(69.824219 0)"/>
     <use xlink:href="#DejaVuSans-e9" transform="translate(108.6875 0)"/>
     <use xlink:href="#DejaVuSans-65" transform="translate(170.210938 0)"/>
     <use xlink:href="#DejaVuSans-72" transform="translate(231.734375 0)"/>
     <use xlink:href="#DejaVuSans-20" transform="translate(272.847656 0)"/>
     <use xlink:href="#DejaVuSans-61" transform="translate(304.634766 0)"/>
     <use xlink:href="#DejaVuSans-6c" transform="translate(365.914062 0)"/>
     <use xlink:href="#DejaVuSans-65" transform="translate(393.697266 0)"/>
     <use xlink:href="#DejaVuSans-72" transform="translate(455.220703 0)"/>
     <use xlink:href="#DejaVuSans-74" transform="translate(496.333984 0)"/>
     <use xlink:href="#DejaVuSans-65" transform="translate(535.542969 0)"/>
     <use xlink:href="#DejaVuSans-20" transform="translate(597.066406 0)"/>
     <use xlink:href="#DejaVuSans-66" transform="translate(628.853516 0)"/>
     <use xlink:href="#DejaVuSans-72" transform="translate(664.058594 0)"/>
     <use xlink:href="#DejaVuSans-61" transform="translate(705.171875 0)"/>
     <use xlink:href="#DejaVuSans-75" transform="translate(766.451172 0)"/>
     <use xlink:href="#DejaVuSans-64" transform="translate(829.830078 0)"/>
     <use xlink:href="#DejaVuSans-65" transform="translate(893.306641 0)"/>
    </g>
   </g>
   <g id="text_9">
    <!-- Stocker mesure normale -->
    <g style="fill: #111111" transform="translate(373.042031 492.149406) scale(0.095 -0.095)">
     <defs>
      <path id="DejaVuSans-6b" d="M 581 4863 
L 1159 4863 
L 1159 1991 
L 2875 3500 
L 3609 3500 
L 1753 1863 
L 3688 0 
L 2938 0 
L 1159 1709 
L 1159 0 
L 581 0 
L 581 4863 
z
" transform="scale(0.015625)"/>
     </defs>
     <use xlink:href="#DejaVuSans-53"/>
     <use xlink:href="#DejaVuSans-74" transform="translate(63.476562 0)"/>
     <use xlink:href="#DejaVuSans-6f" transform="translate(102.685547 0)"/>
     <use xlink:href="#DejaVuSans-63" transform="translate(163.867188 0)"/>
     <use xlink:href="#DejaVuSans-6b" transform="translate(218.847656 0)"/>
     <use xlink:href="#DejaVuSans-65" transform="translate(273.132812 0)"/>
     <use xlink:href="#DejaVuSans-72" transform="translate(334.65625 0)"/>
     <use xlink:href="#DejaVuSans-20" transform="translate(375.769531 0)"/>
     <use xlink:href="#DejaVuSans-6d" transform="translate(407.556641 0)"/>
     <use xlink:href="#DejaVuSans-65" transform="translate(504.96875 0)"/>
     <use xlink:href="#DejaVuSans-73" transform="translate(566.492188 0)"/>
     <use xlink:href="#DejaVuSans-75" transform="translate(618.591797 0)"/>
     <use xlink:href="#DejaVuSans-72" transform="translate(681.970703 0)"/>
     <use xlink:href="#DejaVuSans-65" transform="translate(720.833984 0)"/>
     <use xlink:href="#DejaVuSans-20" transform="translate(782.357422 0)"/>
     <use xlink:href="#DejaVuSans-6e" transform="translate(814.144531 0)"/>
     <use xlink:href="#DejaVuSans-6f" transform="translate(877.523438 0)"/>
     <use xlink:href="#DejaVuSans-72" transform="translate(938.705078 0)"/>
     <use xlink:href="#DejaVuSans-6d" transform="translate(978.068359 0)"/>
     <use xlink:href="#DejaVuSans-61" transform="translate(1075.480469 0)"/>
     <use xlink:href="#DejaVuSans-6c" transform="translate(1136.759766 0)"/>
     <use xlink:href="#DejaVuSans-65" transform="translate(1164.542969 0)"/>
    </g>
   </g>
   <g id="text_10">
    <!-- Notifier dashboard -->
    <g style="fill: #111111" transform="translate(242.052461 578.635806) scale(0.095 -0.095)">
     <defs>
      <path id="DejaVuSans-68" d="M 3513 2113 
L 3513 0 
L 2938 0 
L 2938 2094 
Q 2938 2591 2744 2837 
Q 2550 3084 2163 3084 
Q 1697 3084 1428 2787 
Q 1159 2491 1159 1978 
L 1159 0 
L 581 0 
L 581 4863 
L 1159 4863 
L 1159 2956 
Q 1366 3272 1645 3428 
Q 1925 3584 2291 3584 
Q 2894 3584 3203 3211 
Q 3513 2838 3513 2113 
z
" transform="scale(0.015625)"/>
     </defs>
     <use xlink:href="#DejaVuSans-4e"/>
     <use xlink:href="#DejaVuSans-6f" transform="translate(74.804688 0)"/>
     <use xlink:href="#DejaVuSans-74" transform="translate(135.986328 0)"/>
     <use xlink:href="#DejaVuSans-69" transform="translate(175.195312 0)"/>
     <use xlink:href="#DejaVuSans-66" transform="translate(202.978516 0)"/>
     <use xlink:href="#DejaVuSans-69" transform="translate(238.183594 0)"/>
     <use xlink:href="#DejaVuSans-65" transform="translate(265.966797 0)"/>
     <use xlink:href="#DejaVuSans-72" transform="translate(327.490234 0)"/>
     <use xlink:href="#DejaVuSans-20" transform="translate(368.603516 0)"/>
     <use xlink:href="#DejaVuSans-64" transform="translate(400.390625 0)"/>
     <use xlink:href="#DejaVuSans-61" transform="translate(463.867188 0)"/>
     <use xlink:href="#DejaVuSans-73" transform="translate(525.146484 0)"/>
     <use xlink:href="#DejaVuSans-68" transform="translate(577.246094 0)"/>
     <use xlink:href="#DejaVuSans-62" transform="translate(640.625 0)"/>
     <use xlink:href="#DejaVuSans-6f" transform="translate(704.101562 0)"/>
     <use xlink:href="#DejaVuSans-61" transform="translate(765.283203 0)"/>
     <use xlink:href="#DejaVuSans-72" transform="translate(826.5625 0)"/>
     <use xlink:href="#DejaVuSans-64" transform="translate(865.925781 0)"/>
    </g>
   </g>
   <g id="text_11">
    <!-- Fin -->
    <g style="fill: #111111" transform="translate(279.482461 643.500606) scale(0.095 -0.095)">
     <defs>
      <path id="DejaVuSans-46" d="M 628 4666 
L 3309 4666 
L 3309 4134 
L 1259 4134 
L 1259 2759 
L 3109 2759 
L 3109 2228 
L 1259 2228 
L 1259 0 
L 628 0 
L 628 4666 
z
" transform="scale(0.015625)"/>
     </defs>
     <use xlink:href="#DejaVuSans-46"/>
     <use xlink:href="#DejaVuSans-69" transform="translate(50.269531 0)"/>
     <use xlink:href="#DejaVuSans-6e" transform="translate(78.052734 0)"/>
    </g>
   </g>
   <g id="patch_12">
    <path d="M 286.2 90.030284 
Q 286.2 97.010013 286.2 102.536299 
" style="fill: none; stroke: #555555; stroke-width: 1.3; stroke-linecap: round"/>
    <path d="M 288.2 98.536299 
L 286.2 102.536299 
L 284.2 98.536299 
" style="fill: none; stroke: #555555; stroke-width: 1.3; stroke-linecap: round"/>
   </g>
   <g id="patch_13">
    <path d="M 286.2 156.558284 
Q 286.2 163.538013 286.2 169.064299 
" style="fill: none; stroke: #555555; stroke-width: 1.3; stroke-linecap: round"/>
    <path d="M 288.2 165.064299 
L 286.2 169.064299 
L 284.2 165.064299 
" style="fill: none; stroke: #555555; stroke-width: 1.3; stroke-linecap: round"/>
   </g>
   <g id="patch_14">
    <path d="M 286.2 223.086284 
Q 286.2 230.066013 286.2 235.592299 
" style="fill: none; stroke: #555555; stroke-width: 1.3; stroke-linecap: round"/>
    <path d="M 288.2 231.592299 
L 286.2 235.592299 
L 284.2 231.592299 
" style="fill: none; stroke: #555555; stroke-width: 1.3; stroke-linecap: round"/>
   </g>
   <g id="patch_15">
    <path d="M 286.2 289.615908 
Q 286.2 299.922047 286.2 308.774743 
" style="fill: none; stroke: #555555; stroke-width: 1.3; stroke-linecap: round"/>
    <path d="M 288.2 304.774743 
L 286.2 308.774743 
L 284.2 304.774743 
" style="fill: none; stroke: #555555; stroke-width: 1.3; stroke-linecap: round"/>
   </g>
   <g id="text_12">
    <g id="patch_16">
     <path d="M 279.707625 294.436125 
L 292.692375 294.436125 
L 292.692375 285.451875 
L 279.707625 285.451875 
z
" style="fill: #ffffff"/>
    </g>
    <!-- oui -->
    <g transform="translate(280.715625 291.93075) scale(0.072 -0.072)">
     <use xlink:href="#DejaVuSans-6f"/>
     <use xlink:href="#DejaVuSans-75" transform="translate(61.181641 0)"/>
     <use xlink:href="#DejaVuSans-69" transform="translate(124.560547 0)"/>
    </g>
   </g>
   <g id="patch_17">
    <path d="M 286.2 362.795084 
Q 286.2 369.774813 286.2 375.301099 
" style="fill: none; stroke: #555555; stroke-width: 1.3; stroke-linecap: round"/>
    <path d="M 288.2 371.301099 
L 286.2 375.301099 
L 284.2 371.301099 
" style="fill: none; stroke: #555555; stroke-width: 1.3; stroke-linecap: round"/>
   </g>
   <g id="patch_18">
    <path d="M 244.334844 427.382548 
Q 194.130688 446.284541 145.286761 464.674404 
" style="fill: none; stroke: #555555; stroke-width: 1.3; stroke-linecap: round"/>
    <path d="M 149.734937 465.136712 
L 145.286761 464.674404 
L 148.325513 461.393248 
" style="fill: none; stroke: #555555; stroke-width: 1.3; stroke-linecap: round"/>
   </g>
   <g id="text_13">
    <g id="patch_19">
     <path d="M 187.637625 440.797725 
L 200.622375 440.797725 
L 200.622375 431.813475 
L 187.637625 431.813475 
z
" style="fill: #ffffff"/>
    </g>
    <!-- oui -->
    <g transform="translate(188.645625 438.29235) scale(0.072 -0.072)">
     <use xlink:href="#DejaVuSans-6f"/>
     <use xlink:href="#DejaVuSans-75" transform="translate(61.181641 0)"/>
     <use xlink:href="#DejaVuSans-69" transform="translate(124.560547 0)"/>
    </g>
   </g>
   <g id="patch_20">
    <path d="M 328.065156 427.382548 
Q 378.269312 446.284541 427.113239 464.674404 
" style="fill: none; stroke: #555555; stroke-width: 1.3; stroke-linecap: round"/>
    <path d="M 424.074487 461.393248 
L 427.113239 464.674404 
L 422.665063 465.136712 
" style="fill: none; stroke: #555555; stroke-width: 1.3; stroke-linecap: round"/>
   </g>
   <g id="text_14">
    <g id="patch_21">
     <path d="M 370.49625 440.797725 
L 386.04375 440.797725 
L 386.04375 431.813475 
L 370.49625 431.813475 
z
" style="fill: #ffffff"/>
    </g>
    <!-- non -->
    <g transform="translate(371.50425 438.29235) scale(0.072 -0.072)">
     <use xlink:href="#DejaVuSans-6e"/>
     <use xlink:href="#DejaVuSans-6f" transform="translate(63.378906 0)"/>
     <use xlink:href="#DejaVuSans-6e" transform="translate(124.560547 0)"/>
    </g>
   </g>
   <g id="patch_22">
    <path d="M 144.011151 513.608261 
Q 213.658433 532.770769 281.904344 551.547708 
" style="fill: none; stroke: #555555; stroke-width: 1.3; stroke-linecap: round"/>
    <path d="M 278.578215 548.55825 
L 281.904344 551.547708 
L 277.5171 552.414937 
" style="fill: none; stroke: #555555; stroke-width: 1.3; stroke-linecap: round"/>
   </g>
   <g id="patch_23">
    <path d="M 428.388849 513.608261 
Q 358.741567 532.770769 290.495656 551.547708 
" style="fill: none; stroke: #555555; stroke-width: 1.3; stroke-linecap: round"/>
    <path d="M 294.8829 552.414937 
L 290.495656 551.547708 
L 293.821785 548.55825 
" style="fill: none; stroke: #555555; stroke-width: 1.3; stroke-linecap: round"/>
   </g>
   <g id="patch_24">
    <path d="M 286.2 602.297914 
Q 286.2 610.942778 286.2 618.134198 
" style="fill: none; stroke: #555555; stroke-width: 1.3; stroke-linecap: round"/>
    <path d="M 288.2 614.134198 
L 286.2 618.134198 
L 284.2 614.134198 
" style="fill: none; stroke: #555555; stroke-width: 1.3; stroke-linecap: round"/>
   </g>
  </g>
 </g>
 <defs>
  <clipPath id="pbd64963413">
   <rect x="7.2" y="7.2" width="558" height="665.28"/>
  </clipPath>
 </defs>
</svg>
